<svg width="80" height="76" viewBox="0 0 80 76" fill="none" xmlns="http://www.w3.org/2000/svg">
<path d="M79.5 73.3193L68.2303 75.8347L71.6868 64.8171L79.5 73.3193ZM1.96238 0.728371C2.0515 1.04403 2.14238 1.3589 2.23502 1.67298L0.316726 2.23879C0.221889 1.91726 0.128848 1.59491 0.0376161 1.27175L1.96238 0.728371ZM2.81183 3.54794C3.01179 4.17205 3.21873 4.79295 3.43255 5.41061L1.54258 6.06486C1.32373 5.43263 1.1119 4.79706 0.9072 4.15817L2.81183 3.54794ZM4.09539 7.25623C4.32399 7.87041 4.55944 8.48129 4.80161 9.08886L2.94377 9.82941C2.69594 9.20766 2.45499 8.58248 2.22102 7.9539L4.09539 7.25623ZM5.54897 10.9032C5.80526 11.5059 6.06822 12.1051 6.33776 12.701L4.51551 13.5252C4.23978 12.9157 3.97074 12.3026 3.70851 11.686L5.54897 10.9032ZM7.16696 14.4805C7.45009 15.0707 7.73971 15.6574 8.03573 16.2408L6.25222 17.1458C5.94951 16.5493 5.65331 15.9492 5.36372 15.3455L7.16696 14.4805ZM8.94374 17.9821C9.25279 18.5592 9.56815 19.1328 9.88971 19.7028L8.14771 20.6854C7.81903 20.1027 7.49664 19.5163 7.18066 18.9263L8.94374 17.9821ZM10.8731 21.403C11.207 21.9661 11.547 22.5257 11.8929 23.0817L10.1948 24.1383C9.84138 23.5703 9.49399 22.9985 9.1528 22.423L10.8731 21.403ZM12.9485 24.7388C13.306 25.2871 13.6694 25.8319 14.0386 26.3731L12.3864 27.5001C12.0094 26.9475 11.6383 26.3911 11.2731 25.831L12.9485 24.7388ZM15.1629 27.9853C15.5429 28.5184 15.9285 29.0478 16.3197 29.5736L14.715 30.7673C14.3158 30.2307 13.9222 29.6903 13.5343 29.1462L15.1629 27.9853ZM17.5088 31.1389C17.9102 31.6563 18.317 32.1701 18.7291 32.6803L17.1733 33.9371C16.753 33.4168 16.338 32.8926 15.9285 32.3646L17.5088 31.1389ZM19.9794 34.1973C20.401 34.6989 20.8278 35.1967 21.2598 35.6909L19.7539 37.0071C19.3136 36.5034 18.8784 35.9957 18.4484 35.4843L19.9794 34.1973ZM22.5675 37.1586C23.0081 37.6437 23.4536 38.1251 23.904 38.6028L22.4488 39.9748C21.99 39.4882 21.536 38.9976 21.0869 38.5032L22.5675 37.1586ZM25.2664 40.0212C25.7247 40.4895 26.1876 40.9542 26.6552 41.415L25.2513 42.8394C24.7751 42.3701 24.3036 41.8969 23.8368 41.4198L25.2664 40.0212ZM28.0693 42.7839C28.5441 43.2354 29.0234 43.683 29.5071 44.1269L28.1548 45.6004C27.6625 45.1486 27.1746 44.6929 26.6912 44.2333L28.0693 42.7839ZM30.9698 45.446C31.4601 45.8804 31.9547 46.3111 32.4533 46.7379L31.1528 48.2573C30.6455 47.8231 30.1423 47.3849 29.6434 46.9428L30.9698 45.446ZM33.9604 48.0058C34.4656 48.4235 34.9748 48.8375 35.4879 49.2475L34.2393 50.8099C33.7176 50.3929 33.1997 49.972 32.6859 49.5471L33.9604 48.0058ZM37.0364 50.4642C37.5556 50.8652 38.0785 51.2624 38.6051 51.6556L37.4085 53.2581C36.8732 52.8584 36.3416 52.4546 35.8138 52.0469L37.0364 50.4642ZM40.1922 52.821C40.7244 53.2053 41.2602 53.5857 41.7995 53.9621L40.6547 55.6021C40.1067 55.2196 39.5623 54.8331 39.0215 54.4426L40.1922 52.821ZM43.4226 55.0764C43.9667 55.4437 44.5141 55.807 45.0648 56.1664L43.9717 57.8413C43.4124 57.4762 42.8563 57.1072 42.3037 56.7341L43.4226 55.0764ZM46.7226 57.2304C47.2777 57.5807 47.836 57.927 48.3972 58.2694L47.3557 59.9768C46.7858 59.6292 46.219 59.2775 45.6553 58.9218L46.7226 57.2304ZM50.0875 59.2831C50.6529 59.6165 51.2212 59.9459 51.7924 60.2713L50.8023 62.009C50.2226 61.6787 49.6457 61.3444 49.0717 61.0059L50.0875 59.2831ZM53.5127 61.2347C54.0878 61.5512 54.6655 61.8637 55.2459 62.1722L54.3072 63.9382C53.7182 63.6252 53.1319 63.308 52.5484 62.9868L53.5127 61.2347ZM56.9939 63.0852C57.578 63.3849 58.1646 63.6806 58.7537 63.9722L57.8662 65.7646C57.2687 65.4687 56.6735 65.1687 56.0809 64.8646L56.9939 63.0852ZM60.527 64.8346C61.1197 65.1176 61.7148 65.3966 62.312 65.6715L61.4758 67.4883C60.87 67.2095 60.2664 66.9265 59.6652 66.6394L60.527 64.8346ZM64.1089 66.4834C64.7095 66.7497 65.3123 67.0119 65.9172 67.2701L65.1321 69.1095C64.5187 68.8478 63.9074 68.5818 63.2982 68.3117L64.1089 66.4834ZM67.7359 68.0314C68.3439 68.281 68.9539 68.5264 69.5657 68.7677L68.8319 70.6282C68.2115 70.3836 67.593 70.1347 66.9765 69.8816L67.7359 68.0314ZM71.4048 69.4785C72.0195 69.7113 72.636 69.9399 73.2541 70.1643L72.5716 72.0442C71.9449 71.8167 71.3199 71.5849 70.6966 71.349L71.4048 69.4785ZM75.1122 70.8245C75.7331 71.0404 76.3555 71.252 76.9795 71.4595L76.3485 73.3573C75.716 73.147 75.0849 72.9324 74.4554 72.7136L75.1122 70.8245Z" fill="#FF7171"/>
</svg>
