<svg width="83" height="74" viewBox="0 0 83 74" fill="none" xmlns="http://www.w3.org/2000/svg">
<path d="M79.5 6.10352e-05L71.1799 8.00686L82.274 11.2089L79.5 6.10352e-05ZM77.6882 2.54794C77.4882 3.17205 77.2813 3.79295 77.0675 4.41061L78.9574 5.06486C79.1763 4.43263 79.3881 3.79706 79.5928 3.15817L77.6882 2.54794ZM76.4046 6.25623C76.176 6.87041 75.9406 7.48129 75.6984 8.08886L77.5562 8.82941C77.8041 8.20766 78.045 7.58248 78.279 6.9539L76.4046 6.25623ZM74.951 9.90325C74.6947 10.5059 74.4318 11.1051 74.1622 11.701L75.9845 12.5252C76.2602 11.9157 76.5293 11.3026 76.7915 10.686L74.951 9.90325ZM73.333 13.4805C73.0499 14.0707 72.7603 14.6574 72.4643 15.2408L74.2478 16.1458C74.5505 15.5493 74.8467 14.9492 75.1363 14.3455L73.333 13.4805ZM71.5563 16.9821C71.2472 17.5592 70.9318 18.1328 70.6103 18.7028L72.3523 19.6854C72.681 19.1027 73.0034 18.5163 73.3193 17.9263L71.5563 16.9821ZM69.6269 20.403C69.293 20.9661 68.953 21.5257 68.6071 22.0817L70.3052 23.1383C70.6586 22.5703 71.006 21.9985 71.3472 21.423L69.6269 20.403ZM67.5515 23.7388C67.194 24.2871 66.8306 24.8319 66.4614 25.3731L68.1136 26.5001C68.4906 25.9475 68.8617 25.3911 69.2269 24.831L67.5515 23.7388ZM65.3371 26.9853C64.9571 27.5184 64.5715 28.0478 64.1803 28.5736L65.785 29.7673C66.1842 29.2307 66.5778 28.6903 66.9657 28.1462L65.3371 26.9853ZM62.9912 30.1389C62.5898 30.6563 62.183 31.1701 61.7709 31.6803L63.3267 32.9371C63.747 32.4168 64.162 31.8926 64.5715 31.3646L62.9912 30.1389ZM60.5206 33.1973C60.099 33.6989 59.6722 34.1967 59.2402 34.6909L60.7461 36.0071C61.1864 35.5034 61.6216 34.9957 62.0516 34.4843L60.5206 33.1973ZM57.9325 36.1586C57.4919 36.6437 57.0464 37.1251 56.596 37.6028L58.0512 38.9748C58.51 38.4882 58.964 37.9976 59.4131 37.5032L57.9325 36.1586ZM55.2336 39.0212C54.7753 39.4895 54.3124 39.9542 53.8448 40.415L55.2487 41.8394C55.7249 41.3701 56.1964 40.8969 56.6632 40.4198L55.2336 39.0212ZM52.4307 41.7839C51.9559 42.2354 51.4766 42.683 50.9929 43.1269L52.3452 44.6004C52.8375 44.1486 53.3254 43.6929 53.8088 43.2333L52.4307 41.7839ZM49.5302 44.446C49.0399 44.8804 48.5453 45.3111 48.0467 45.7379L49.3472 47.2573C49.8545 46.8231 50.3577 46.3849 50.8566 45.9428L49.5302 44.446ZM46.5396 47.0058C46.0344 47.4235 45.5252 47.8375 45.0121 48.2475L46.2607 49.8099C46.7824 49.3929 47.3003 48.972 47.8141 48.5471L46.5396 47.0058ZM43.4636 49.4642C42.9444 49.8652 42.4215 50.2624 41.8949 50.6556L43.0915 52.2581C43.6268 51.8584 44.1584 51.4546 44.6862 51.0469L43.4636 49.4642ZM40.3078 51.821C39.7756 52.2053 39.2398 52.5857 38.7005 52.9621L39.8453 54.6021C40.3933 54.2196 40.9377 53.8331 41.4785 53.4426L40.3078 51.821ZM37.0774 54.0764C36.5333 54.4437 35.9859 54.807 35.4352 55.1664L36.5283 56.8413C37.0876 56.4762 37.6437 56.1072 38.1963 55.7341L37.0774 54.0764ZM33.7774 56.2304C33.2223 56.5807 32.664 56.927 32.1028 57.2694L33.1443 58.9768C33.7142 58.6292 34.281 58.2775 34.8447 57.9218L33.7774 56.2304ZM30.4125 58.2831C29.8471 58.6165 29.2788 58.9459 28.7076 59.2713L29.6977 61.009C30.2774 60.6787 30.8543 60.3444 31.4283 60.0059L30.4125 58.2831ZM26.9873 60.2347C26.4122 60.5512 25.8345 60.8637 25.2541 61.1722L26.1928 62.9382C26.7818 62.6252 27.3681 62.308 27.9516 61.9868L26.9873 60.2347ZM23.5061 62.0852C22.922 62.3849 22.3354 62.6806 21.7463 62.9722L22.6338 64.7646C23.2313 64.4687 23.8265 64.1687 24.4191 63.8646L23.5061 62.0852ZM19.973 63.8346C19.3803 64.1176 18.7852 64.3966 18.188 64.6715L19.0242 66.4883C19.63 66.2095 20.2336 65.9265 20.8348 65.6394L19.973 63.8346ZM16.3911 65.4834C15.7905 65.7497 15.1877 66.0119 14.5828 66.2701L15.3679 68.1095C15.9813 67.8478 16.5926 67.5818 17.2018 67.3117L16.3911 65.4834ZM12.7641 67.0314C12.1561 67.281 11.5461 67.5264 10.9343 67.7677L11.6681 69.6282C12.2885 69.3836 12.907 69.1347 13.5235 68.8816L12.7641 67.0314ZM9.09521 68.4785C8.4805 68.7113 7.86402 68.9399 7.24588 69.1643L7.92838 71.0442C8.55509 70.8167 9.18013 70.5849 9.8034 70.349L9.09521 68.4785ZM5.38779 69.8245C4.76691 70.0404 4.14445 70.252 3.52051 70.4595L4.1515 72.3573C4.78405 72.147 5.4151 71.9324 6.04457 71.7136L5.38779 69.8245ZM1.64491 71.069C1.33158 71.1684 1.01791 71.2668 0.703896 71.3642L1.2961 73.2745C1.61443 73.1758 1.93243 73.076 2.25007 72.9752L1.64491 71.069Z" fill="#FF7171"/>
</svg>
