<svg width="113" height="76" viewBox="0 0 113 76" fill="none" xmlns="http://www.w3.org/2000/svg">
<g filter="url(#filter0_d_2421_24445)">
<rect x="24.1293" y="8.07031" width="64" height="26" rx="13" fill="#EDEDFF" shape-rendering="crispEdges"/>
<path d="M44.7082 25.1903C44.1082 25.1823 43.5762 25.0463 43.1122 24.7823C42.6482 24.5183 42.2602 24.1703 41.9482 23.7383C41.6362 23.3063 41.4002 22.8423 41.2402 22.3463C41.0882 21.8423 41.0122 21.3503 41.0122 20.8703C41.0122 20.3583 41.0962 19.8463 41.2642 19.3343C41.4322 18.8223 41.6762 18.3583 41.9962 17.9423C42.3242 17.5183 42.7162 17.1823 43.1722 16.9343C43.6282 16.6783 44.1402 16.5503 44.7082 16.5503C45.3242 16.5503 45.8602 16.6863 46.3162 16.9583C46.7802 17.2303 47.1682 17.5823 47.4802 18.0143C47.7922 18.4463 48.0242 18.9143 48.1762 19.4183C48.3362 19.9223 48.4162 20.4063 48.4162 20.8703C48.4162 21.3903 48.3322 21.9063 48.1642 22.4183C47.9962 22.9223 47.7482 23.3823 47.4202 23.7983C47.1002 24.2143 46.7122 24.5503 46.2562 24.8063C45.8002 25.0543 45.2842 25.1823 44.7082 25.1903ZM42.6802 20.8703C42.6882 21.2063 42.7322 21.5423 42.8122 21.8783C42.9002 22.2063 43.0242 22.5103 43.1842 22.7903C43.3522 23.0703 43.5642 23.2983 43.8202 23.4743C44.0762 23.6423 44.3722 23.7263 44.7082 23.7263C45.0682 23.7263 45.3762 23.6343 45.6322 23.4503C45.8882 23.2663 46.0962 23.0303 46.2562 22.7423C46.4242 22.4543 46.5482 22.1463 46.6282 21.8183C46.7082 21.4903 46.7482 21.1743 46.7482 20.8703C46.7482 20.5343 46.7042 20.2023 46.6162 19.8743C46.5362 19.5383 46.4082 19.2303 46.2322 18.9503C46.0642 18.6703 45.8522 18.4463 45.5962 18.2783C45.3482 18.1023 45.0522 18.0143 44.7082 18.0143C44.3562 18.0143 44.0522 18.1063 43.7962 18.2903C43.5402 18.4743 43.3282 18.7103 43.1602 18.9983C43.0002 19.2863 42.8802 19.5943 42.8002 19.9223C42.7202 20.2503 42.6802 20.5663 42.6802 20.8703ZM52.5371 25.0703V18.7823H56.7011V20.1863H54.1451V25.0703H52.5371ZM60.527 25.1903C60.015 25.1903 59.555 25.1063 59.147 24.9383C58.739 24.7623 58.391 24.5223 58.103 24.2183C57.823 23.9143 57.607 23.5663 57.455 23.1743C57.303 22.7823 57.227 22.3703 57.227 21.9383C57.227 21.4983 57.303 21.0823 57.455 20.6903C57.607 20.2983 57.823 19.9503 58.103 19.6463C58.391 19.3423 58.739 19.1063 59.147 18.9383C59.555 18.7623 60.015 18.6743 60.527 18.6743C61.039 18.6743 61.495 18.7623 61.895 18.9383C62.303 19.1063 62.651 19.3423 62.939 19.6463C63.227 19.9503 63.443 20.2983 63.587 20.6903C63.739 21.0823 63.815 21.4983 63.815 21.9383C63.815 22.3703 63.739 22.7823 63.587 23.1743C63.443 23.5663 63.227 23.9143 62.939 24.2183C62.659 24.5223 62.315 24.7623 61.907 24.9383C61.499 25.1063 61.039 25.1903 60.527 25.1903ZM58.883 21.9383C58.883 22.3063 58.955 22.6343 59.099 22.9223C59.243 23.2023 59.439 23.4223 59.687 23.5823C59.935 23.7423 60.215 23.8223 60.527 23.8223C60.831 23.8223 61.107 23.7423 61.355 23.5823C61.603 23.4143 61.799 23.1903 61.943 22.9103C62.095 22.6223 62.171 22.2943 62.171 21.9263C62.171 21.5663 62.095 21.2423 61.943 20.9543C61.799 20.6663 61.603 20.4423 61.355 20.2823C61.107 20.1223 60.831 20.0423 60.527 20.0423C60.215 20.0423 59.935 20.1263 59.687 20.2943C59.439 20.4543 59.243 20.6783 59.099 20.9663C58.955 21.2463 58.883 21.5703 58.883 21.9383ZM64.3843 26.5943V23.6663H64.5523C64.7123 23.6663 64.8603 23.6223 64.9963 23.5343C65.1403 23.4463 65.2643 23.2983 65.3683 23.0903C65.4803 22.8743 65.5683 22.5783 65.6323 22.2023C65.7043 21.8263 65.7523 21.3463 65.7763 20.7623L65.8483 18.7823H70.5643V23.6663H71.4403V26.5943H70.0363V25.0703H65.8003V26.5943H64.3843ZM66.5803 23.6663H68.9563V20.1383H67.2523L67.2163 20.9183C67.1923 21.4463 67.1523 21.8943 67.0963 22.2623C67.0483 22.6223 66.9803 22.9183 66.8923 23.1503C66.8123 23.3743 66.7083 23.5463 66.5803 23.6663Z" fill="#0F0F1A"/>
<path d="M75.1586 34.0703C75.1586 34.0703 84.1586 33.0703 88.6586 35.5703C86.6586 30.0703 88.1586 22.0703 88.1586 22.0703L75.1586 34.0703Z" fill="#EDEDFF"/>
</g>
<defs>
<filter id="filter0_d_2421_24445" x="0.129272" y="0.0703125" width="112.529" height="75.5" filterUnits="userSpaceOnUse" color-interpolation-filters="sRGB">
<feFlood flood-opacity="0" result="BackgroundImageFix"/>
<feColorMatrix in="SourceAlpha" type="matrix" values="0 0 0 0 0 0 0 0 0 0 0 0 0 0 0 0 0 0 127 0" result="hardAlpha"/>
<feOffset dy="16"/>
<feGaussianBlur stdDeviation="12"/>
<feComposite in2="hardAlpha" operator="out"/>
<feColorMatrix type="matrix" values="0 0 0 0 0 0 0 0 0 0 0 0 0 0 0 0 0 0 0.08 0"/>
<feBlend mode="normal" in2="BackgroundImageFix" result="effect1_dropShadow_2421_24445"/>
<feBlend mode="normal" in="SourceGraphic" in2="effect1_dropShadow_2421_24445" result="shape"/>
</filter>
</defs>
</svg>
