<svg width="85" height="28" viewBox="0 0 85 28" fill="none" xmlns="http://www.w3.org/2000/svg">
<path d="M9.0227 19.0745V21H1.17757V9.70174H8.87948V11.6272H3.37357V14.3483H8.13157V16.1306H3.37357V19.0745H9.0227ZM18.2309 21H16.0985V16.3216C16.0985 15.6532 15.9818 15.1652 15.7484 14.8576C15.5151 14.5499 15.1915 14.3961 14.7777 14.3961C14.4913 14.3961 14.1996 14.4703 13.9025 14.6189C13.6161 14.7674 13.3562 14.9743 13.1228 15.2395C12.8894 15.4941 12.7197 15.7911 12.6136 16.1306V21H10.4812V12.6616H12.4067V14.2051C12.6189 13.8444 12.8894 13.5421 13.2183 13.2981C13.5471 13.0435 13.9237 12.8525 14.3481 12.7252C14.7831 12.5873 15.2392 12.5183 15.7166 12.5183C16.2364 12.5183 16.6608 12.6138 16.9897 12.8048C17.3291 12.9851 17.5837 13.2344 17.7535 13.5527C17.9338 13.8603 18.0558 14.2104 18.1195 14.603C18.1937 14.9955 18.2309 15.3933 18.2309 15.7964V21ZM25.0351 20.5703C24.8547 20.6446 24.6372 20.7295 24.3826 20.825C24.128 20.9204 23.8522 20.9947 23.5552 21.0477C23.2687 21.1114 22.977 21.1432 22.6799 21.1432C22.2874 21.1432 21.9267 21.0743 21.5979 20.9363C21.269 20.7984 21.0038 20.581 20.8022 20.2839C20.6112 19.9763 20.5158 19.5784 20.5158 19.0904V14.3006H19.4178V12.6616H20.5158V9.95635H22.6481V12.6616H24.3986V14.3006H22.6481V18.3743C22.6587 18.6608 22.7383 18.8677 22.8868 18.995C23.0353 19.1223 23.221 19.1859 23.4438 19.1859C23.6666 19.1859 23.884 19.1488 24.0962 19.0745C24.3084 19.0003 24.4781 18.9366 24.6054 18.8836L25.0351 20.5703ZM26.3525 21V9.70174H31.1423C31.6622 9.70174 32.1395 9.80783 32.5745 10.02C33.0095 10.2322 33.3861 10.5186 33.7043 10.8793C34.0332 11.24 34.2878 11.6431 34.4682 12.0887C34.6485 12.5343 34.7387 12.9904 34.7387 13.4572C34.7387 14.0937 34.5902 14.6984 34.2931 15.2713C33.9961 15.8442 33.5876 16.311 33.0678 16.6717C32.548 17.0323 31.9327 17.2127 31.2219 17.2127H28.5485V21H26.3525ZM28.5485 15.2872H31.0946C31.3598 15.2872 31.5985 15.213 31.8107 15.0644C32.0228 14.9159 32.1926 14.7037 32.3199 14.4279C32.4472 14.1415 32.5108 13.8179 32.5108 13.4572C32.5108 13.0647 32.4366 12.7305 32.2881 12.4547C32.1502 12.1789 31.9645 11.972 31.7311 11.8341C31.5083 11.6962 31.2643 11.6272 30.9991 11.6272H28.5485V15.2872ZM35.3786 18.5335C35.3786 17.9924 35.5271 17.5203 35.8241 17.1172C36.1318 16.7035 36.5561 16.3852 37.0972 16.1624C37.6382 15.9397 38.2588 15.8283 38.959 15.8283C39.3091 15.8283 39.6645 15.8548 40.0252 15.9078C40.3859 15.9609 40.6988 16.0457 40.964 16.1624V15.7169C40.964 15.1864 40.8049 14.778 40.4866 14.4916C40.179 14.2051 39.7175 14.0619 39.1022 14.0619C38.646 14.0619 38.2111 14.1415 37.7973 14.3006C37.3836 14.4597 36.9486 14.6931 36.4925 15.0008L35.8082 13.6004C36.3599 13.2397 36.9221 12.9692 37.495 12.7889C38.0785 12.6085 38.6885 12.5183 39.325 12.5183C40.5132 12.5183 41.4361 12.8154 42.0939 13.4095C42.7622 14.0036 43.0964 14.8523 43.0964 15.9556V18.613C43.0964 18.8358 43.1335 18.995 43.2078 19.0904C43.2926 19.1859 43.4252 19.2443 43.6056 19.2655V21C43.4146 21.0318 43.2396 21.0583 43.0805 21.0796C42.9319 21.1008 42.8046 21.1114 42.6986 21.1114C42.2742 21.1114 41.9506 21.0159 41.7279 20.825C41.5157 20.634 41.3831 20.4006 41.33 20.1248L41.2823 19.6951C40.9216 20.1619 40.4707 20.5226 39.9297 20.7772C39.3886 21.0318 38.837 21.1591 38.2747 21.1591C37.7231 21.1591 37.2245 21.0477 36.7789 20.825C36.3439 20.5916 35.9992 20.2786 35.7446 19.8861C35.5006 19.483 35.3786 19.0321 35.3786 18.5335ZM40.5662 18.9631C40.6829 18.8358 40.7784 18.7085 40.8526 18.5812C40.9269 18.4539 40.964 18.3372 40.964 18.2311V17.3877C40.7094 17.2817 40.4336 17.2021 40.1366 17.149C39.8395 17.0854 39.5584 17.0536 39.2932 17.0536C38.7415 17.0536 38.2853 17.1756 37.9246 17.4196C37.5746 17.653 37.3995 17.9659 37.3995 18.3584C37.3995 18.5706 37.4579 18.7722 37.5746 18.9631C37.6912 19.1541 37.861 19.3079 38.0838 19.4246C38.3066 19.5413 38.5718 19.5997 38.8794 19.5997C39.1977 19.5997 39.5106 19.5413 39.8183 19.4246C40.1259 19.2973 40.3752 19.1435 40.5662 18.9631ZM50.008 20.5703C49.8276 20.6446 49.6102 20.7295 49.3555 20.825C49.1009 20.9204 48.8251 20.9947 48.5281 21.0477C48.2416 21.1114 47.9499 21.1432 47.6529 21.1432C47.2603 21.1432 46.8996 21.0743 46.5708 20.9363C46.2419 20.7984 45.9767 20.581 45.7751 20.2839C45.5842 19.9763 45.4887 19.5784 45.4887 19.0904V14.3006H44.3907V12.6616H45.4887V9.95635H47.621V12.6616H49.3715V14.3006H47.621V18.3743C47.6316 18.6608 47.7112 18.8677 47.8597 18.995C48.0082 19.1223 48.1939 19.1859 48.4167 19.1859C48.6395 19.1859 48.8569 19.1488 49.0691 19.0745C49.2813 19.0003 49.451 18.9366 49.5783 18.8836L50.008 20.5703ZM58.8682 21H56.7358V16.3216C56.7358 15.6744 56.6085 15.1917 56.3539 14.8735C56.1099 14.5552 55.7705 14.3961 55.3355 14.3961C55.0809 14.3961 54.8104 14.4703 54.5239 14.6189C54.2375 14.7674 53.9776 14.9743 53.7442 15.2395C53.5214 15.4941 53.357 15.7911 53.2509 16.1306V21H51.1185V9.38348H53.2509V14.2051C53.5585 13.6747 53.9776 13.261 54.508 12.9639C55.0385 12.6669 55.6166 12.5183 56.2425 12.5183C56.7836 12.5183 57.2238 12.6138 57.5633 12.8048C57.9028 12.9851 58.168 13.2344 58.359 13.5527C58.5499 13.8603 58.6825 14.2104 58.7568 14.603C58.8311 14.9849 58.8682 15.3827 58.8682 15.7964V21Z" fill="#0F0F1A"/>
<path d="M44.3609 7.0868C44.0137 7.0868 43.7273 7.00289 43.5016 6.83508C43.2759 6.66727 43.1139 6.44738 43.0155 6.17541L42.8419 7H42L43.3454 0.663715H44.3002L43.7446 3.31975C43.9645 3.03621 44.222 2.81053 44.5172 2.64272C44.8123 2.46912 45.1218 2.38232 45.4459 2.38232C45.7757 2.38232 46.0506 2.46912 46.2705 2.64272C46.4904 2.81053 46.6553 3.03331 46.7652 3.31107C46.881 3.58882 46.9388 3.89262 46.9388 4.22245C46.9388 4.61015 46.8665 4.9776 46.7218 5.32479C46.583 5.6662 46.3891 5.96999 46.1403 6.23617C45.8972 6.50236 45.6224 6.71067 45.3157 6.86112C45.009 7.01157 44.6908 7.0868 44.3609 7.0868ZM44.3088 6.27089C44.5172 6.27089 44.7168 6.22171 44.9077 6.12334C45.1045 6.01918 45.2781 5.8803 45.4285 5.7067C45.5848 5.52732 45.7063 5.32768 45.7931 5.10779C45.8857 4.88212 45.932 4.64776 45.932 4.40473C45.932 4.19062 45.8944 3.99388 45.8191 3.8145C45.7439 3.62933 45.6369 3.48177 45.498 3.37183C45.3591 3.25609 45.1855 3.19823 44.9772 3.19823C44.8036 3.19823 44.6271 3.24452 44.4477 3.33711C44.2741 3.42391 44.1121 3.54253 43.9616 3.69298C43.8112 3.83764 43.6781 3.99967 43.5624 4.17905L43.302 5.37687C43.3135 5.54468 43.3656 5.69802 43.4582 5.8369C43.5508 5.96999 43.6694 6.07704 43.8141 6.15806C43.9645 6.23328 44.1295 6.27089 44.3088 6.27089ZM49.2431 7.0868C48.8611 7.0868 48.5342 7.00289 48.2622 6.83508C47.9903 6.66727 47.782 6.4387 47.6373 6.14938C47.4984 5.86005 47.429 5.53311 47.429 5.16855C47.429 4.79243 47.4984 4.43945 47.6373 4.10961C47.7762 3.77399 47.9729 3.47598 48.2275 3.21559C48.4821 2.95519 48.7772 2.75266 49.1129 2.608C49.4543 2.45755 49.8246 2.38232 50.2239 2.38232C50.5364 2.38232 50.8083 2.43151 51.0398 2.52988C51.277 2.62247 51.4593 2.76134 51.5866 2.94651C51.7197 3.1259 51.7863 3.35447 51.7863 3.63222C51.7863 4.09515 51.575 4.44813 51.1526 4.69116C50.736 4.9342 50.0995 5.05572 49.2431 5.05572C49.081 5.05572 48.8988 5.05282 48.6962 5.04704C48.4937 5.03546 48.2651 5.0181 48.0105 4.99496L48.1407 4.37869C48.3722 4.39026 48.5776 4.40183 48.757 4.41341C48.9364 4.42498 49.1042 4.43077 49.2604 4.43077C49.6713 4.43077 49.9953 4.39894 50.2326 4.33529C50.4698 4.27164 50.6405 4.18194 50.7447 4.06621C50.8488 3.9447 50.9009 3.80871 50.9009 3.65826C50.9009 3.52517 50.8691 3.41812 50.8054 3.33711C50.7418 3.25609 50.6521 3.19534 50.5364 3.15483C50.4206 3.10854 50.2817 3.08539 50.1197 3.08539C49.8651 3.08539 49.6308 3.14326 49.4167 3.25899C49.2026 3.36893 49.0174 3.52517 48.8611 3.7277C48.7107 3.92444 48.5921 4.14723 48.5053 4.39605C48.4243 4.64487 48.3838 4.90816 48.3838 5.18591C48.3838 5.4058 48.4185 5.60833 48.4879 5.7935C48.5631 5.97289 48.676 6.11755 48.8264 6.22749C48.9827 6.33165 49.1765 6.38373 49.408 6.38373C49.6568 6.38373 49.8969 6.32297 50.1284 6.20145C50.3599 6.07415 50.5421 5.90345 50.6752 5.68934L51.4304 5.9237C51.2857 6.14938 51.0976 6.35191 50.8662 6.53129C50.6347 6.70489 50.3772 6.84087 50.0937 6.93924C49.8159 7.03761 49.5324 7.0868 49.2431 7.0868ZM52.3593 6.32297C52.3593 6.27668 52.3621 6.23039 52.3679 6.18409C52.3737 6.1378 52.3824 6.08862 52.394 6.03654L53.0016 3.19823H52.42L52.5849 2.46044H53.1491L53.4703 0.967509H54.4251L54.1039 2.46044H55.0413L54.8851 3.19823H53.9563L53.4182 5.73274C53.4124 5.75589 53.4066 5.77904 53.4008 5.80218C53.4008 5.81954 53.4008 5.83979 53.4008 5.86294C53.4008 5.97867 53.4327 6.06258 53.4963 6.11466C53.5658 6.16674 53.6526 6.19277 53.7567 6.19277C53.8435 6.19277 53.9274 6.1812 54.0084 6.15806C54.0952 6.13491 54.1733 6.11176 54.2428 6.08862C54.3122 6.05968 54.3701 6.03364 54.4164 6.0105L54.4511 6.76564C54.3643 6.81772 54.2544 6.8698 54.1213 6.92188C53.994 6.96817 53.8551 7.00289 53.7046 7.02604C53.5542 7.05497 53.3979 7.06944 53.2359 7.06944C52.9871 7.06944 52.7788 7.01157 52.611 6.89584C52.4432 6.77432 52.3593 6.58337 52.3593 6.32297ZM56.7652 7.0868C56.4296 7.0868 56.1403 7.00289 55.8972 6.83508C55.6542 6.66727 55.469 6.4416 55.3417 6.15806C55.2144 5.87451 55.1508 5.55915 55.1508 5.21195C55.1508 4.84161 55.2173 4.48863 55.3504 4.15301C55.4835 3.8116 55.6658 3.5107 55.8972 3.25031C56.1345 2.98413 56.4036 2.77292 56.7045 2.61668C57.0054 2.46044 57.3207 2.38232 57.6506 2.38232C57.9804 2.38232 58.2582 2.47202 58.4838 2.6514C58.7095 2.83078 58.8657 3.05356 58.9525 3.31975L59.1348 2.46912H60.0983L59.3692 5.87162C59.3634 5.90055 59.3576 5.92659 59.3518 5.94974C59.3518 5.9671 59.3518 5.98446 59.3518 6.00182C59.3518 6.11755 59.4184 6.17831 59.5515 6.18409L59.3779 7C59.2968 7.01157 59.2245 7.02025 59.1609 7.02604C59.0972 7.03761 59.0393 7.0434 58.9873 7.0434C58.8079 7.0434 58.669 7.00579 58.5706 6.93056C58.4723 6.84955 58.4231 6.73671 58.4231 6.59205C58.4231 6.56311 58.4231 6.5284 58.4231 6.48789C58.4289 6.44738 58.4346 6.40109 58.4404 6.34901C58.452 6.29693 58.4665 6.23907 58.4838 6.17541C58.2582 6.46474 57.9891 6.69042 57.6766 6.85244C57.3699 7.00868 57.0661 7.0868 56.7652 7.0868ZM57.1819 6.27089C57.2976 6.27089 57.4191 6.24775 57.5464 6.20145C57.6795 6.15516 57.8068 6.09151 57.9283 6.0105C58.0556 5.92949 58.1714 5.83401 58.2755 5.72406C58.3797 5.61412 58.4636 5.49549 58.5272 5.36819L58.7703 4.17905C58.7471 3.99388 58.6864 3.82896 58.588 3.6843C58.4896 3.53385 58.3681 3.41523 58.2234 3.32843C58.0846 3.24163 57.9341 3.19823 57.7721 3.19823C57.5522 3.19823 57.3439 3.2532 57.1471 3.36315C56.9562 3.4673 56.7855 3.60907 56.635 3.78846C56.4904 3.96784 56.3746 4.16748 56.2878 4.38737C56.201 4.60726 56.1576 4.83004 56.1576 5.05572C56.1576 5.28718 56.1981 5.4926 56.2792 5.67198C56.366 5.85137 56.4846 5.99603 56.635 6.10598C56.7913 6.21592 56.9735 6.27089 57.1819 6.27089Z" fill="#FF0000"/>
<path fill-rule="evenodd" clip-rule="evenodd" d="M79.9559 7C80.6192 7 81.1569 7.51779 81.1569 8.15652C81.1569 8.79525 80.6192 9.31304 79.9559 9.31304C75.1211 9.31304 73.6307 9.46815 72.1153 10.8989C71.2549 11.7112 70.5096 12.7946 69.4738 14.0033C68.708 14.8971 68.6094 15.2756 67.1252 15.2939C66.2008 16.3809 66.4605 17.607 65.201 17.607C64.5377 17.607 64 17.0892 64 16.4504C64 15.8117 64.5377 15.2939 65.201 15.2939C66.7853 15.2939 67.4738 12.825 68.5 11.4607C69.1899 10.5434 69.5442 10.087 70.4337 9.2472C72.7614 7.04962 75.32 7 79.9559 7ZM73.2353 15.2939C73.3676 15.1712 73.5217 15.0271 73.6594 14.8971C73.5168 15.0318 73.3759 15.1643 73.2353 15.2939ZM70.0173 18.0671C69.3883 17.7824 69 17.5 67.01 17.606L72.7416 17.5078C73.2921 17.5128 73.5145 17.7693 73.6521 17.8995C73.6925 17.9377 73.73 17.9732 73.7623 18.0037C75.2778 19.4345 76.7682 19.5896 81.6029 19.5896C82.2662 19.5896 82.8039 20.1074 82.8039 20.7461C82.8039 21.3848 82.2662 21.9026 81.6029 21.9026C76.9671 21.9026 74.4085 21.853 72.0808 19.6554C71.1912 18.8156 70.665 18.3603 70.0173 18.0671ZM65.201 15.2939C65.9884 15.2939 66.18 16.7805 67.01 17.606C68.5 17.5825 68.2617 17.3874 69.245 18.7822C69.9118 19.728 69.988 19.9948 70.4337 20.5241C71.33 21.5886 71.1724 21.418 72.1153 22.1011C74.1488 23.5743 75.1211 23.687 79.9559 23.687C80.6192 23.687 81.1569 24.2047 81.1569 24.8435C81.1569 25.4822 80.6192 26 79.9559 26C75.32 26 72.7614 25.9504 70.4337 23.7528C69.5442 22.9129 69.0607 22.3512 68.5 21.5C67.7988 20.4355 67 18.5 65.201 17.607C64.5377 17.607 64 17.0892 64 16.4504C64 15.8117 64.5377 15.2939 65.201 15.2939Z" fill="url(#paint0_linear_2421_24362)"/>
<path d="M83.799 17.607L72.7416 17.5078L67.01 17.606C69.0441 17.5739 71.652 16.847 73.2353 15.2939H83.799C84.4623 15.2939 85 15.8117 85 16.4504C85 17.0892 84.4623 17.607 83.799 17.607Z" fill="url(#paint1_linear_2421_24362)"/>
<path d="M81.5 10.9983C82.1633 10.9983 82.701 11.5161 82.701 12.1548C82.701 12.7935 82.1633 13.3113 81.5 13.3113C76.6653 13.3113 75.1748 13.4664 73.6594 14.8971C73.5217 15.0271 73.3676 15.1712 73.2353 15.2939C71.652 16.847 69.0441 17.5739 67.01 17.606L65.201 17.607C64.5377 17.607 64 17.0892 64 16.4504C64 15.8117 64.5377 15.2939 65.201 15.2939H67.8837C69.4681 15.2939 69.2854 15.1184 69.9144 14.8338C70.5621 14.5406 71.0883 14.0853 71.9779 13.2455C74.3055 11.0479 76.8641 10.9983 81.5 10.9983Z" fill="url(#paint2_linear_2421_24362)"/>
<defs>
<linearGradient id="paint0_linear_2421_24362" x1="83.4902" y1="12.1217" x2="64.0538" y2="17.1233" gradientUnits="userSpaceOnUse">
<stop stop-color="#319CFF"/>
<stop offset="1" stop-color="#BEE0FF"/>
</linearGradient>
<linearGradient id="paint1_linear_2421_24362" x1="85.7206" y1="16.4835" x2="66.1274" y2="16.4835" gradientUnits="userSpaceOnUse">
<stop stop-color="#CEE8FF"/>
<stop offset="1" stop-color="#319CFF"/>
</linearGradient>
<linearGradient id="paint2_linear_2421_24362" x1="83.4902" y1="12.1217" x2="64.0538" y2="17.1233" gradientUnits="userSpaceOnUse">
<stop stop-color="#319CFF"/>
<stop offset="1" stop-color="#BDDFFF"/>
</linearGradient>
</defs>
</svg>
