<svg width="198" height="105" viewBox="0 0 198 105" fill="none" xmlns="http://www.w3.org/2000/svg">
<g filter="url(#filter0_bd_2421_24657)">
<rect x="24" y="8" width="150" height="57" rx="16" fill="white"/>
<path d="M85.8723 28.306V30H80.2443V28.306H82.1763V21.838C82.1016 21.95 81.9756 22.076 81.7983 22.216C81.6303 22.3467 81.4343 22.4773 81.2103 22.608C80.9956 22.7293 80.7716 22.832 80.5383 22.916C80.3143 23 80.109 23.042 79.9223 23.042V21.306C80.1743 21.306 80.431 21.2407 80.6923 21.11C80.9536 20.9793 81.1963 20.83 81.4203 20.662C81.6443 20.494 81.8216 20.34 81.9523 20.2C82.0923 20.0507 82.167 19.9713 82.1763 19.962H84.0943V28.306H85.8723ZM92.7356 28.306V30H87.1076V28.306H89.0396V21.838C88.9649 21.95 88.8389 22.076 88.6616 22.216C88.4936 22.3467 88.2976 22.4773 88.0736 22.608C87.8589 22.7293 87.6349 22.832 87.4016 22.916C87.1776 23 86.9723 23.042 86.7856 23.042V21.306C87.0376 21.306 87.2943 21.2407 87.5556 21.11C87.8169 20.9793 88.0596 20.83 88.2836 20.662C88.5076 20.494 88.6849 20.34 88.8156 20.2C88.9556 20.0507 89.0303 19.9713 89.0396 19.962H90.9576V28.306H92.7356ZM97.2642 30V22.664H102.122V24.302H99.1402V30H97.2642ZM106.586 30.14C105.988 30.14 105.452 30.042 104.976 29.846C104.5 29.6407 104.094 29.3607 103.758 29.006C103.431 28.6513 103.179 28.2453 103.002 27.788C102.824 27.3307 102.736 26.85 102.736 26.346C102.736 25.8327 102.824 25.3473 103.002 24.89C103.179 24.4327 103.431 24.0267 103.758 23.672C104.094 23.3173 104.5 23.042 104.976 22.846C105.452 22.6407 105.988 22.538 106.586 22.538C107.183 22.538 107.715 22.6407 108.182 22.846C108.658 23.042 109.064 23.3173 109.4 23.672C109.736 24.0267 109.988 24.4327 110.156 24.89C110.333 25.3473 110.422 25.8327 110.422 26.346C110.422 26.85 110.333 27.3307 110.156 27.788C109.988 28.2453 109.736 28.6513 109.4 29.006C109.073 29.3607 108.672 29.6407 108.196 29.846C107.72 30.042 107.183 30.14 106.586 30.14ZM104.668 26.346C104.668 26.7753 104.752 27.158 104.92 27.494C105.088 27.8207 105.316 28.0773 105.606 28.264C105.895 28.4507 106.222 28.544 106.586 28.544C106.94 28.544 107.262 28.4507 107.552 28.264C107.841 28.068 108.07 27.8067 108.238 27.48C108.415 27.144 108.504 26.7613 108.504 26.332C108.504 25.912 108.415 25.534 108.238 25.198C108.07 24.862 107.841 24.6007 107.552 24.414C107.262 24.2273 106.94 24.134 106.586 24.134C106.222 24.134 105.895 24.232 105.606 24.428C105.316 24.6147 105.088 24.876 104.92 25.212C104.752 25.5387 104.668 25.9167 104.668 26.346ZM111.086 31.778V28.362H111.282C111.469 28.362 111.641 28.3107 111.8 28.208C111.968 28.1053 112.113 27.9327 112.234 27.69C112.365 27.438 112.467 27.0927 112.542 26.654C112.626 26.2153 112.682 25.6553 112.71 24.974L112.794 22.664H118.296V28.362H119.318V31.778H117.68V30H112.738V31.778H111.086ZM113.648 28.362H116.42V24.246H114.432L114.39 25.156C114.362 25.772 114.315 26.2947 114.25 26.724C114.194 27.144 114.115 27.4893 114.012 27.76C113.919 28.0213 113.797 28.222 113.648 28.362Z" fill="#FF4545"/>
<path d="M42.1254 44.5738C42.1254 44.1405 42.2021 43.7172 42.3554 43.3038C42.5154 42.8838 42.7454 42.5038 43.0454 42.1638C43.3454 41.8172 43.7121 41.5438 44.1454 41.3438C44.5788 41.1372 45.0721 41.0338 45.6254 41.0338C46.2788 41.0338 46.8421 41.1772 47.3154 41.4638C47.7954 41.7505 48.1521 42.1238 48.3854 42.5838L47.3254 43.3138C47.2054 43.0472 47.0488 42.8372 46.8554 42.6838C46.6621 42.5238 46.4554 42.4138 46.2354 42.3538C46.0154 42.2872 45.7988 42.2538 45.5854 42.2538C45.2388 42.2538 44.9354 42.3238 44.6754 42.4638C44.4221 42.6038 44.2088 42.7872 44.0354 43.0138C43.8621 43.2405 43.7321 43.4938 43.6454 43.7738C43.5654 44.0538 43.5254 44.3338 43.5254 44.6138C43.5254 44.9272 43.5754 45.2305 43.6754 45.5238C43.7754 45.8105 43.9154 46.0672 44.0954 46.2938C44.2821 46.5138 44.5021 46.6905 44.7554 46.8238C45.0154 46.9505 45.2988 47.0138 45.6054 47.0138C45.8254 47.0138 46.0488 46.9772 46.2754 46.9038C46.5021 46.8305 46.7121 46.7138 46.9054 46.5538C47.0988 46.3938 47.2488 46.1872 47.3554 45.9338L48.4854 46.5838C48.3454 46.9372 48.1154 47.2372 47.7954 47.4838C47.4821 47.7305 47.1288 47.9172 46.7354 48.0438C46.3421 48.1705 45.9521 48.2338 45.5654 48.2338C45.0588 48.2338 44.5954 48.1305 44.1754 47.9238C43.7554 47.7105 43.3921 47.4305 43.0854 47.0838C42.7854 46.7305 42.5488 46.3372 42.3754 45.9038C42.2088 45.4638 42.1254 45.0205 42.1254 44.5738ZM51.6814 48.2738C51.2547 48.2738 50.8714 48.2038 50.5314 48.0638C50.1914 47.9172 49.9014 47.7172 49.6614 47.4638C49.428 47.2105 49.248 46.9205 49.1214 46.5938C48.9947 46.2672 48.9314 45.9238 48.9314 45.5638C48.9314 45.1972 48.9947 44.8505 49.1214 44.5238C49.248 44.1972 49.428 43.9072 49.6614 43.6538C49.9014 43.4005 50.1914 43.2038 50.5314 43.0638C50.8714 42.9172 51.2547 42.8438 51.6814 42.8438C52.108 42.8438 52.488 42.9172 52.8214 43.0638C53.1614 43.2038 53.4514 43.4005 53.6914 43.6538C53.9314 43.9072 54.1114 44.1972 54.2314 44.5238C54.358 44.8505 54.4214 45.1972 54.4214 45.5638C54.4214 45.9238 54.358 46.2672 54.2314 46.5938C54.1114 46.9205 53.9314 47.2105 53.6914 47.4638C53.458 47.7172 53.1714 47.9172 52.8314 48.0638C52.4914 48.2038 52.108 48.2738 51.6814 48.2738ZM50.3114 45.5638C50.3114 45.8705 50.3714 46.1438 50.4914 46.3838C50.6114 46.6172 50.7747 46.8005 50.9814 46.9338C51.188 47.0672 51.4214 47.1338 51.6814 47.1338C51.9347 47.1338 52.1647 47.0672 52.3714 46.9338C52.578 46.7938 52.7414 46.6072 52.8614 46.3738C52.988 46.1338 53.0514 45.8605 53.0514 45.5538C53.0514 45.2538 52.988 44.9838 52.8614 44.7438C52.7414 44.5038 52.578 44.3172 52.3714 44.1838C52.1647 44.0505 51.9347 43.9838 51.6814 43.9838C51.4214 43.9838 51.188 44.0538 50.9814 44.1938C50.7747 44.3272 50.6114 44.5138 50.4914 44.7538C50.3714 44.9872 50.3114 45.2572 50.3114 45.5638ZM59.4058 49.4438V48.1738H55.3258V42.9338H56.6658V47.0038H58.5058V42.9338H59.8458V47.0038H60.5858V49.4438H59.4058ZM61.4586 48.1738V42.9438H62.7986V46.3838L65.1486 42.9338H66.3686V48.1738H65.0286V44.8138L62.7086 48.1738H61.4586ZM67.2314 46.6238C67.2314 46.2838 67.3248 45.9872 67.5114 45.7338C67.7048 45.4738 67.9714 45.2738 68.3114 45.1338C68.6514 44.9938 69.0414 44.9238 69.4814 44.9238C69.7014 44.9238 69.9248 44.9405 70.1514 44.9738C70.3781 45.0072 70.5748 45.0605 70.7414 45.1338V44.8538C70.7414 44.5205 70.6414 44.2638 70.4414 44.0838C70.2481 43.9038 69.9581 43.8138 69.5714 43.8138C69.2848 43.8138 69.0114 43.8638 68.7514 43.9638C68.4914 44.0638 68.2181 44.2105 67.9314 44.4038L67.5014 43.5238C67.8481 43.2972 68.2014 43.1272 68.5614 43.0138C68.9281 42.9005 69.3114 42.8438 69.7114 42.8438C70.4581 42.8438 71.0381 43.0305 71.4514 43.4038C71.8714 43.7772 72.0814 44.3105 72.0814 45.0038V46.6738C72.0814 46.8138 72.1048 46.9138 72.1514 46.9738C72.2048 47.0338 72.2881 47.0705 72.4014 47.0838V48.1738C72.2814 48.1938 72.1714 48.2105 72.0714 48.2238C71.9781 48.2372 71.8981 48.2438 71.8314 48.2438C71.5648 48.2438 71.3614 48.1838 71.2214 48.0638C71.0881 47.9438 71.0048 47.7972 70.9714 47.6238L70.9414 47.3538C70.7148 47.6472 70.4314 47.8738 70.0914 48.0338C69.7514 48.1938 69.4048 48.2738 69.0514 48.2738C68.7048 48.2738 68.3914 48.2038 68.1114 48.0638C67.8381 47.9172 67.6214 47.7205 67.4614 47.4738C67.3081 47.2205 67.2314 46.9372 67.2314 46.6238ZM70.4914 46.8938C70.5648 46.8138 70.6248 46.7338 70.6714 46.6538C70.7181 46.5738 70.7414 46.5005 70.7414 46.4338V45.9038C70.5814 45.8372 70.4081 45.7872 70.2214 45.7538C70.0348 45.7138 69.8581 45.6938 69.6914 45.6938C69.3448 45.6938 69.0581 45.7705 68.8314 45.9238C68.6114 46.0705 68.5014 46.2672 68.5014 46.5138C68.5014 46.6472 68.5381 46.7738 68.6114 46.8938C68.6848 47.0138 68.7914 47.1105 68.9314 47.1838C69.0714 47.2572 69.2381 47.2938 69.4314 47.2938C69.6314 47.2938 69.8281 47.2572 70.0214 47.1838C70.2148 47.1038 70.3714 47.0072 70.4914 46.8938ZM72.9536 48.2438V47.0538C73.1136 47.0472 73.257 47.0072 73.3836 46.9338C73.5103 46.8605 73.6203 46.7372 73.7136 46.5638C73.8136 46.3838 73.8903 46.1338 73.9436 45.8138C74.0036 45.4938 74.0436 45.0838 74.0636 44.5838L74.1336 42.9338H78.0636V48.1738H76.7236V44.1038H75.3136L75.2936 44.7138C75.267 45.4005 75.2003 45.9705 75.0936 46.4238C74.987 46.8772 74.837 47.2372 74.6436 47.5038C74.457 47.7638 74.2236 47.9505 73.9436 48.0638C73.6636 48.1772 73.3336 48.2372 72.9536 48.2438ZM79.2809 48.1738V42.9338H80.6209V44.5838H81.8109C82.4376 44.5838 82.9176 44.7438 83.2509 45.0638C83.5842 45.3838 83.7509 45.8072 83.7509 46.3338C83.7509 46.6872 83.6809 47.0038 83.5409 47.2838C83.4009 47.5638 83.1942 47.7838 82.9209 47.9438C82.6476 48.0972 82.3076 48.1738 81.9009 48.1738H79.2809ZM80.6209 47.1538H81.6909C81.8709 47.1538 82.0176 47.1172 82.1309 47.0438C82.2509 46.9705 82.3376 46.8738 82.3909 46.7538C82.4509 46.6338 82.4809 46.4972 82.4809 46.3438C82.4809 46.1972 82.4542 46.0672 82.4009 45.9538C82.3476 45.8338 82.2609 45.7405 82.1409 45.6738C82.0276 45.6005 81.8742 45.5638 81.6809 45.5638H80.6209V47.1538ZM84.5934 48.1738V42.9338H85.9334V44.9338H88.0534V42.9338H89.3934V48.1738H88.0534V46.0538H85.9334V48.1738H84.5934ZM93.0388 48.2738C92.6121 48.2738 92.2288 48.2038 91.8888 48.0638C91.5488 47.9172 91.2588 47.7172 91.0188 47.4638C90.7855 47.2105 90.6055 46.9205 90.4788 46.5938C90.3521 46.2672 90.2888 45.9238 90.2888 45.5638C90.2888 45.1972 90.3521 44.8505 90.4788 44.5238C90.6055 44.1972 90.7855 43.9072 91.0188 43.6538C91.2588 43.4005 91.5488 43.2038 91.8888 43.0638C92.2288 42.9172 92.6121 42.8438 93.0388 42.8438C93.4655 42.8438 93.8455 42.9172 94.1788 43.0638C94.5188 43.2038 94.8088 43.4005 95.0488 43.6538C95.2888 43.9072 95.4688 44.1972 95.5888 44.5238C95.7155 44.8505 95.7788 45.1972 95.7788 45.5638C95.7788 45.9238 95.7155 46.2672 95.5888 46.5938C95.4688 46.9205 95.2888 47.2105 95.0488 47.4638C94.8155 47.7172 94.5288 47.9172 94.1888 48.0638C93.8488 48.2038 93.4655 48.2738 93.0388 48.2738ZM91.6688 45.5638C91.6688 45.8705 91.7288 46.1438 91.8488 46.3838C91.9688 46.6172 92.1321 46.8005 92.3388 46.9338C92.5455 47.0672 92.7788 47.1338 93.0388 47.1338C93.2921 47.1338 93.5221 47.0672 93.7288 46.9338C93.9355 46.7938 94.0988 46.6072 94.2188 46.3738C94.3455 46.1338 94.4088 45.8605 94.4088 45.5538C94.4088 45.2538 94.3455 44.9838 94.2188 44.7438C94.0988 44.5038 93.9355 44.3172 93.7288 44.1838C93.5221 44.0505 93.2921 43.9838 93.0388 43.9838C92.7788 43.9838 92.5455 44.0538 92.3388 44.1938C92.1321 44.3272 91.9688 44.5138 91.8488 44.7538C91.7288 44.9872 91.6688 45.2572 91.6688 45.5638ZM99.1132 48.2738C98.6932 48.2738 98.3132 48.2038 97.9732 48.0638C97.6332 47.9172 97.3432 47.7205 97.1032 47.4738C96.8632 47.2205 96.6766 46.9338 96.5432 46.6138C96.4166 46.2872 96.3532 45.9438 96.3532 45.5838C96.3532 45.0838 96.4632 44.6272 96.6832 44.2138C96.9099 43.8005 97.2299 43.4705 97.6432 43.2238C98.0632 42.9705 98.5566 42.8438 99.1232 42.8438C99.6966 42.8438 100.187 42.9705 100.593 43.2238C101 43.4705 101.31 43.8005 101.523 44.2138C101.743 44.6205 101.853 45.0605 101.853 45.5338C101.853 45.6138 101.85 45.6972 101.843 45.7838C101.837 45.8638 101.83 45.9305 101.823 45.9838H97.7732C97.7999 46.2505 97.8766 46.4838 98.0032 46.6838C98.1366 46.8838 98.3032 47.0372 98.5032 47.1438C98.7099 47.2438 98.9299 47.2938 99.1632 47.2938C99.4299 47.2938 99.6799 47.2305 99.9132 47.1038C100.153 46.9705 100.317 46.7972 100.403 46.5838L101.553 46.9038C101.427 47.1705 101.243 47.4072 101.003 47.6138C100.77 47.8205 100.493 47.9838 100.173 48.1038C99.8532 48.2172 99.4999 48.2738 99.1132 48.2738ZM97.7432 45.1338H100.483C100.457 44.8672 100.38 44.6372 100.253 44.4438C100.133 44.2438 99.9732 44.0905 99.7732 43.9838C99.5732 43.8705 99.3499 43.8138 99.1032 43.8138C98.8632 43.8138 98.6432 43.8705 98.4432 43.9838C98.2499 44.0905 98.0899 44.2438 97.9632 44.4438C97.8432 44.6372 97.7699 44.8672 97.7432 45.1338ZM108.212 48.2738C107.805 48.2738 107.445 48.1838 107.132 48.0038C106.825 47.8172 106.585 47.5672 106.412 47.2538V50.3038H105.072V42.9338H106.242V43.8338C106.442 43.5272 106.695 43.2872 107.002 43.1138C107.309 42.9338 107.659 42.8438 108.052 42.8438C108.405 42.8438 108.729 42.9138 109.022 43.0538C109.322 43.1938 109.582 43.3905 109.802 43.6438C110.022 43.8905 110.192 44.1772 110.312 44.5038C110.439 44.8238 110.502 45.1705 110.502 45.5438C110.502 46.0505 110.402 46.5105 110.202 46.9238C110.009 47.3372 109.739 47.6672 109.392 47.9138C109.052 48.1538 108.659 48.2738 108.212 48.2738ZM107.762 47.1338C107.969 47.1338 108.155 47.0905 108.322 47.0038C108.489 46.9172 108.632 46.8005 108.752 46.6538C108.879 46.5005 108.972 46.3305 109.032 46.1438C109.099 45.9505 109.132 45.7505 109.132 45.5438C109.132 45.3238 109.095 45.1205 109.022 44.9338C108.955 44.7472 108.855 44.5838 108.722 44.4438C108.589 44.2972 108.432 44.1838 108.252 44.1038C108.079 44.0238 107.889 43.9838 107.682 43.9838C107.555 43.9838 107.425 44.0072 107.292 44.0538C107.165 44.0938 107.042 44.1538 106.922 44.2338C106.802 44.3138 106.695 44.4072 106.602 44.5138C106.515 44.6205 106.452 44.7372 106.412 44.8638V46.0938C106.492 46.2872 106.599 46.4638 106.732 46.6238C106.872 46.7838 107.032 46.9105 107.212 47.0038C107.392 47.0905 107.575 47.1338 107.762 47.1338ZM113.83 48.2738C113.403 48.2738 113.02 48.2038 112.68 48.0638C112.34 47.9172 112.05 47.7172 111.81 47.4638C111.576 47.2105 111.396 46.9205 111.27 46.5938C111.143 46.2672 111.08 45.9238 111.08 45.5638C111.08 45.1972 111.143 44.8505 111.27 44.5238C111.396 44.1972 111.576 43.9072 111.81 43.6538C112.05 43.4005 112.34 43.2038 112.68 43.0638C113.02 42.9172 113.403 42.8438 113.83 42.8438C114.256 42.8438 114.636 42.9172 114.97 43.0638C115.31 43.2038 115.6 43.4005 115.84 43.6538C116.08 43.9072 116.26 44.1972 116.38 44.5238C116.506 44.8505 116.57 45.1972 116.57 45.5638C116.57 45.9238 116.506 46.2672 116.38 46.5938C116.26 46.9205 116.08 47.2105 115.84 47.4638C115.606 47.7172 115.32 47.9172 114.98 48.0638C114.64 48.2038 114.256 48.2738 113.83 48.2738ZM112.46 45.5638C112.46 45.8705 112.52 46.1438 112.64 46.3838C112.76 46.6172 112.923 46.8005 113.13 46.9338C113.336 47.0672 113.57 47.1338 113.83 47.1338C114.083 47.1338 114.313 47.0672 114.52 46.9338C114.726 46.7938 114.89 46.6072 115.01 46.3738C115.136 46.1338 115.2 45.8605 115.2 45.5538C115.2 45.2538 115.136 44.9838 115.01 44.7438C114.89 44.5038 114.726 44.3172 114.52 44.1838C114.313 44.0505 114.083 43.9838 113.83 43.9838C113.57 43.9838 113.336 44.0538 113.13 44.1938C112.923 44.3272 112.76 44.5138 112.64 44.7538C112.52 44.9872 112.46 45.2572 112.46 45.5638ZM117.084 48.1738L118.924 45.4638L117.214 42.9338H118.704L120.044 44.9238H120.454V42.9338H121.834V44.9238H122.274L123.584 42.9338H125.084L123.374 45.4638L125.224 48.1738H123.694L122.274 46.0838H121.834V48.1738H120.464V46.0838H120.044L118.604 48.1738H117.084ZM125.609 49.4438V47.0038H125.749C125.882 47.0038 126.005 46.9672 126.119 46.8938C126.239 46.8205 126.342 46.6972 126.429 46.5238C126.522 46.3438 126.595 46.0972 126.649 45.7838C126.709 45.4705 126.749 45.0705 126.769 44.5838L126.829 42.9338H130.759V47.0038H131.489V49.4438H130.319V48.1738H126.789V49.4438H125.609ZM127.439 47.0038H129.419V44.0638H127.999L127.969 44.7138C127.949 45.1538 127.915 45.5272 127.869 45.8338C127.829 46.1338 127.772 46.3805 127.699 46.5738C127.632 46.7605 127.545 46.9038 127.439 47.0038ZM134.787 48.2738C134.367 48.2738 133.987 48.2038 133.647 48.0638C133.307 47.9172 133.017 47.7205 132.777 47.4738C132.537 47.2205 132.35 46.9338 132.217 46.6138C132.09 46.2872 132.027 45.9438 132.027 45.5838C132.027 45.0838 132.137 44.6272 132.357 44.2138C132.584 43.8005 132.904 43.4705 133.317 43.2238C133.737 42.9705 134.23 42.8438 134.797 42.8438C135.37 42.8438 135.86 42.9705 136.267 43.2238C136.674 43.4705 136.984 43.8005 137.197 44.2138C137.417 44.6205 137.527 45.0605 137.527 45.5338C137.527 45.6138 137.524 45.6972 137.517 45.7838C137.51 45.8638 137.504 45.9305 137.497 45.9838H133.447C133.474 46.2505 133.55 46.4838 133.677 46.6838C133.81 46.8838 133.977 47.0372 134.177 47.1438C134.384 47.2438 134.604 47.2938 134.837 47.2938C135.104 47.2938 135.354 47.2305 135.587 47.1038C135.827 46.9705 135.99 46.7972 136.077 46.5838L137.227 46.9038C137.1 47.1705 136.917 47.4072 136.677 47.6138C136.444 47.8205 136.167 47.9838 135.847 48.1038C135.527 48.2172 135.174 48.2738 134.787 48.2738ZM133.417 45.1338H136.157C136.13 44.8672 136.054 44.6372 135.927 44.4438C135.807 44.2438 135.647 44.0905 135.447 43.9838C135.247 43.8705 135.024 43.8138 134.777 43.8138C134.537 43.8138 134.317 43.8705 134.117 43.9838C133.924 44.0905 133.764 44.2438 133.637 44.4438C133.517 44.6372 133.444 44.8672 133.417 45.1338ZM138.343 48.1738V42.9338H139.683V44.9338H141.803V42.9338H143.143V48.1738H141.803V46.0538H139.683V48.1738H138.343ZM144.369 48.1738V42.9438H145.709V46.3838L148.059 42.9338H149.279V48.1738H147.939V44.8138L145.619 48.1738H144.369ZM152.932 48.2738C152.512 48.2738 152.132 48.2038 151.792 48.0638C151.452 47.9172 151.162 47.7205 150.922 47.4738C150.682 47.2205 150.495 46.9338 150.362 46.6138C150.235 46.2872 150.172 45.9438 150.172 45.5838C150.172 45.0838 150.282 44.6272 150.502 44.2138C150.728 43.8005 151.048 43.4705 151.462 43.2238C151.882 42.9705 152.375 42.8438 152.942 42.8438C153.515 42.8438 154.005 42.9705 154.412 43.2238C154.818 43.4705 155.128 43.8005 155.342 44.2138C155.562 44.6205 155.672 45.0605 155.672 45.5338C155.672 45.6138 155.668 45.6972 155.662 45.7838C155.655 45.8638 155.648 45.9305 155.642 45.9838H151.592C151.618 46.2505 151.695 46.4838 151.822 46.6838C151.955 46.8838 152.122 47.0372 152.322 47.1438C152.528 47.2438 152.748 47.2938 152.982 47.2938C153.248 47.2938 153.498 47.2305 153.732 47.1038C153.972 46.9705 154.135 46.7972 154.222 46.5838L155.372 46.9038C155.245 47.1705 155.062 47.4072 154.822 47.6138C154.588 47.8205 154.312 47.9838 153.992 48.1038C153.672 48.2172 153.318 48.2738 152.932 48.2738ZM151.562 45.1338H154.302C154.275 44.8672 154.198 44.6372 154.072 44.4438C153.952 44.2438 153.792 44.0905 153.592 43.9838C153.392 43.8705 153.168 43.8138 152.922 43.8138C152.682 43.8138 152.462 43.8705 152.262 43.9838C152.068 44.0905 151.908 44.2438 151.782 44.4438C151.662 44.6372 151.588 44.8672 151.562 45.1338Z" fill="#9A9AA0"/>
</g>
<defs>
<filter id="filter0_bd_2421_24657" x="0" y="-12" width="198" height="117" filterUnits="userSpaceOnUse" color-interpolation-filters="sRGB">
<feFlood flood-opacity="0" result="BackgroundImageFix"/>
<feGaussianBlur in="BackgroundImageFix" stdDeviation="10"/>
<feComposite in2="SourceAlpha" operator="in" result="effect1_backgroundBlur_2421_24657"/>
<feColorMatrix in="SourceAlpha" type="matrix" values="0 0 0 0 0 0 0 0 0 0 0 0 0 0 0 0 0 0 127 0" result="hardAlpha"/>
<feOffset dy="16"/>
<feGaussianBlur stdDeviation="12"/>
<feComposite in2="hardAlpha" operator="out"/>
<feColorMatrix type="matrix" values="0 0 0 0 0 0 0 0 0 0 0 0 0 0 0 0 0 0 0.08 0"/>
<feBlend mode="normal" in2="effect1_backgroundBlur_2421_24657" result="effect2_dropShadow_2421_24657"/>
<feBlend mode="normal" in="SourceGraphic" in2="effect2_dropShadow_2421_24657" result="shape"/>
</filter>
</defs>
</svg>
