<svg width="198" height="101" viewBox="0 0 198 101" fill="none" xmlns="http://www.w3.org/2000/svg">
<g filter="url(#filter0_bd_2426_25919)">
<rect x="24" y="8" width="150" height="53" rx="16" fill="white"/>
<path d="M81.3021 30.098C80.7701 30.098 80.2848 30.0327 79.8461 29.902C79.4168 29.762 79.0388 29.566 78.7121 29.314C78.3948 29.0527 78.1428 28.7447 77.9561 28.39L78.9641 27.116C79.0575 27.3213 79.2068 27.522 79.4121 27.718C79.6175 27.914 79.8741 28.0727 80.1821 28.194C80.4901 28.3153 80.8401 28.376 81.2321 28.376C81.6148 28.376 81.9461 28.32 82.2261 28.208C82.5061 28.096 82.7208 27.942 82.8701 27.746C83.0288 27.5407 83.1081 27.2933 83.1081 27.004C83.1081 26.696 83.0101 26.4347 82.8141 26.22C82.6275 26.0053 82.3475 25.842 81.9741 25.73C81.6008 25.618 81.1435 25.562 80.6021 25.562H80.1401V24.162H80.6301C81.3021 24.162 81.8388 24.0453 82.2401 23.812C82.6508 23.5787 82.8561 23.2473 82.8561 22.818C82.8561 22.5567 82.7861 22.3327 82.6461 22.146C82.5061 21.95 82.3195 21.8053 82.0861 21.712C81.8528 21.6093 81.5961 21.558 81.3161 21.558C80.8495 21.558 80.4341 21.67 80.0701 21.894C79.7155 22.1087 79.4448 22.3887 79.2581 22.734L78.0401 21.376C78.2455 21.0773 78.5255 20.8253 78.8801 20.62C79.2348 20.4053 79.6315 20.2373 80.0701 20.116C80.5181 19.9947 80.9801 19.934 81.4561 19.934C82.1188 19.934 82.7068 20.0507 83.2201 20.284C83.7335 20.508 84.1348 20.816 84.4241 21.208C84.7135 21.6 84.8581 22.048 84.8581 22.552C84.8581 22.9253 84.7788 23.266 84.6201 23.574C84.4708 23.882 84.2561 24.1387 83.9761 24.344C83.6961 24.5493 83.3648 24.6987 82.9821 24.792C83.3928 24.8573 83.7521 25.0113 84.0601 25.254C84.3775 25.4873 84.6201 25.786 84.7881 26.15C84.9655 26.5047 85.0541 26.892 85.0541 27.312C85.0541 27.9 84.8861 28.3993 84.5501 28.81C84.2235 29.2207 83.7755 29.538 83.2061 29.762C82.6461 29.986 82.0115 30.098 81.3021 30.098ZM89.4916 30.098C88.9596 30.098 88.4743 30.0327 88.0356 29.902C87.6063 29.762 87.2283 29.566 86.9016 29.314C86.5843 29.0527 86.3323 28.7447 86.1456 28.39L87.1536 27.116C87.2469 27.3213 87.3963 27.522 87.6016 27.718C87.8069 27.914 88.0636 28.0727 88.3716 28.194C88.6796 28.3153 89.0296 28.376 89.4216 28.376C89.8043 28.376 90.1356 28.32 90.4156 28.208C90.6956 28.096 90.9103 27.942 91.0596 27.746C91.2183 27.5407 91.2976 27.2933 91.2976 27.004C91.2976 26.696 91.1996 26.4347 91.0036 26.22C90.8169 26.0053 90.5369 25.842 90.1636 25.73C89.7903 25.618 89.3329 25.562 88.7916 25.562H88.3296V24.162H88.8196C89.4916 24.162 90.0283 24.0453 90.4296 23.812C90.8403 23.5787 91.0456 23.2473 91.0456 22.818C91.0456 22.5567 90.9756 22.3327 90.8356 22.146C90.6956 21.95 90.5089 21.8053 90.2756 21.712C90.0423 21.6093 89.7856 21.558 89.5056 21.558C89.0389 21.558 88.6236 21.67 88.2596 21.894C87.9049 22.1087 87.6343 22.3887 87.4476 22.734L86.2296 21.376C86.4349 21.0773 86.7149 20.8253 87.0696 20.62C87.4243 20.4053 87.8209 20.2373 88.2596 20.116C88.7076 19.9947 89.1696 19.934 89.6456 19.934C90.3083 19.934 90.8963 20.0507 91.4096 20.284C91.9229 20.508 92.3243 20.816 92.6136 21.208C92.9029 21.6 93.0476 22.048 93.0476 22.552C93.0476 22.9253 92.9683 23.266 92.8096 23.574C92.6603 23.882 92.4456 24.1387 92.1656 24.344C91.8856 24.5493 91.5543 24.6987 91.1716 24.792C91.5823 24.8573 91.9416 25.0113 92.2496 25.254C92.5669 25.4873 92.8096 25.786 92.9776 26.15C93.1549 26.5047 93.2436 26.892 93.2436 27.312C93.2436 27.9 93.0756 28.3993 92.7396 28.81C92.4129 29.2207 91.9649 29.538 91.3956 29.762C90.8356 29.986 90.2009 30.098 89.4916 30.098ZM98.0903 30V22.664H102.948V24.302H99.9663V30H98.0903ZM107.412 30.14C106.815 30.14 106.278 30.042 105.802 29.846C105.326 29.6407 104.92 29.3607 104.584 29.006C104.257 28.6513 104.005 28.2453 103.828 27.788C103.651 27.3307 103.562 26.85 103.562 26.346C103.562 25.8327 103.651 25.3473 103.828 24.89C104.005 24.4327 104.257 24.0267 104.584 23.672C104.92 23.3173 105.326 23.042 105.802 22.846C106.278 22.6407 106.815 22.538 107.412 22.538C108.009 22.538 108.541 22.6407 109.008 22.846C109.484 23.042 109.89 23.3173 110.226 23.672C110.562 24.0267 110.814 24.4327 110.982 24.89C111.159 25.3473 111.248 25.8327 111.248 26.346C111.248 26.85 111.159 27.3307 110.982 27.788C110.814 28.2453 110.562 28.6513 110.226 29.006C109.899 29.3607 109.498 29.6407 109.022 29.846C108.546 30.042 108.009 30.14 107.412 30.14ZM105.494 26.346C105.494 26.7753 105.578 27.158 105.746 27.494C105.914 27.8207 106.143 28.0773 106.432 28.264C106.721 28.4507 107.048 28.544 107.412 28.544C107.767 28.544 108.089 28.4507 108.378 28.264C108.667 28.068 108.896 27.8067 109.064 27.48C109.241 27.144 109.33 26.7613 109.33 26.332C109.33 25.912 109.241 25.534 109.064 25.198C108.896 24.862 108.667 24.6007 108.378 24.414C108.089 24.2273 107.767 24.134 107.412 24.134C107.048 24.134 106.721 24.232 106.432 24.428C106.143 24.6147 105.914 24.876 105.746 25.212C105.578 25.5387 105.494 25.9167 105.494 26.346ZM111.912 31.778V28.362H112.108C112.295 28.362 112.467 28.3107 112.626 28.208C112.794 28.1053 112.939 27.9327 113.06 27.69C113.191 27.438 113.293 27.0927 113.368 26.654C113.452 26.2153 113.508 25.6553 113.536 24.974L113.62 22.664H119.122V28.362H120.144V31.778H118.506V30H113.564V31.778H111.912ZM114.474 28.362H117.246V24.246H115.258L115.216 25.156C115.188 25.772 115.141 26.2947 115.076 26.724C115.02 27.144 114.941 27.4893 114.838 27.76C114.745 28.0213 114.623 28.222 114.474 28.362Z" fill="#FF4545"/>
<path d="M50.7571 48.5713V41.4713H53.7671C54.0938 41.4713 54.3938 41.538 54.6671 41.6713C54.9404 41.8046 55.1771 41.9846 55.3771 42.2113C55.5838 42.438 55.7438 42.6913 55.8571 42.9713C55.9704 43.2513 56.0271 43.538 56.0271 43.8313C56.0271 44.2313 55.9338 44.6113 55.7471 44.9713C55.5604 45.3313 55.3038 45.6246 54.9771 45.8513C54.6504 46.078 54.2638 46.1913 53.8171 46.1913H52.1371V48.5713H50.7571ZM52.1371 44.9813H53.7371C53.9038 44.9813 54.0538 44.9346 54.1871 44.8413C54.3204 44.748 54.4271 44.6146 54.5071 44.4413C54.5871 44.2613 54.6271 44.058 54.6271 43.8313C54.6271 43.5846 54.5804 43.3746 54.4871 43.2013C54.4004 43.028 54.2838 42.898 54.1371 42.8113C53.9971 42.7246 53.8438 42.6813 53.6771 42.6813H52.1371V44.9813ZM59.2776 48.6713C58.8509 48.6713 58.4676 48.6013 58.1276 48.4613C57.7876 48.3146 57.4976 48.1146 57.2576 47.8613C57.0242 47.608 56.8442 47.318 56.7176 46.9913C56.5909 46.6646 56.5276 46.3213 56.5276 45.9613C56.5276 45.5946 56.5909 45.248 56.7176 44.9213C56.8442 44.5946 57.0242 44.3046 57.2576 44.0513C57.4976 43.798 57.7876 43.6013 58.1276 43.4613C58.4676 43.3146 58.8509 43.2413 59.2776 43.2413C59.7042 43.2413 60.0842 43.3146 60.4176 43.4613C60.7576 43.6013 61.0476 43.798 61.2876 44.0513C61.5276 44.3046 61.7076 44.5946 61.8276 44.9213C61.9542 45.248 62.0176 45.5946 62.0176 45.9613C62.0176 46.3213 61.9542 46.6646 61.8276 46.9913C61.7076 47.318 61.5276 47.608 61.2876 47.8613C61.0542 48.1146 60.7676 48.3146 60.4276 48.4613C60.0876 48.6013 59.7042 48.6713 59.2776 48.6713ZM57.9076 45.9613C57.9076 46.268 57.9676 46.5413 58.0876 46.7813C58.2076 47.0146 58.3709 47.198 58.5776 47.3313C58.7842 47.4646 59.0176 47.5313 59.2776 47.5313C59.5309 47.5313 59.7609 47.4646 59.9676 47.3313C60.1742 47.1913 60.3376 47.0046 60.4576 46.7713C60.5842 46.5313 60.6476 46.258 60.6476 45.9513C60.6476 45.6513 60.5842 45.3813 60.4576 45.1413C60.3376 44.9013 60.1742 44.7146 59.9676 44.5813C59.7609 44.448 59.5309 44.3813 59.2776 44.3813C59.0176 44.3813 58.7842 44.4513 58.5776 44.5913C58.3709 44.7246 58.2076 44.9113 58.0876 45.1513C57.9676 45.3846 57.9076 45.6546 57.9076 45.9613ZM62.532 48.5713L64.372 45.8613L62.662 43.3313H64.152L65.492 45.3213H65.902V43.3313H67.282V45.3213H67.722L69.032 43.3313H70.532L68.822 45.8613L70.672 48.5713H69.142L67.722 46.4813H67.282V48.5713H65.912V46.4813H65.492L64.052 48.5713H62.532ZM71.0565 49.8413V47.4013H71.1965C71.3298 47.4013 71.4531 47.3646 71.5665 47.2913C71.6865 47.218 71.7898 47.0946 71.8765 46.9213C71.9698 46.7413 72.0431 46.4946 72.0965 46.1813C72.1565 45.868 72.1965 45.468 72.2165 44.9813L72.2765 43.3313H76.2065V47.4013H76.9365V49.8413H75.7665V48.5713H72.2365V49.8413H71.0565ZM72.8865 47.4013H74.8665V44.4613H73.4465L73.4165 45.1113C73.3965 45.5513 73.3631 45.9246 73.3165 46.2313C73.2765 46.5313 73.2198 46.778 73.1465 46.9713C73.0798 47.158 72.9931 47.3013 72.8865 47.4013ZM80.2348 48.6713C79.8148 48.6713 79.4348 48.6013 79.0948 48.4613C78.7548 48.3146 78.4648 48.118 78.2248 47.8713C77.9848 47.618 77.7982 47.3313 77.6648 47.0113C77.5382 46.6846 77.4748 46.3413 77.4748 45.9813C77.4748 45.4813 77.5848 45.0246 77.8048 44.6113C78.0315 44.198 78.3515 43.868 78.7648 43.6213C79.1848 43.368 79.6782 43.2413 80.2448 43.2413C80.8182 43.2413 81.3082 43.368 81.7148 43.6213C82.1215 43.868 82.4315 44.198 82.6448 44.6113C82.8648 45.018 82.9748 45.458 82.9748 45.9313C82.9748 46.0113 82.9715 46.0946 82.9648 46.1813C82.9582 46.2613 82.9515 46.328 82.9448 46.3813H78.8948C78.9215 46.648 78.9982 46.8813 79.1248 47.0813C79.2582 47.2813 79.4248 47.4346 79.6248 47.5413C79.8315 47.6413 80.0515 47.6913 80.2848 47.6913C80.5515 47.6913 80.8015 47.628 81.0348 47.5013C81.2748 47.368 81.4382 47.1946 81.5248 46.9813L82.6748 47.3013C82.5482 47.568 82.3648 47.8046 82.1248 48.0113C81.8915 48.218 81.6148 48.3813 81.2948 48.5013C80.9748 48.6146 80.6215 48.6713 80.2348 48.6713ZM78.8648 45.5313H81.6048C81.5782 45.2646 81.5015 45.0346 81.3748 44.8413C81.2548 44.6413 81.0948 44.488 80.8948 44.3813C80.6948 44.268 80.4715 44.2113 80.2248 44.2113C79.9848 44.2113 79.7648 44.268 79.5648 44.3813C79.3715 44.488 79.2115 44.6413 79.0848 44.8413C78.9648 45.0346 78.8915 45.2646 78.8648 45.5313ZM83.7912 48.5713V43.3313H85.1312V45.3313H87.2512V43.3313H88.5912V48.5713H87.2512V46.4513H85.1312V48.5713H83.7912ZM89.8165 48.5713V43.3413H91.1565V46.7813L93.5065 43.3313H94.7265V48.5713H93.3865V45.2113L91.0665 48.5713H89.8165ZM98.3794 48.6713C97.9594 48.6713 97.5794 48.6013 97.2394 48.4613C96.8994 48.3146 96.6094 48.118 96.3694 47.8713C96.1294 47.618 95.9427 47.3313 95.8094 47.0113C95.6827 46.6846 95.6194 46.3413 95.6194 45.9813C95.6194 45.4813 95.7294 45.0246 95.9494 44.6113C96.176 44.198 96.496 43.868 96.9094 43.6213C97.3294 43.368 97.8227 43.2413 98.3894 43.2413C98.9627 43.2413 99.4527 43.368 99.8594 43.6213C100.266 43.868 100.576 44.198 100.789 44.6113C101.009 45.018 101.119 45.458 101.119 45.9313C101.119 46.0113 101.116 46.0946 101.109 46.1813C101.103 46.2613 101.096 46.328 101.089 46.3813H97.0394C97.066 46.648 97.1427 46.8813 97.2694 47.0813C97.4027 47.2813 97.5694 47.4346 97.7694 47.5413C97.976 47.6413 98.196 47.6913 98.4294 47.6913C98.696 47.6913 98.946 47.628 99.1794 47.5013C99.4194 47.368 99.5827 47.1946 99.6694 46.9813L100.819 47.3013C100.693 47.568 100.509 47.8046 100.269 48.0113C100.036 48.218 99.7594 48.3813 99.4394 48.5013C99.1194 48.6146 98.766 48.6713 98.3794 48.6713ZM97.0094 45.5313H99.7494C99.7227 45.2646 99.646 45.0346 99.5194 44.8413C99.3994 44.6413 99.2394 44.488 99.0394 44.3813C98.8394 44.268 98.616 44.2113 98.3694 44.2113C98.1294 44.2113 97.9094 44.268 97.7094 44.3813C97.516 44.488 97.356 44.6413 97.2294 44.8413C97.1094 45.0346 97.036 45.2646 97.0094 45.5313ZM104.338 48.5713V43.3313H105.738L107.378 46.3613L109.028 43.3313H110.408V48.5713H109.138V45.1813L107.798 47.6413H106.958L105.608 45.1813V48.5713H104.338ZM111.283 47.0213C111.283 46.6813 111.376 46.3846 111.563 46.1313C111.756 45.8713 112.023 45.6713 112.363 45.5313C112.703 45.3913 113.093 45.3213 113.533 45.3213C113.753 45.3213 113.976 45.338 114.203 45.3713C114.429 45.4046 114.626 45.458 114.793 45.5313V45.2513C114.793 44.918 114.693 44.6613 114.493 44.4813C114.299 44.3013 114.009 44.2113 113.623 44.2113C113.336 44.2113 113.063 44.2613 112.803 44.3613C112.543 44.4613 112.269 44.608 111.983 44.8013L111.553 43.9213C111.899 43.6946 112.253 43.5246 112.613 43.4113C112.979 43.298 113.363 43.2413 113.763 43.2413C114.509 43.2413 115.089 43.428 115.503 43.8013C115.923 44.1746 116.133 44.708 116.133 45.4013V47.0713C116.133 47.2113 116.156 47.3113 116.203 47.3713C116.256 47.4313 116.339 47.468 116.453 47.4813V48.5713C116.333 48.5913 116.223 48.608 116.123 48.6213C116.029 48.6346 115.949 48.6413 115.883 48.6413C115.616 48.6413 115.413 48.5813 115.273 48.4613C115.139 48.3413 115.056 48.1946 115.023 48.0213L114.993 47.7513C114.766 48.0446 114.483 48.2713 114.143 48.4313C113.803 48.5913 113.456 48.6713 113.103 48.6713C112.756 48.6713 112.443 48.6013 112.163 48.4613C111.889 48.3146 111.673 48.118 111.513 47.8713C111.359 47.618 111.283 47.3346 111.283 47.0213ZM114.543 47.2913C114.616 47.2113 114.676 47.1313 114.723 47.0513C114.769 46.9713 114.793 46.898 114.793 46.8313V46.3013C114.633 46.2346 114.459 46.1846 114.273 46.1513C114.086 46.1113 113.909 46.0913 113.743 46.0913C113.396 46.0913 113.109 46.168 112.883 46.3213C112.663 46.468 112.553 46.6646 112.553 46.9113C112.553 47.0446 112.589 47.1713 112.663 47.2913C112.736 47.4113 112.843 47.508 112.983 47.5813C113.123 47.6546 113.289 47.6913 113.483 47.6913C113.683 47.6913 113.879 47.6546 114.073 47.5813C114.266 47.5013 114.423 47.4046 114.543 47.2913ZM119.825 48.6713C119.398 48.6713 119.015 48.6013 118.675 48.4613C118.335 48.3146 118.045 48.1146 117.805 47.8613C117.565 47.6013 117.378 47.308 117.245 46.9813C117.118 46.6546 117.055 46.3113 117.055 45.9513C117.055 45.458 117.165 45.008 117.385 44.6013C117.612 44.188 117.932 43.858 118.345 43.6113C118.758 43.3646 119.248 43.2413 119.815 43.2413C120.382 43.2413 120.868 43.3646 121.275 43.6113C121.682 43.858 121.985 44.1813 122.185 44.5813L120.875 44.9813C120.762 44.788 120.612 44.6413 120.425 44.5413C120.238 44.4346 120.032 44.3813 119.805 44.3813C119.552 44.3813 119.318 44.448 119.105 44.5813C118.898 44.708 118.735 44.8913 118.615 45.1313C118.495 45.3646 118.435 45.638 118.435 45.9513C118.435 46.258 118.495 46.5313 118.615 46.7713C118.742 47.0046 118.908 47.1913 119.115 47.3313C119.322 47.4646 119.552 47.5313 119.805 47.5313C119.965 47.5313 120.115 47.5046 120.255 47.4513C120.402 47.398 120.532 47.3246 120.645 47.2313C120.758 47.138 120.842 47.0313 120.895 46.9113L122.205 47.3113C122.085 47.5713 121.908 47.8046 121.675 48.0113C121.448 48.218 121.178 48.3813 120.865 48.5013C120.558 48.6146 120.212 48.6713 119.825 48.6713ZM124.239 48.5713V44.5013H122.579V43.3313H127.249V44.5013H125.579V48.5713H124.239ZM130.43 48.6713C130.01 48.6713 129.63 48.6013 129.29 48.4613C128.95 48.3146 128.66 48.118 128.42 47.8713C128.18 47.618 127.993 47.3313 127.86 47.0113C127.733 46.6846 127.67 46.3413 127.67 45.9813C127.67 45.4813 127.78 45.0246 128 44.6113C128.227 44.198 128.547 43.868 128.96 43.6213C129.38 43.368 129.873 43.2413 130.44 43.2413C131.013 43.2413 131.503 43.368 131.91 43.6213C132.317 43.868 132.627 44.198 132.84 44.6113C133.06 45.018 133.17 45.458 133.17 45.9313C133.17 46.0113 133.167 46.0946 133.16 46.1813C133.153 46.2613 133.147 46.328 133.14 46.3813H129.09C129.117 46.648 129.193 46.8813 129.32 47.0813C129.453 47.2813 129.62 47.4346 129.82 47.5413C130.027 47.6413 130.247 47.6913 130.48 47.6913C130.747 47.6913 130.997 47.628 131.23 47.5013C131.47 47.368 131.633 47.1946 131.72 46.9813L132.87 47.3013C132.743 47.568 132.56 47.8046 132.32 48.0113C132.087 48.218 131.81 48.3813 131.49 48.5013C131.17 48.6146 130.817 48.6713 130.43 48.6713ZM129.06 45.5313H131.8C131.773 45.2646 131.697 45.0346 131.57 44.8413C131.45 44.6413 131.29 44.488 131.09 44.3813C130.89 44.268 130.667 44.2113 130.42 44.2113C130.18 44.2113 129.96 44.268 129.76 44.3813C129.567 44.488 129.407 44.6413 129.28 44.8413C129.16 45.0346 129.087 45.2646 129.06 45.5313ZM137.126 48.6713C136.72 48.6713 136.36 48.5813 136.046 48.4013C135.74 48.2146 135.5 47.9646 135.326 47.6513V50.7013H133.986V43.3313H135.156V44.2313C135.356 43.9246 135.61 43.6846 135.916 43.5113C136.223 43.3313 136.573 43.2413 136.966 43.2413C137.32 43.2413 137.643 43.3113 137.936 43.4513C138.236 43.5913 138.496 43.788 138.716 44.0413C138.936 44.288 139.106 44.5746 139.226 44.9013C139.353 45.2213 139.416 45.568 139.416 45.9413C139.416 46.448 139.316 46.908 139.116 47.3213C138.923 47.7346 138.653 48.0646 138.306 48.3113C137.966 48.5513 137.573 48.6713 137.126 48.6713ZM136.676 47.5313C136.883 47.5313 137.07 47.488 137.236 47.4013C137.403 47.3146 137.546 47.198 137.666 47.0513C137.793 46.898 137.886 46.728 137.946 46.5413C138.013 46.348 138.046 46.148 138.046 45.9413C138.046 45.7213 138.01 45.518 137.936 45.3313C137.87 45.1446 137.77 44.9813 137.636 44.8413C137.503 44.6946 137.346 44.5813 137.166 44.5013C136.993 44.4213 136.803 44.3813 136.596 44.3813C136.47 44.3813 136.34 44.4046 136.206 44.4513C136.08 44.4913 135.956 44.5513 135.836 44.6313C135.716 44.7113 135.61 44.8046 135.516 44.9113C135.43 45.018 135.366 45.1346 135.326 45.2613V46.4913C135.406 46.6846 135.513 46.8613 135.646 47.0213C135.786 47.1813 135.946 47.308 136.126 47.4013C136.306 47.488 136.49 47.5313 136.676 47.5313ZM139.964 47.0213C139.964 46.6813 140.058 46.3846 140.244 46.1313C140.438 45.8713 140.704 45.6713 141.044 45.5313C141.384 45.3913 141.774 45.3213 142.214 45.3213C142.434 45.3213 142.658 45.338 142.884 45.3713C143.111 45.4046 143.308 45.458 143.474 45.5313V45.2513C143.474 44.918 143.374 44.6613 143.174 44.4813C142.981 44.3013 142.691 44.2113 142.304 44.2113C142.018 44.2113 141.744 44.2613 141.484 44.3613C141.224 44.4613 140.951 44.608 140.664 44.8013L140.234 43.9213C140.581 43.6946 140.934 43.5246 141.294 43.4113C141.661 43.298 142.044 43.2413 142.444 43.2413C143.191 43.2413 143.771 43.428 144.184 43.8013C144.604 44.1746 144.814 44.708 144.814 45.4013V47.0713C144.814 47.2113 144.838 47.3113 144.884 47.3713C144.938 47.4313 145.021 47.468 145.134 47.4813V48.5713C145.014 48.5913 144.904 48.608 144.804 48.6213C144.711 48.6346 144.631 48.6413 144.564 48.6413C144.298 48.6413 144.094 48.5813 143.954 48.4613C143.821 48.3413 143.738 48.1946 143.704 48.0213L143.674 47.7513C143.448 48.0446 143.164 48.2713 142.824 48.4313C142.484 48.5913 142.138 48.6713 141.784 48.6713C141.438 48.6713 141.124 48.6013 140.844 48.4613C140.571 48.3146 140.354 48.118 140.194 47.8713C140.041 47.618 139.964 47.3346 139.964 47.0213ZM143.224 47.2913C143.298 47.2113 143.358 47.1313 143.404 47.0513C143.451 46.9713 143.474 46.898 143.474 46.8313V46.3013C143.314 46.2346 143.141 46.1846 142.954 46.1513C142.768 46.1113 142.591 46.0913 142.424 46.0913C142.078 46.0913 141.791 46.168 141.564 46.3213C141.344 46.468 141.234 46.6646 141.234 46.9113C141.234 47.0446 141.271 47.1713 141.344 47.2913C141.418 47.4113 141.524 47.508 141.664 47.5813C141.804 47.6546 141.971 47.6913 142.164 47.6913C142.364 47.6913 142.561 47.6546 142.754 47.5813C142.948 47.5013 143.104 47.4046 143.224 47.2913Z" fill="#9A9AA0"/>
</g>
<defs>
<filter id="filter0_bd_2426_25919" x="0" y="-12" width="198" height="113" filterUnits="userSpaceOnUse" color-interpolation-filters="sRGB">
<feFlood flood-opacity="0" result="BackgroundImageFix"/>
<feGaussianBlur in="BackgroundImageFix" stdDeviation="10"/>
<feComposite in2="SourceAlpha" operator="in" result="effect1_backgroundBlur_2426_25919"/>
<feColorMatrix in="SourceAlpha" type="matrix" values="0 0 0 0 0 0 0 0 0 0 0 0 0 0 0 0 0 0 127 0" result="hardAlpha"/>
<feOffset dy="16"/>
<feGaussianBlur stdDeviation="12"/>
<feComposite in2="hardAlpha" operator="out"/>
<feColorMatrix type="matrix" values="0 0 0 0 0 0 0 0 0 0 0 0 0 0 0 0 0 0 0.08 0"/>
<feBlend mode="normal" in2="effect1_backgroundBlur_2426_25919" result="effect2_dropShadow_2426_25919"/>
<feBlend mode="normal" in="SourceGraphic" in2="effect2_dropShadow_2426_25919" result="shape"/>
</filter>
</defs>
</svg>
