<svg width="230" height="101" viewBox="0 0 230 101" fill="none" xmlns="http://www.w3.org/2000/svg">
<g filter="url(#filter0_bd_2426_25914)">
<rect x="24" y="8" width="182" height="53" rx="16" fill="white"/>
<path d="M93.74 30C93.74 29.4307 93.7773 28.9313 93.852 28.502C93.9267 28.0633 94.0433 27.676 94.202 27.34C94.37 26.9947 94.5847 26.6913 94.846 26.43C95.1073 26.1687 95.4293 25.9213 95.812 25.688C96.1387 25.5013 96.4747 25.3193 96.82 25.142C97.1747 24.9647 97.5013 24.778 97.8 24.582C98.108 24.386 98.3553 24.162 98.542 23.91C98.738 23.658 98.836 23.35 98.836 22.986C98.836 22.706 98.7753 22.468 98.654 22.272C98.542 22.0667 98.374 21.908 98.15 21.796C97.9353 21.684 97.674 21.628 97.366 21.628C97.0113 21.628 96.68 21.6933 96.372 21.824C96.0733 21.9453 95.8027 22.0993 95.56 22.286C95.3267 22.4633 95.126 22.6407 94.958 22.818L93.782 21.586C93.9127 21.4367 94.09 21.2687 94.314 21.082C94.5473 20.8953 94.8227 20.7133 95.14 20.536C95.4667 20.3587 95.8353 20.214 96.246 20.102C96.6567 19.99 97.1093 19.934 97.604 19.934C98.332 19.934 98.9433 20.0647 99.438 20.326C99.9327 20.578 100.306 20.928 100.558 21.376C100.819 21.8147 100.95 22.3233 100.95 22.902C100.95 23.322 100.88 23.6953 100.74 24.022C100.609 24.3393 100.427 24.6193 100.194 24.862C99.9607 25.1047 99.6993 25.324 99.41 25.52C99.1207 25.7067 98.822 25.8887 98.514 26.066C98.0287 26.3273 97.6367 26.556 97.338 26.752C97.0393 26.948 96.8013 27.13 96.624 27.298C96.456 27.466 96.3253 27.634 96.232 27.802C96.148 27.9607 96.0733 28.1287 96.008 28.306H100.964V30H93.74ZM102.258 30C102.258 29.4307 102.295 28.9313 102.37 28.502C102.444 28.0633 102.561 27.676 102.72 27.34C102.888 26.9947 103.102 26.6913 103.364 26.43C103.625 26.1687 103.947 25.9213 104.33 25.688C104.656 25.5013 104.992 25.3193 105.338 25.142C105.692 24.9647 106.019 24.778 106.318 24.582C106.626 24.386 106.873 24.162 107.06 23.91C107.256 23.658 107.354 23.35 107.354 22.986C107.354 22.706 107.293 22.468 107.172 22.272C107.06 22.0667 106.892 21.908 106.668 21.796C106.453 21.684 106.192 21.628 105.884 21.628C105.529 21.628 105.198 21.6933 104.89 21.824C104.591 21.9453 104.32 22.0993 104.078 22.286C103.844 22.4633 103.644 22.6407 103.476 22.818L102.3 21.586C102.43 21.4367 102.608 21.2687 102.832 21.082C103.065 20.8953 103.34 20.7133 103.658 20.536C103.984 20.3587 104.353 20.214 104.764 20.102C105.174 19.99 105.627 19.934 106.122 19.934C106.85 19.934 107.461 20.0647 107.956 20.326C108.45 20.578 108.824 20.928 109.076 21.376C109.337 21.8147 109.468 22.3233 109.468 22.902C109.468 23.322 109.398 23.6953 109.258 24.022C109.127 24.3393 108.945 24.6193 108.712 24.862C108.478 25.1047 108.217 25.324 107.928 25.52C107.638 25.7067 107.34 25.8887 107.032 26.066C106.546 26.3273 106.154 26.556 105.856 26.752C105.557 26.948 105.319 27.13 105.142 27.298C104.974 27.466 104.843 27.634 104.75 27.802C104.666 27.9607 104.591 28.1287 104.526 28.306H109.482V30H102.258ZM114.418 30V22.664H119.276V24.302H116.294V30H114.418ZM123.74 30.14C123.143 30.14 122.606 30.042 122.13 29.846C121.654 29.6407 121.248 29.3607 120.912 29.006C120.585 28.6513 120.333 28.2453 120.156 27.788C119.979 27.3307 119.89 26.85 119.89 26.346C119.89 25.8327 119.979 25.3473 120.156 24.89C120.333 24.4327 120.585 24.0267 120.912 23.672C121.248 23.3173 121.654 23.042 122.13 22.846C122.606 22.6407 123.143 22.538 123.74 22.538C124.337 22.538 124.869 22.6407 125.336 22.846C125.812 23.042 126.218 23.3173 126.554 23.672C126.89 24.0267 127.142 24.4327 127.31 24.89C127.487 25.3473 127.576 25.8327 127.576 26.346C127.576 26.85 127.487 27.3307 127.31 27.788C127.142 28.2453 126.89 28.6513 126.554 29.006C126.227 29.3607 125.826 29.6407 125.35 29.846C124.874 30.042 124.337 30.14 123.74 30.14ZM121.822 26.346C121.822 26.7753 121.906 27.158 122.074 27.494C122.242 27.8207 122.471 28.0773 122.76 28.264C123.049 28.4507 123.376 28.544 123.74 28.544C124.095 28.544 124.417 28.4507 124.706 28.264C124.995 28.068 125.224 27.8067 125.392 27.48C125.569 27.144 125.658 26.7613 125.658 26.332C125.658 25.912 125.569 25.534 125.392 25.198C125.224 24.862 124.995 24.6007 124.706 24.414C124.417 24.2273 124.095 24.134 123.74 24.134C123.376 24.134 123.049 24.232 122.76 24.428C122.471 24.6147 122.242 24.876 122.074 25.212C121.906 25.5387 121.822 25.9167 121.822 26.346ZM128.24 31.778V28.362H128.436C128.623 28.362 128.796 28.3107 128.954 28.208C129.122 28.1053 129.267 27.9327 129.388 27.69C129.519 27.438 129.622 27.0927 129.696 26.654C129.78 26.2153 129.836 25.6553 129.864 24.974L129.948 22.664H135.45V28.362H136.472V31.778H134.834V30H129.892V31.778H128.24ZM130.802 28.362H133.574V24.246H131.586L131.544 25.156C131.516 25.772 131.47 26.2947 131.404 26.724C131.348 27.144 131.269 27.4893 131.166 27.76C131.073 28.0213 130.952 28.222 130.802 28.362Z" fill="#FF4545"/>
<path d="M38.921 48.5713V41.4713H44.671V48.5713H43.301V42.6813H40.291V48.5713H38.921ZM49.1766 48.6713C48.77 48.6713 48.41 48.5813 48.0966 48.4013C47.79 48.2146 47.55 47.9646 47.3766 47.6513V50.7013H46.0366V43.3313H47.2066V44.2313C47.4066 43.9246 47.66 43.6846 47.9666 43.5113C48.2733 43.3313 48.6233 43.2413 49.0166 43.2413C49.37 43.2413 49.6933 43.3113 49.9866 43.4513C50.2866 43.5913 50.5466 43.788 50.7666 44.0413C50.9866 44.288 51.1566 44.5746 51.2766 44.9013C51.4033 45.2213 51.4666 45.568 51.4666 45.9413C51.4666 46.448 51.3666 46.908 51.1666 47.3213C50.9733 47.7346 50.7033 48.0646 50.3566 48.3113C50.0166 48.5513 49.6233 48.6713 49.1766 48.6713ZM48.7266 47.5313C48.9333 47.5313 49.12 47.488 49.2866 47.4013C49.4533 47.3146 49.5966 47.198 49.7166 47.0513C49.8433 46.898 49.9366 46.728 49.9966 46.5413C50.0633 46.348 50.0966 46.148 50.0966 45.9413C50.0966 45.7213 50.06 45.518 49.9866 45.3313C49.92 45.1446 49.82 44.9813 49.6866 44.8413C49.5533 44.6946 49.3966 44.5813 49.2166 44.5013C49.0433 44.4213 48.8533 44.3813 48.6466 44.3813C48.52 44.3813 48.39 44.4046 48.2566 44.4513C48.13 44.4913 48.0066 44.5513 47.8866 44.6313C47.7666 44.7113 47.66 44.8046 47.5666 44.9113C47.48 45.018 47.4166 45.1346 47.3766 45.2613V46.4913C47.4566 46.6846 47.5633 46.8613 47.6966 47.0213C47.8366 47.1813 47.9966 47.308 48.1766 47.4013C48.3566 47.488 48.54 47.5313 48.7266 47.5313ZM54.7945 48.6713C54.3679 48.6713 53.9845 48.6013 53.6445 48.4613C53.3045 48.3146 53.0145 48.1146 52.7745 47.8613C52.5412 47.608 52.3612 47.318 52.2345 46.9913C52.1079 46.6646 52.0445 46.3213 52.0445 45.9613C52.0445 45.5946 52.1079 45.248 52.2345 44.9213C52.3612 44.5946 52.5412 44.3046 52.7745 44.0513C53.0145 43.798 53.3045 43.6013 53.6445 43.4613C53.9845 43.3146 54.3679 43.2413 54.7945 43.2413C55.2212 43.2413 55.6012 43.3146 55.9345 43.4613C56.2745 43.6013 56.5645 43.798 56.8045 44.0513C57.0445 44.3046 57.2245 44.5946 57.3445 44.9213C57.4712 45.248 57.5345 45.5946 57.5345 45.9613C57.5345 46.3213 57.4712 46.6646 57.3445 46.9913C57.2245 47.318 57.0445 47.608 56.8045 47.8613C56.5712 48.1146 56.2845 48.3146 55.9445 48.4613C55.6045 48.6013 55.2212 48.6713 54.7945 48.6713ZM53.4245 45.9613C53.4245 46.268 53.4845 46.5413 53.6045 46.7813C53.7245 47.0146 53.8879 47.198 54.0945 47.3313C54.3012 47.4646 54.5345 47.5313 54.7945 47.5313C55.0479 47.5313 55.2779 47.4646 55.4845 47.3313C55.6912 47.1913 55.8545 47.0046 55.9745 46.7713C56.1012 46.5313 56.1645 46.258 56.1645 45.9513C56.1645 45.6513 56.1012 45.3813 55.9745 45.1413C55.8545 44.9013 55.6912 44.7146 55.4845 44.5813C55.2779 44.448 55.0479 44.3813 54.7945 44.3813C54.5345 44.3813 54.3012 44.4513 54.0945 44.5913C53.8879 44.7246 53.7245 44.9113 53.6045 45.1513C53.4845 45.3846 53.4245 45.6546 53.4245 45.9613ZM60.879 50.7013V48.5713H60.729C60.1756 48.5713 59.7023 48.4513 59.309 48.2113C58.9223 47.9646 58.6256 47.6446 58.419 47.2513C58.2123 46.8513 58.109 46.4213 58.109 45.9613C58.109 45.488 58.2123 45.0546 58.419 44.6613C58.6323 44.2613 58.9323 43.9413 59.319 43.7013C59.7123 43.4613 60.1823 43.3413 60.729 43.3413H60.879V41.2713H62.219V43.3413H62.379C62.9256 43.3413 63.3956 43.4613 63.789 43.7013C64.1823 43.9413 64.4823 44.2613 64.689 44.6613C64.8956 45.0546 64.999 45.488 64.999 45.9613C64.999 46.4213 64.8956 46.8513 64.689 47.2513C64.4823 47.6446 64.1823 47.9646 63.789 48.2113C63.4023 48.4513 62.9323 48.5713 62.379 48.5713H62.219V50.7013H60.879ZM60.729 47.5013H60.949V44.4113H60.729C60.4756 44.4113 60.249 44.478 60.049 44.6113C59.8556 44.7446 59.7023 44.928 59.589 45.1613C59.4756 45.3946 59.419 45.6613 59.419 45.9613C59.419 46.2613 59.4756 46.528 59.589 46.7613C59.7023 46.9946 59.8556 47.178 60.049 47.3113C60.2423 47.438 60.469 47.5013 60.729 47.5013ZM62.159 47.5013H62.379C62.639 47.5013 62.8656 47.438 63.059 47.3113C63.259 47.178 63.4123 46.9946 63.519 46.7613C63.6323 46.528 63.689 46.2613 63.689 45.9613C63.689 45.6613 63.6323 45.3946 63.519 45.1613C63.4056 44.928 63.2523 44.7446 63.059 44.6113C62.8656 44.478 62.639 44.4113 62.379 44.4113H62.159V47.5013ZM68.3202 48.6713C67.9002 48.6713 67.5202 48.6013 67.1802 48.4613C66.8402 48.3146 66.5502 48.118 66.3102 47.8713C66.0702 47.618 65.8835 47.3313 65.7502 47.0113C65.6235 46.6846 65.5602 46.3413 65.5602 45.9813C65.5602 45.4813 65.6702 45.0246 65.8902 44.6113C66.1168 44.198 66.4368 43.868 66.8502 43.6213C67.2702 43.368 67.7635 43.2413 68.3302 43.2413C68.9035 43.2413 69.3935 43.368 69.8002 43.6213C70.2068 43.868 70.5168 44.198 70.7302 44.6113C70.9502 45.018 71.0602 45.458 71.0602 45.9313C71.0602 46.0113 71.0568 46.0946 71.0502 46.1813C71.0435 46.2613 71.0368 46.328 71.0302 46.3813H66.9802C67.0068 46.648 67.0835 46.8813 67.2102 47.0813C67.3435 47.2813 67.5102 47.4346 67.7102 47.5413C67.9168 47.6413 68.1368 47.6913 68.3702 47.6913C68.6368 47.6913 68.8868 47.628 69.1202 47.5013C69.3602 47.368 69.5235 47.1946 69.6102 46.9813L70.7602 47.3013C70.6335 47.568 70.4502 47.8046 70.2102 48.0113C69.9768 48.218 69.7002 48.3813 69.3802 48.5013C69.0602 48.6146 68.7068 48.6713 68.3202 48.6713ZM66.9502 45.5313H69.6902C69.6635 45.2646 69.5868 45.0346 69.4602 44.8413C69.3402 44.6413 69.1802 44.488 68.9802 44.3813C68.7802 44.268 68.5568 44.2113 68.3102 44.2113C68.0702 44.2113 67.8502 44.268 67.6502 44.3813C67.4568 44.488 67.2968 44.6413 67.1702 44.8413C67.0502 45.0346 66.9768 45.2646 66.9502 45.5313ZM74.3165 48.6713C73.8898 48.6713 73.5065 48.6013 73.1665 48.4613C72.8265 48.3146 72.5365 48.1146 72.2965 47.8613C72.0565 47.6013 71.8698 47.308 71.7365 46.9813C71.6098 46.6546 71.5465 46.3113 71.5465 45.9513C71.5465 45.458 71.6565 45.008 71.8765 44.6013C72.1031 44.188 72.4231 43.858 72.8365 43.6113C73.2498 43.3646 73.7398 43.2413 74.3065 43.2413C74.8731 43.2413 75.3598 43.3646 75.7665 43.6113C76.1731 43.858 76.4765 44.1813 76.6765 44.5813L75.3665 44.9813C75.2531 44.788 75.1031 44.6413 74.9165 44.5413C74.7298 44.4346 74.5231 44.3813 74.2965 44.3813C74.0431 44.3813 73.8098 44.448 73.5965 44.5813C73.3898 44.708 73.2265 44.8913 73.1065 45.1313C72.9865 45.3646 72.9265 45.638 72.9265 45.9513C72.9265 46.258 72.9865 46.5313 73.1065 46.7713C73.2331 47.0046 73.3998 47.1913 73.6065 47.3313C73.8131 47.4646 74.0431 47.5313 74.2965 47.5313C74.4565 47.5313 74.6065 47.5046 74.7465 47.4513C74.8931 47.398 75.0231 47.3246 75.1365 47.2313C75.2498 47.138 75.3331 47.0313 75.3865 46.9113L76.6965 47.3113C76.5765 47.5713 76.3998 47.8046 76.1665 48.0113C75.9398 48.218 75.6698 48.3813 75.3565 48.5013C75.0498 48.6146 74.7031 48.6713 74.3165 48.6713ZM79.9122 48.6713C79.4855 48.6713 79.1022 48.6013 78.7622 48.4613C78.4222 48.3146 78.1322 48.1146 77.8922 47.8613C77.6522 47.6013 77.4655 47.308 77.3322 46.9813C77.2055 46.6546 77.1422 46.3113 77.1422 45.9513C77.1422 45.458 77.2522 45.008 77.4722 44.6013C77.6988 44.188 78.0188 43.858 78.4322 43.6113C78.8455 43.3646 79.3355 43.2413 79.9022 43.2413C80.4688 43.2413 80.9555 43.3646 81.3622 43.6113C81.7688 43.858 82.0722 44.1813 82.2722 44.5813L80.9622 44.9813C80.8488 44.788 80.6988 44.6413 80.5122 44.5413C80.3255 44.4346 80.1188 44.3813 79.8922 44.3813C79.6388 44.3813 79.4055 44.448 79.1922 44.5813C78.9855 44.708 78.8222 44.8913 78.7022 45.1313C78.5822 45.3646 78.5222 45.638 78.5222 45.9513C78.5222 46.258 78.5822 46.5313 78.7022 46.7713C78.8288 47.0046 78.9955 47.1913 79.2022 47.3313C79.4088 47.4646 79.6388 47.5313 79.8922 47.5313C80.0522 47.5313 80.2022 47.5046 80.3422 47.4513C80.4888 47.398 80.6188 47.3246 80.7322 47.2313C80.8455 47.138 80.9288 47.0313 80.9822 46.9113L82.2922 47.3113C82.1722 47.5713 81.9955 47.8046 81.7622 48.0113C81.5355 48.218 81.2655 48.3813 80.9522 48.5013C80.6455 48.6146 80.2988 48.6713 79.9122 48.6713ZM83.1167 48.5713V43.3413H84.4567V46.7813L86.8067 43.3313H88.0267V48.5713H86.6867V45.2113L84.3667 48.5713H83.1167ZM91.6695 48.6713C91.2429 48.6713 90.8595 48.6013 90.5195 48.4613C90.1795 48.3146 89.8895 48.1146 89.6495 47.8613C89.4162 47.608 89.2362 47.318 89.1095 46.9913C88.9829 46.6646 88.9195 46.3213 88.9195 45.9613C88.9195 45.5946 88.9829 45.248 89.1095 44.9213C89.2362 44.5946 89.4162 44.3046 89.6495 44.0513C89.8895 43.798 90.1795 43.6013 90.5195 43.4613C90.8595 43.3146 91.2429 43.2413 91.6695 43.2413C92.0962 43.2413 92.4762 43.3146 92.8095 43.4613C93.1495 43.6013 93.4395 43.798 93.6795 44.0513C93.9195 44.3046 94.0995 44.5946 94.2195 44.9213C94.3462 45.248 94.4095 45.5946 94.4095 45.9613C94.4095 46.3213 94.3462 46.6646 94.2195 46.9913C94.0995 47.318 93.9195 47.608 93.6795 47.8613C93.4462 48.1146 93.1595 48.3146 92.8195 48.4613C92.4795 48.6013 92.0962 48.6713 91.6695 48.6713ZM90.2995 45.9613C90.2995 46.268 90.3595 46.5413 90.4795 46.7813C90.5995 47.0146 90.7629 47.198 90.9695 47.3313C91.1762 47.4646 91.4095 47.5313 91.6695 47.5313C91.9229 47.5313 92.1529 47.4646 92.3595 47.3313C92.5662 47.1913 92.7295 47.0046 92.8495 46.7713C92.9762 46.5313 93.0395 46.258 93.0395 45.9513C93.0395 45.6513 92.9762 45.3813 92.8495 45.1413C92.7295 44.9013 92.5662 44.7146 92.3595 44.5813C92.1529 44.448 91.9229 44.3813 91.6695 44.3813C91.4095 44.3813 91.1762 44.4513 90.9695 44.5913C90.7629 44.7246 90.5995 44.9113 90.4795 45.1513C90.3595 45.3846 90.2995 45.6546 90.2995 45.9613ZM95.314 48.5713V43.3313H96.654V45.3313H98.774V43.3313H100.114V48.5713H98.774V46.4513H96.654V48.5713H95.314ZM100.979 47.0213C100.979 46.6813 101.073 46.3846 101.259 46.1313C101.453 45.8713 101.719 45.6713 102.059 45.5313C102.399 45.3913 102.789 45.3213 103.229 45.3213C103.449 45.3213 103.673 45.338 103.899 45.3713C104.126 45.4046 104.323 45.458 104.489 45.5313V45.2513C104.489 44.918 104.389 44.6613 104.189 44.4813C103.996 44.3013 103.706 44.2113 103.319 44.2113C103.033 44.2113 102.759 44.2613 102.499 44.3613C102.239 44.4613 101.966 44.608 101.679 44.8013L101.249 43.9213C101.596 43.6946 101.949 43.5246 102.309 43.4113C102.676 43.298 103.059 43.2413 103.459 43.2413C104.206 43.2413 104.786 43.428 105.199 43.8013C105.619 44.1746 105.829 44.708 105.829 45.4013V47.0713C105.829 47.2113 105.853 47.3113 105.899 47.3713C105.953 47.4313 106.036 47.468 106.149 47.4813V48.5713C106.029 48.5913 105.919 48.608 105.819 48.6213C105.726 48.6346 105.646 48.6413 105.579 48.6413C105.313 48.6413 105.109 48.5813 104.969 48.4613C104.836 48.3413 104.753 48.1946 104.719 48.0213L104.689 47.7513C104.463 48.0446 104.179 48.2713 103.839 48.4313C103.499 48.5913 103.153 48.6713 102.799 48.6713C102.453 48.6713 102.139 48.6013 101.859 48.4613C101.586 48.3146 101.369 48.118 101.209 47.8713C101.056 47.618 100.979 47.3346 100.979 47.0213ZM104.239 47.2913C104.313 47.2113 104.373 47.1313 104.419 47.0513C104.466 46.9713 104.489 46.898 104.489 46.8313V46.3013C104.329 46.2346 104.156 46.1846 103.969 46.1513C103.783 46.1113 103.606 46.0913 103.439 46.0913C103.093 46.0913 102.806 46.168 102.579 46.3213C102.359 46.468 102.249 46.6646 102.249 46.9113C102.249 47.0446 102.286 47.1713 102.359 47.2913C102.433 47.4113 102.539 47.508 102.679 47.5813C102.819 47.6546 102.986 47.6913 103.179 47.6913C103.379 47.6913 103.576 47.6546 103.769 47.5813C103.963 47.5013 104.119 47.4046 104.239 47.2913ZM106.702 48.6413V47.4513C106.862 47.4446 107.005 47.4046 107.132 47.3313C107.258 47.258 107.368 47.1346 107.462 46.9613C107.562 46.7813 107.638 46.5313 107.692 46.2113C107.752 45.8913 107.792 45.4813 107.812 44.9813L107.882 43.3313H111.812V48.5713H110.472V44.5013H109.062L109.042 45.1113C109.015 45.798 108.948 46.368 108.842 46.8213C108.735 47.2746 108.585 47.6346 108.392 47.9013C108.205 48.1613 107.972 48.348 107.692 48.4613C107.412 48.5746 107.082 48.6346 106.702 48.6413ZM113.029 48.5713V43.3313H114.369V44.9813H115.559C116.185 44.9813 116.665 45.1413 116.999 45.4613C117.332 45.7813 117.499 46.2046 117.499 46.7313C117.499 47.0846 117.429 47.4013 117.289 47.6813C117.149 47.9613 116.942 48.1813 116.669 48.3413C116.395 48.4946 116.055 48.5713 115.649 48.5713H113.029ZM114.369 47.5513H115.439C115.619 47.5513 115.765 47.5146 115.879 47.4413C115.999 47.368 116.085 47.2713 116.139 47.1513C116.199 47.0313 116.229 46.8946 116.229 46.7413C116.229 46.5946 116.202 46.4646 116.149 46.3513C116.095 46.2313 116.009 46.138 115.889 46.0713C115.775 45.998 115.622 45.9613 115.429 45.9613H114.369V47.5513ZM118.341 48.5713V43.3313H119.681V45.3313H121.801V43.3313H123.141V48.5713H121.801V46.4513H119.681V48.5713H118.341ZM126.787 48.6713C126.36 48.6713 125.977 48.6013 125.637 48.4613C125.297 48.3146 125.007 48.1146 124.767 47.8613C124.533 47.608 124.353 47.318 124.227 46.9913C124.1 46.6646 124.037 46.3213 124.037 45.9613C124.037 45.5946 124.1 45.248 124.227 44.9213C124.353 44.5946 124.533 44.3046 124.767 44.0513C125.007 43.798 125.297 43.6013 125.637 43.4613C125.977 43.3146 126.36 43.2413 126.787 43.2413C127.213 43.2413 127.593 43.3146 127.927 43.4613C128.267 43.6013 128.557 43.798 128.797 44.0513C129.037 44.3046 129.217 44.5946 129.337 44.9213C129.463 45.248 129.527 45.5946 129.527 45.9613C129.527 46.3213 129.463 46.6646 129.337 46.9913C129.217 47.318 129.037 47.608 128.797 47.8613C128.563 48.1146 128.277 48.3146 127.937 48.4613C127.597 48.6013 127.213 48.6713 126.787 48.6713ZM125.417 45.9613C125.417 46.268 125.477 46.5413 125.597 46.7813C125.717 47.0146 125.88 47.198 126.087 47.3313C126.293 47.4646 126.527 47.5313 126.787 47.5313C127.04 47.5313 127.27 47.4646 127.477 47.3313C127.683 47.1913 127.847 47.0046 127.967 46.7713C128.093 46.5313 128.157 46.258 128.157 45.9513C128.157 45.6513 128.093 45.3813 127.967 45.1413C127.847 44.9013 127.683 44.7146 127.477 44.5813C127.27 44.448 127.04 44.3813 126.787 44.3813C126.527 44.3813 126.293 44.4513 126.087 44.5913C125.88 44.7246 125.717 44.9113 125.597 45.1513C125.477 45.3846 125.417 45.6546 125.417 45.9613ZM132.861 48.6713C132.441 48.6713 132.061 48.6013 131.721 48.4613C131.381 48.3146 131.091 48.118 130.851 47.8713C130.611 47.618 130.425 47.3313 130.291 47.0113C130.165 46.6846 130.101 46.3413 130.101 45.9813C130.101 45.4813 130.211 45.0246 130.431 44.6113C130.658 44.198 130.978 43.868 131.391 43.6213C131.811 43.368 132.305 43.2413 132.871 43.2413C133.445 43.2413 133.935 43.368 134.341 43.6213C134.748 43.868 135.058 44.198 135.271 44.6113C135.491 45.018 135.601 45.458 135.601 45.9313C135.601 46.0113 135.598 46.0946 135.591 46.1813C135.585 46.2613 135.578 46.328 135.571 46.3813H131.521C131.548 46.648 131.625 46.8813 131.751 47.0813C131.885 47.2813 132.051 47.4346 132.251 47.5413C132.458 47.6413 132.678 47.6913 132.911 47.6913C133.178 47.6913 133.428 47.628 133.661 47.5013C133.901 47.368 134.065 47.1946 134.151 46.9813L135.301 47.3013C135.175 47.568 134.991 47.8046 134.751 48.0113C134.518 48.218 134.241 48.3813 133.921 48.5013C133.601 48.6146 133.248 48.6713 132.861 48.6713ZM131.491 45.5313H134.231C134.205 45.2646 134.128 45.0346 134.001 44.8413C133.881 44.6413 133.721 44.488 133.521 44.3813C133.321 44.268 133.098 44.2113 132.851 44.2113C132.611 44.2113 132.391 44.268 132.191 44.3813C131.998 44.488 131.838 44.6413 131.711 44.8413C131.591 45.0346 131.518 45.2646 131.491 45.5313ZM141.96 48.6713C141.553 48.6713 141.193 48.5813 140.88 48.4013C140.573 48.2146 140.333 47.9646 140.16 47.6513V50.7013H138.82V43.3313H139.99V44.2313C140.19 43.9246 140.443 43.6846 140.75 43.5113C141.057 43.3313 141.407 43.2413 141.8 43.2413C142.153 43.2413 142.477 43.3113 142.77 43.4513C143.07 43.5913 143.33 43.788 143.55 44.0413C143.77 44.288 143.94 44.5746 144.06 44.9013C144.187 45.2213 144.25 45.568 144.25 45.9413C144.25 46.448 144.15 46.908 143.95 47.3213C143.757 47.7346 143.487 48.0646 143.14 48.3113C142.8 48.5513 142.407 48.6713 141.96 48.6713ZM141.51 47.5313C141.717 47.5313 141.903 47.488 142.07 47.4013C142.237 47.3146 142.38 47.198 142.5 47.0513C142.627 46.898 142.72 46.728 142.78 46.5413C142.847 46.348 142.88 46.148 142.88 45.9413C142.88 45.7213 142.843 45.518 142.77 45.3313C142.703 45.1446 142.603 44.9813 142.47 44.8413C142.337 44.6946 142.18 44.5813 142 44.5013C141.827 44.4213 141.637 44.3813 141.43 44.3813C141.303 44.3813 141.173 44.4046 141.04 44.4513C140.913 44.4913 140.79 44.5513 140.67 44.6313C140.55 44.7113 140.443 44.8046 140.35 44.9113C140.263 45.018 140.2 45.1346 140.16 45.2613V46.4913C140.24 46.6846 140.347 46.8613 140.48 47.0213C140.62 47.1813 140.78 47.308 140.96 47.4013C141.14 47.488 141.323 47.5313 141.51 47.5313ZM147.578 48.6713C147.151 48.6713 146.768 48.6013 146.428 48.4613C146.088 48.3146 145.798 48.1146 145.558 47.8613C145.324 47.608 145.144 47.318 145.018 46.9913C144.891 46.6646 144.828 46.3213 144.828 45.9613C144.828 45.5946 144.891 45.248 145.018 44.9213C145.144 44.5946 145.324 44.3046 145.558 44.0513C145.798 43.798 146.088 43.6013 146.428 43.4613C146.768 43.3146 147.151 43.2413 147.578 43.2413C148.004 43.2413 148.384 43.3146 148.718 43.4613C149.058 43.6013 149.348 43.798 149.588 44.0513C149.828 44.3046 150.008 44.5946 150.128 44.9213C150.254 45.248 150.318 45.5946 150.318 45.9613C150.318 46.3213 150.254 46.6646 150.128 46.9913C150.008 47.318 149.828 47.608 149.588 47.8613C149.354 48.1146 149.068 48.3146 148.728 48.4613C148.388 48.6013 148.004 48.6713 147.578 48.6713ZM146.208 45.9613C146.208 46.268 146.268 46.5413 146.388 46.7813C146.508 47.0146 146.671 47.198 146.878 47.3313C147.084 47.4646 147.318 47.5313 147.578 47.5313C147.831 47.5313 148.061 47.4646 148.268 47.3313C148.474 47.1913 148.638 47.0046 148.758 46.7713C148.884 46.5313 148.948 46.258 148.948 45.9513C148.948 45.6513 148.884 45.3813 148.758 45.1413C148.638 44.9013 148.474 44.7146 148.268 44.5813C148.061 44.448 147.831 44.3813 147.578 44.3813C147.318 44.3813 147.084 44.4513 146.878 44.5913C146.671 44.7246 146.508 44.9113 146.388 45.1513C146.268 45.3846 146.208 45.6546 146.208 45.9613ZM150.832 48.5713L152.672 45.8613L150.962 43.3313H152.452L153.792 45.3213H154.202V43.3313H155.582V45.3213H156.022L157.332 43.3313H158.832L157.122 45.8613L158.972 48.5713H157.442L156.022 46.4813H155.582V48.5713H154.212V46.4813H153.792L152.352 48.5713H150.832ZM159.357 49.8413V47.4013H159.497C159.63 47.4013 159.753 47.3646 159.867 47.2913C159.987 47.218 160.09 47.0946 160.177 46.9213C160.27 46.7413 160.343 46.4946 160.397 46.1813C160.457 45.868 160.497 45.468 160.517 44.9813L160.577 43.3313H164.507V47.4013H165.237V49.8413H164.067V48.5713H160.537V49.8413H159.357ZM161.187 47.4013H163.167V44.4613H161.747L161.717 45.1113C161.697 45.5513 161.663 45.9246 161.617 46.2313C161.577 46.5313 161.52 46.778 161.447 46.9713C161.38 47.158 161.293 47.3013 161.187 47.4013ZM168.535 48.6713C168.115 48.6713 167.735 48.6013 167.395 48.4613C167.055 48.3146 166.765 48.118 166.525 47.8713C166.285 47.618 166.098 47.3313 165.965 47.0113C165.838 46.6846 165.775 46.3413 165.775 45.9813C165.775 45.4813 165.885 45.0246 166.105 44.6113C166.332 44.198 166.652 43.868 167.065 43.6213C167.485 43.368 167.978 43.2413 168.545 43.2413C169.118 43.2413 169.608 43.368 170.015 43.6213C170.422 43.868 170.732 44.198 170.945 44.6113C171.165 45.018 171.275 45.458 171.275 45.9313C171.275 46.0113 171.272 46.0946 171.265 46.1813C171.258 46.2613 171.252 46.328 171.245 46.3813H167.195C167.222 46.648 167.298 46.8813 167.425 47.0813C167.558 47.2813 167.725 47.4346 167.925 47.5413C168.132 47.6413 168.352 47.6913 168.585 47.6913C168.852 47.6913 169.102 47.628 169.335 47.5013C169.575 47.368 169.738 47.1946 169.825 46.9813L170.975 47.3013C170.848 47.568 170.665 47.8046 170.425 48.0113C170.192 48.218 169.915 48.3813 169.595 48.5013C169.275 48.6146 168.922 48.6713 168.535 48.6713ZM167.165 45.5313H169.905C169.878 45.2646 169.802 45.0346 169.675 44.8413C169.555 44.6413 169.395 44.488 169.195 44.3813C168.995 44.268 168.772 44.2113 168.525 44.2113C168.285 44.2113 168.065 44.268 167.865 44.3813C167.672 44.488 167.512 44.6413 167.385 44.8413C167.265 45.0346 167.192 45.2646 167.165 45.5313ZM172.091 48.5713V43.3313H173.431V45.3313H175.551V43.3313H176.891V48.5713H175.551V46.4513H173.431V48.5713H172.091ZM178.117 48.5713V43.3413H179.457V46.7813L181.807 43.3313H183.027V48.5713H181.687V45.2113L179.367 48.5713H178.117ZM186.68 48.6713C186.26 48.6713 185.88 48.6013 185.54 48.4613C185.2 48.3146 184.91 48.118 184.67 47.8713C184.43 47.618 184.243 47.3313 184.11 47.0113C183.983 46.6846 183.92 46.3413 183.92 45.9813C183.92 45.4813 184.03 45.0246 184.25 44.6113C184.476 44.198 184.796 43.868 185.21 43.6213C185.63 43.368 186.123 43.2413 186.69 43.2413C187.263 43.2413 187.753 43.368 188.16 43.6213C188.566 43.868 188.876 44.198 189.09 44.6113C189.31 45.018 189.42 45.458 189.42 45.9313C189.42 46.0113 189.416 46.0946 189.41 46.1813C189.403 46.2613 189.396 46.328 189.39 46.3813H185.34C185.366 46.648 185.443 46.8813 185.57 47.0813C185.703 47.2813 185.87 47.4346 186.07 47.5413C186.276 47.6413 186.496 47.6913 186.73 47.6913C186.996 47.6913 187.246 47.628 187.48 47.5013C187.72 47.368 187.883 47.1946 187.97 46.9813L189.12 47.3013C188.993 47.568 188.81 47.8046 188.57 48.0113C188.336 48.218 188.06 48.3813 187.74 48.5013C187.42 48.6146 187.066 48.6713 186.68 48.6713ZM185.31 45.5313H188.05C188.023 45.2646 187.946 45.0346 187.82 44.8413C187.7 44.6413 187.54 44.488 187.34 44.3813C187.14 44.268 186.916 44.2113 186.67 44.2113C186.43 44.2113 186.21 44.268 186.01 44.3813C185.816 44.488 185.656 44.6413 185.53 44.8413C185.41 45.0346 185.336 45.2646 185.31 45.5313Z" fill="#9A9AA0"/>
</g>
<defs>
<filter id="filter0_bd_2426_25914" x="0" y="-12" width="230" height="113" filterUnits="userSpaceOnUse" color-interpolation-filters="sRGB">
<feFlood flood-opacity="0" result="BackgroundImageFix"/>
<feGaussianBlur in="BackgroundImageFix" stdDeviation="10"/>
<feComposite in2="SourceAlpha" operator="in" result="effect1_backgroundBlur_2426_25914"/>
<feColorMatrix in="SourceAlpha" type="matrix" values="0 0 0 0 0 0 0 0 0 0 0 0 0 0 0 0 0 0 127 0" result="hardAlpha"/>
<feOffset dy="16"/>
<feGaussianBlur stdDeviation="12"/>
<feComposite in2="hardAlpha" operator="out"/>
<feColorMatrix type="matrix" values="0 0 0 0 0 0 0 0 0 0 0 0 0 0 0 0 0 0 0.08 0"/>
<feBlend mode="normal" in2="effect1_backgroundBlur_2426_25914" result="effect2_dropShadow_2426_25914"/>
<feBlend mode="normal" in="SourceGraphic" in2="effect2_dropShadow_2426_25914" result="shape"/>
</filter>
</defs>
</svg>
