<svg width="1379" height="1487" viewBox="0 0 1379 1487" fill="none" xmlns="http://www.w3.org/2000/svg">
<g opacity="0.1">
<path fill-rule="evenodd" clip-rule="evenodd" d="M1379 1351.68C1379 1399.79 1341.42 1438.78 1295.06 1438.78C1248.7 1438.78 1211.12 1399.79 1211.12 1351.68C1211.12 1001.05 1199.86 698.457 1096.02 588.551C1037.07 526.15 958.438 472.099 870.705 396.983C805.833 341.441 778.365 334.289 777.036 226.648C698.142 159.608 609.158 178.445 609.158 87.0996C609.158 38.9959 646.739 -9.00622e-05 693.097 -9.20886e-05C739.456 -9.41149e-05 777.036 38.9959 777.036 87.0996C777.036 202 956.225 251.934 1055.25 326.357C1121.83 376.395 1154.95 402.084 1215.9 466.599C1375.4 635.412 1379 1015.47 1379 1351.68ZM777.036 669.783C785.94 679.377 796.4 690.552 805.833 700.536C796.06 690.192 786.442 679.978 777.036 669.783ZM575.761 436.4C596.423 390.783 616.921 362.619 609.226 218.294L616.353 633.971C615.995 673.895 597.376 690.028 587.924 700.01C585.153 702.936 582.576 705.657 580.361 708.002C476.52 817.908 465.262 1048.5 465.263 1399.13C465.263 1447.24 427.682 1486.23 381.323 1486.23C334.965 1486.23 297.384 1447.24 297.384 1399.13C297.384 1062.92 300.986 754.863 460.484 586.05C521.439 521.535 554.484 483.374 575.761 436.4ZM777.036 87.0996C777.036 144.206 669.142 158.1 609.226 218.294C610.932 326.357 625.094 309.076 523.863 380.388C455.214 428.747 435.854 434.272 397.432 466.599C320.172 531.602 332.554 520.168 282.977 588.551C176.058 736.028 167.878 1001.05 167.878 1351.68C167.878 1399.79 130.298 1438.78 83.9393 1438.78C37.5811 1438.78 0.000118292 1399.79 0.000116189 1351.68C0.000101493 1015.47 3.60177 635.412 163.1 466.599C224.055 402.084 264.829 367.02 326.605 326.357C403.865 275.502 544.342 217.571 609.158 87.0996C609.158 38.9959 646.739 -9.00622e-05 693.097 -9.20886e-05C739.456 -9.41149e-05 777.036 38.9959 777.036 87.0996Z" fill="url(#paint0_linear_2421_24349)"/>
<path d="M609.158 1391.67L616.353 633.971L609.226 218.294C611.555 365.819 664.319 554.949 777.036 669.783L777.036 1391.67C777.036 1439.77 739.456 1478.77 693.097 1478.77C646.739 1478.77 609.158 1439.77 609.158 1391.67Z" fill="url(#paint1_linear_2421_24349)"/>
<path d="M1088.81 1391.67C1088.81 1439.77 1051.23 1478.77 1004.87 1478.77C958.513 1478.77 920.932 1439.77 920.932 1391.67C920.932 1041.03 909.675 810.442 805.833 700.536C796.4 690.552 785.94 679.377 777.036 669.783C664.319 554.949 611.555 365.819 609.226 218.294L609.158 87.0996C609.158 38.9959 646.739 -9.00622e-05 693.097 -9.20886e-05C739.456 -9.41149e-05 777.036 38.9959 777.036 87.0996L777.036 281.664C777.036 396.564 789.772 383.317 810.434 428.934C831.71 475.908 864.755 514.069 925.711 578.584C1085.21 747.398 1088.81 1055.46 1088.81 1391.67Z" fill="url(#paint2_linear_2421_24349)"/>
</g>
<defs>
<linearGradient id="paint0_linear_2421_24349" x1="690" y1="115" x2="690" y2="1372" gradientUnits="userSpaceOnUse">
<stop stop-color="#319CFF" stop-opacity="0"/>
<stop offset="1" stop-color="#319CFF"/>
</linearGradient>
<linearGradient id="paint1_linear_2421_24349" x1="690" y1="115" x2="690" y2="1372" gradientUnits="userSpaceOnUse">
<stop stop-color="#319CFF" stop-opacity="0"/>
<stop offset="1" stop-color="#319CFF"/>
</linearGradient>
<linearGradient id="paint2_linear_2421_24349" x1="690" y1="115" x2="690" y2="1372" gradientUnits="userSpaceOnUse">
<stop stop-color="#319CFF" stop-opacity="0"/>
<stop offset="1" stop-color="#319CFF"/>
</linearGradient>
</defs>
</svg>
