<svg width="130" height="451" viewBox="0 0 130 451" fill="none" xmlns="http://www.w3.org/2000/svg">
<path fill-rule="evenodd" clip-rule="evenodd" d="M78.7879 105.97C80.2505 107.489 81.9686 109.257 83.5181 110.836C81.9127 109.2 80.3328 107.584 78.7879 105.97ZM45.5 45C55.2738 19.9544 57 23 51.2121 33.8609L51.2232 34.5376L52.394 81.9705C51.1993 83.2179 49.2768 85.1736 47.7241 86.753C47.2691 87.2158 46.8458 87.6464 46.4819 88.0174C29.4249 105.406 27.5758 122.508 27.5758 177.984C27.5758 185.595 21.4027 191.765 13.7879 191.765C6.17305 191.765 3.16493e-06 185.595 3.25568e-06 177.984C3.89001e-06 124.79 0.591587 95.4316 26.7908 68.7226C36.8033 58.5153 40.5 55 45.5 45Z" fill="url(#paint0_linear_2421_24635)"/>
<path d="M51.2121 437.219L52.394 81.9705L51.2232 34.5376C51.6058 57.8784 60.2728 87.802 78.7879 105.97L78.7879 437.219C78.7879 444.83 72.6149 451 65 451C57.3852 451 51.2121 444.83 51.2121 437.219Z" fill="url(#paint1_linear_2421_24635)"/>
<path d="M130 200.803C130 208.414 123.827 214.583 116.212 214.583C108.597 214.583 102.424 208.414 102.424 200.803C102.424 145.327 100.575 128.225 83.5181 110.836C81.9686 109.257 80.2505 107.489 78.7879 105.97C60.2728 87.802 51.6058 57.8784 51.2232 34.5376L51.2121 33.8609L51.9207 13.7806C51.9207 6.16977 57.3852 -8.65923e-07 65 -7.75117e-07C72.6149 -6.84311e-07 78.7879 6.16977 78.7879 13.7806L78.7879 32.6797C78.7879 50.8587 80.8798 60.647 84.2738 67.8644C87.7687 75.2964 93.1967 81.3341 103.209 91.5414C129.408 118.25 130 147.609 130 200.803Z" fill="url(#paint2_linear_2421_24635)"/>
<defs>
<linearGradient id="paint0_linear_2421_24635" x1="94.9565" y1="418.575" x2="-122.594" y2="149.233" gradientUnits="userSpaceOnUse">
<stop stop-color="#319CFF"/>
<stop offset="1" stop-color="#B1DAFF"/>
</linearGradient>
<linearGradient id="paint1_linear_2421_24635" x1="65.1131" y1="466.475" x2="65.113" y2="45.6895" gradientUnits="userSpaceOnUse">
<stop stop-color="#B8DDFF"/>
<stop offset="1" stop-color="#319CFF"/>
</linearGradient>
<linearGradient id="paint2_linear_2421_24635" x1="116.606" y1="159.639" x2="69.0395" y2="-0.0117775" gradientUnits="userSpaceOnUse">
<stop stop-color="#99CEFF"/>
<stop offset="1" stop-color="#66B6FF"/>
</linearGradient>
</defs>
</svg>
