<svg width="1380" height="1487" viewBox="0 0 1380 1487" fill="none" xmlns="http://www.w3.org/2000/svg">
<g opacity="0.03">
<path fill-rule="evenodd" clip-rule="evenodd" d="M1379.5 1351.68C1379.5 1399.79 1341.92 1438.78 1295.56 1438.78C1249.2 1438.78 1211.62 1399.79 1211.62 1351.68C1211.62 1001.05 1200.36 698.457 1096.52 588.551C1037.57 526.15 958.938 472.099 871.205 396.983C806.333 341.441 778.865 334.289 777.536 226.648C698.642 159.608 609.658 178.445 609.658 87.0996C609.658 38.9959 647.239 -9.00622e-05 693.597 -9.20886e-05C739.956 -9.41149e-05 777.536 38.9959 777.536 87.0996C777.536 202 956.725 251.934 1055.75 326.357C1122.33 376.395 1155.45 402.084 1216.4 466.599C1375.9 635.412 1379.5 1015.47 1379.5 1351.68ZM777.536 669.783C786.44 679.377 796.9 690.552 806.333 700.536C796.56 690.192 786.942 679.978 777.536 669.783ZM576.261 436.4C596.923 390.783 617.421 362.619 609.726 218.294L616.853 633.971C616.495 673.895 597.876 690.028 588.424 700.01C585.653 702.936 583.076 705.657 580.861 708.002C477.02 817.908 465.762 1048.5 465.763 1399.13C465.763 1447.24 428.182 1486.23 381.823 1486.23C335.465 1486.23 297.884 1447.24 297.884 1399.13C297.884 1062.92 301.486 754.863 460.984 586.05C521.939 521.535 554.984 483.374 576.261 436.4ZM777.536 87.0996C777.536 144.206 669.642 158.1 609.726 218.294C611.432 326.357 625.594 309.076 524.363 380.388C455.714 428.747 436.354 434.272 397.932 466.599C320.672 531.602 333.054 520.168 283.477 588.551C176.558 736.028 168.378 1001.05 168.378 1351.68C168.378 1399.79 130.798 1438.78 84.4393 1438.78C38.0811 1438.78 0.500118 1399.79 0.500116 1351.68C0.500101 1015.47 4.10177 635.412 163.6 466.599C224.555 402.084 265.329 367.02 327.105 326.357C404.365 275.502 544.842 217.571 609.658 87.0996C609.658 38.9959 647.239 -9.00622e-05 693.597 -9.20886e-05C739.956 -9.41149e-05 777.536 38.9959 777.536 87.0996Z" fill="black"/>
<path d="M609.658 1399.13L616.853 633.971L609.726 218.294C612.055 365.819 664.819 554.949 777.536 669.783L777.536 1399.13C777.536 1447.24 739.956 1486.23 693.597 1486.23C647.239 1486.23 609.658 1447.24 609.658 1399.13Z" fill="black"/>
<path d="M1089.31 1399.13C1089.31 1447.24 1051.73 1486.23 1005.37 1486.23C959.013 1486.23 921.432 1447.24 921.432 1399.13C921.432 1048.5 910.175 810.442 806.333 700.536C796.9 690.552 786.44 679.377 777.536 669.783C664.819 554.949 612.055 365.819 609.726 218.294L609.658 87.0996C609.658 38.9959 647.239 -9.00622e-05 693.597 -9.20886e-05C739.956 -9.41149e-05 777.536 38.9959 777.536 87.0996L777.536 281.664C777.536 396.564 790.272 383.317 810.934 428.934C832.21 475.908 865.255 514.069 926.21 578.584C1085.71 747.398 1089.31 1062.92 1089.31 1399.13Z" fill="black"/>
</g>
</svg>
