<svg width="770" height="300" viewBox="0 0 770 300" fill="none" xmlns="http://www.w3.org/2000/svg">
<g opacity="0.1">
<path fill-rule="evenodd" clip-rule="evenodd" d="M770 728.896C770 758.965 746.481 783.34 717.469 783.34C688.458 783.34 664.939 758.965 664.939 728.896C664.939 509.726 657.894 320.585 592.909 251.886C556.012 212.881 506.805 179.095 451.901 132.143C411.303 97.4244 394.113 92.9542 393.282 25.671C343.908 -16.2336 288.221 -4.45948 288.221 -61.5566C288.221 -91.6248 311.739 -116 340.751 -116C369.763 -116 393.282 -91.6248 393.282 -61.5566C393.282 10.264 505.421 41.4767 567.391 87.9962C609.057 119.273 629.783 135.331 667.93 175.657C767.746 281.177 770 518.742 770 728.896ZM393.282 302.661C398.854 308.659 405.4 315.644 411.303 321.885C405.187 315.419 399.168 309.034 393.282 302.661ZM267.32 156.781C280.251 128.267 293.079 110.662 288.263 20.4492L292.724 280.277C292.499 305.232 280.847 315.316 274.932 321.556C273.198 323.385 271.585 325.086 270.199 326.551C205.214 395.25 198.169 539.386 198.169 758.557C198.169 788.625 174.65 813 145.638 813C116.626 813 93.1077 788.625 93.1077 758.557C93.1077 548.402 95.3616 355.843 195.178 250.323C233.325 209.996 254.005 186.143 267.32 156.781ZM393.282 -61.5566C393.282 -25.8612 325.759 -17.1766 288.263 20.4492C289.331 87.9962 298.194 77.1944 234.842 121.769C191.88 151.997 179.765 155.451 155.719 175.657C107.369 216.289 115.117 209.142 84.0913 251.886C17.1801 344.07 12.0609 509.726 12.0609 728.896C12.0609 758.965 -11.4578 783.34 -40.4695 783.34C-69.4813 783.34 -93.0001 758.965 -93.0001 728.896C-93.0001 518.741 -90.7461 281.177 9.07026 175.657C47.217 135.331 72.7343 113.414 111.395 87.9961C159.745 56.2081 247.658 19.9975 288.221 -61.5566C288.221 -91.6248 311.739 -116 340.751 -116C369.763 -116 393.282 -91.6248 393.282 -61.5566Z" fill="url(#paint0_linear_2500_14845)"/>
<path d="M288.221 753.89L292.724 280.277L288.263 20.4492C289.721 112.662 322.741 230.882 393.282 302.661L393.282 753.89C393.282 783.958 369.763 808.333 340.751 808.333C311.739 808.333 288.221 783.958 288.221 753.89Z" fill="url(#paint1_linear_2500_14845)"/>
<path d="M588.394 753.89C588.394 783.958 564.876 808.333 535.864 808.333C506.852 808.333 483.334 783.958 483.334 753.89C483.334 534.72 476.289 390.583 411.303 321.885C405.4 315.644 398.854 308.659 393.282 302.661C322.741 230.882 289.721 112.662 288.263 20.4492L288.221 -61.5566C288.221 -91.6248 311.739 -116 340.751 -116C369.763 -116 393.282 -91.6248 393.282 -61.5566L393.282 60.0601C393.282 131.881 401.252 123.6 414.182 152.114C427.497 181.476 448.178 205.329 486.324 245.656C586.141 351.176 588.394 543.735 588.394 753.89Z" fill="url(#paint2_linear_2500_14845)"/>
</g>
<defs>
<linearGradient id="paint0_linear_2500_14845" x1="338.813" y1="-44.117" x2="338.813" y2="741.597" gradientUnits="userSpaceOnUse">
<stop stop-color="#319CFF" stop-opacity="0"/>
<stop offset="1" stop-color="#319CFF"/>
</linearGradient>
<linearGradient id="paint1_linear_2500_14845" x1="338.813" y1="-44.117" x2="338.813" y2="741.597" gradientUnits="userSpaceOnUse">
<stop stop-color="#319CFF" stop-opacity="0"/>
<stop offset="1" stop-color="#319CFF"/>
</linearGradient>
<linearGradient id="paint2_linear_2500_14845" x1="338.813" y1="-44.117" x2="338.813" y2="741.597" gradientUnits="userSpaceOnUse">
<stop stop-color="#319CFF" stop-opacity="0"/>
<stop offset="1" stop-color="#319CFF"/>
</linearGradient>
</defs>
</svg>
