<svg width="130" height="753" viewBox="0 0 130 753" fill="none" xmlns="http://www.w3.org/2000/svg">
<path fill-rule="evenodd" clip-rule="evenodd" d="M78.7879 105.996C80.2505 107.514 81.9686 109.282 83.5181 110.862C81.9127 109.225 80.3328 107.609 78.7879 105.996ZM45.7262 39.0626C53 22.502 53 21.502 51.2121 33.8702L51.2232 34.5471L52.394 75.9956C51.1993 77.2433 49.2768 79.1994 47.7241 80.7792C47.2691 81.2422 46.8458 81.6729 46.4819 82.0439C29.4249 99.4366 27.5757 116.542 27.5757 172.03C27.5757 179.643 21.4027 185.814 13.7879 185.814C6.17303 185.814 -8.42414e-06 179.643 -8.33337e-06 172.03C-7.6989e-06 118.825 0.591576 89.4597 26.7908 62.7449C36.8033 52.5353 43.3627 44.4437 45.7262 39.0626Z" fill="url(#paint0_linear_2421_24634)"/>
<path d="M51.2121 739.001L52.394 75.9956L51.2232 34.5471C51.6058 57.8929 60.2728 87.8231 78.7879 105.996L78.7879 739.001C78.7879 746.613 72.6148 752.784 65 752.784C57.3852 752.784 51.2121 746.613 51.2121 739.001Z" fill="url(#paint1_linear_2421_24634)"/>
<path d="M130 200.849C130 208.461 123.827 214.632 116.212 214.632C108.597 214.632 102.424 208.461 102.424 200.849C102.424 145.361 100.575 128.255 83.5181 110.862C81.9686 109.282 80.2505 107.514 78.7879 105.996C60.2728 87.8231 51.6058 57.8929 51.2232 34.5471L51.2121 33.8702L51.2121 13.7855C51.2121 6.17303 57.3852 0.00195226 65 0.00195235C72.6148 0.00195244 78.7879 6.17303 78.7879 13.7855L78.7879 32.6888C78.7879 50.8718 80.8798 60.6622 84.2738 67.8812C87.7687 75.3148 93.1967 81.3538 103.209 91.5634C129.408 118.278 130 147.643 130 200.849Z" fill="url(#paint2_linear_2421_24634)"/>
<defs>
<linearGradient id="paint0_linear_2421_24634" x1="94.9565" y1="698.663" x2="-260.496" y2="435.01" gradientUnits="userSpaceOnUse">
<stop stop-color="#319CFF"/>
<stop offset="1" stop-color="#BADEFF"/>
</linearGradient>
<linearGradient id="paint1_linear_2421_24634" x1="65.1131" y1="778.615" x2="65.113" y2="76.2642" gradientUnits="userSpaceOnUse">
<stop stop-color="#DBEEFF"/>
<stop offset="1" stop-color="#319CFF"/>
</linearGradient>
<linearGradient id="paint2_linear_2421_24634" x1="116.606" y1="193.688" x2="61.0932" y2="-30.4019" gradientUnits="userSpaceOnUse">
<stop stop-color="#319CFF"/>
<stop offset="1" stop-color="#B4DBFF"/>
</linearGradient>
</defs>
</svg>
