<svg width="20" height="20" viewBox="0 0 20 20" fill="none" xmlns="http://www.w3.org/2000/svg">
<path fill-rule="evenodd" clip-rule="evenodd" d="M10 20C15.5228 20 20 15.5228 20 10C20 4.47715 15.5228 0 10 0C4.47715 0 0 4.47715 0 10C0 15.5228 4.47715 20 10 20ZM6.95399 4.83188C7.87758 4.2876 8.93012 4.0007 10.0021 4.00101L10.0011 4C11.5924 4.00027 13.1184 4.63267 14.2434 5.75808C15.3684 6.88348 16.0003 8.40971 16 10.001C15.9997 11.5923 15.3673 13.1183 14.242 14.2434C13.1166 15.3684 11.5904 16.0003 9.99911 16H9.99607C8.92172 16.0001 7.86712 15.7112 6.94272 15.1638L6.72405 15.0342L4.45328 15.6295L5.05969 13.4164L4.91695 13.1896C4.34738 12.2813 4.03153 11.2371 4.00224 10.1655C3.97295 9.09382 4.23129 8.0339 4.75039 7.09592C5.2695 6.15793 6.03041 5.37616 6.95399 4.83188ZM13.0105 13.1321C13.22 12.9845 13.3966 12.7952 13.5293 12.5761C13.6473 12.3066 13.6839 12.0085 13.6346 11.7186C13.5996 11.6598 13.518 11.6203 13.3974 11.5621C13.3643 11.5461 13.3282 11.5286 13.2893 11.509C13.1091 11.4179 12.2213 10.9815 12.0563 10.9218C11.8912 10.8621 11.7718 10.8317 11.6513 11.0119C11.5308 11.1921 11.1856 11.5981 11.0803 11.7186C10.975 11.839 10.8698 11.8552 10.6896 11.7641C10.1576 11.5524 9.66667 11.2496 9.23881 10.8691C8.84447 10.5046 8.50637 10.0836 8.23554 9.61984C8.13126 9.43964 8.2244 9.34244 8.31551 9.25234C8.3672 9.20065 8.4259 9.12917 8.48529 9.05684C8.51896 9.01584 8.55286 8.97456 8.58582 8.93647C8.65992 8.84535 8.72061 8.7441 8.76602 8.63579C8.78995 8.58603 8.8011 8.53108 8.79845 8.47593C8.79579 8.42078 8.77943 8.36716 8.75084 8.31992C8.72439 8.26642 8.58657 7.93163 8.44717 7.59301C8.35181 7.36136 8.25571 7.12793 8.19403 6.98152C8.06511 6.66997 7.93461 6.67113 7.82913 6.67207C7.81533 6.67219 7.80196 6.67231 7.78908 6.67173C7.6838 6.66565 7.56333 6.66565 7.44388 6.66565H7.44385C7.35247 6.6681 7.26257 6.68942 7.17982 6.72828C7.09706 6.76713 7.02324 6.82267 6.96297 6.89142C6.75906 7.08441 6.59757 7.31777 6.48881 7.57661C6.38004 7.83545 6.32638 8.11411 6.33125 8.39484C6.39013 9.07495 6.64628 9.72308 7.06826 10.2597C7.84182 11.4188 8.90343 12.357 10.1489 12.982C10.4845 13.1269 10.8275 13.2539 11.1765 13.3627C11.5445 13.4743 11.9334 13.4986 12.3124 13.4336C12.5634 13.3823 12.8011 13.2797 13.0105 13.1321Z" fill="#319CFF"/>
</svg>
