<svg width="107" height="24" viewBox="0 0 107 24" fill="none" xmlns="http://www.w3.org/2000/svg">
<path d="M0 6.4C0 2.86538 2.86538 0 6.4 0H17.6C21.1346 0 24 2.86538 24 6.4V17.6C24 21.1346 21.1346 24 17.6 24H6.4C2.86538 24 0 21.1346 0 17.6V6.4Z" fill="#5656FF"/>
<path d="M16.1579 16.1143C16.5663 15.7108 16.8 15.2425 16.8 14.7429C16.8 13.228 14.651 12 12 12C9.34905 12 7.20001 13.228 7.20001 14.7429C7.20001 15.2425 7.43376 15.7108 7.84217 16.1143C8.67211 15.2944 10.2233 14.7429 12 14.7429C13.7767 14.7429 15.3279 15.2944 16.1579 16.1143Z" fill="url(#paint0_linear_1805_7525)"/>
<path d="M12 17.4857C14.651 17.4857 16.8 16.2576 16.8 14.7428V17.4857C16.8 19.0005 14.651 20.2285 12 20.2285C9.34905 20.2285 7.20001 19.0005 7.20001 17.4857V14.7428C7.20001 16.2576 9.34905 17.4857 12 17.4857Z" fill="url(#paint1_linear_1805_7525)"/>
<path d="M16.1579 12C16.5663 11.5966 16.8 11.1282 16.8 10.6286C16.8 9.11376 14.651 7.88574 12 7.88574C9.34905 7.88574 7.20001 9.11376 7.20001 10.6286C7.20001 11.1282 7.43376 11.5966 7.84217 12C8.67211 11.1802 10.2233 10.6286 12 10.6286C13.7767 10.6286 15.3279 11.1802 16.1579 12Z" fill="url(#paint2_linear_1805_7525)"/>
<path d="M12 13.3714C14.651 13.3714 16.8 12.1434 16.8 10.6285V13.3714C16.8 14.8862 14.651 16.1143 12 16.1143C9.34905 16.1143 7.20001 14.8862 7.20001 13.3714V10.6285C7.20001 12.1434 9.34905 13.3714 12 13.3714Z" fill="url(#paint3_linear_1805_7525)"/>
<path d="M16.1579 7.88577C16.5663 7.48233 16.8 7.01394 16.8 6.51434C16.8 4.9995 14.651 3.77148 12 3.77148C9.34905 3.77148 7.20001 4.9995 7.20001 6.51434C7.20001 7.01394 7.43376 7.48233 7.84217 7.88577C8.67211 7.06593 10.2233 6.51434 12 6.51434C13.7767 6.51434 15.3279 7.06593 16.1579 7.88577Z" fill="url(#paint4_linear_1805_7525)"/>
<path d="M12 9.25714C14.651 9.25714 16.8 8.02912 16.8 6.51428V9.25714C16.8 10.772 14.651 12 12 12C9.34905 12 7.20001 10.772 7.20001 9.25714V6.51428C7.20001 8.02912 9.34905 9.25714 12 9.25714Z" fill="url(#paint5_linear_1805_7525)"/>
<path d="M32 18.8243V6.35135H34.3254V16.6986H40.4253V18.8243H32Z" fill="#5656FF"/>
<path d="M41.6214 18.8243V9.61892H43.8794V18.8243H41.6214ZM41.6214 8.33649V6H43.8794V8.33649H41.6214Z" fill="#5656FF"/>
<path d="M48.2923 18.8243L45.0401 9.61892H47.3823L49.6066 16.6811L51.8477 9.61892H53.9877L50.7524 18.8243H48.2923Z" fill="#5656FF"/>
<path d="M58.9793 19C58.2716 19 57.6313 18.877 57.0584 18.6311C56.4854 18.3734 55.9968 18.0279 55.5924 17.5946C55.188 17.1495 54.8734 16.6459 54.6487 16.0838C54.4353 15.5099 54.3286 14.9068 54.3286 14.2743C54.3286 13.3959 54.5139 12.5937 54.8846 11.8676C55.2666 11.1414 55.8058 10.5617 56.5023 10.1284C57.21 9.68333 58.0413 9.46081 58.9962 9.46081C59.9623 9.46081 60.788 9.68333 61.4732 10.1284C62.1585 10.5617 62.6808 11.1414 63.0403 11.8676C63.411 12.582 63.5964 13.355 63.5964 14.1865C63.5964 14.327 63.5908 14.4734 63.5795 14.6257C63.5683 14.7662 63.5571 14.8833 63.5458 14.977H56.7214C56.7663 15.4455 56.8955 15.8554 57.1089 16.2068C57.3336 16.5581 57.6144 16.8275 57.9514 17.0149C58.2997 17.1905 58.6704 17.2784 59.0636 17.2784C59.5129 17.2784 59.9342 17.1671 60.3274 16.9446C60.7318 16.7104 61.007 16.4059 61.153 16.0311L63.0909 16.5932C62.8774 17.0617 62.5685 17.4775 62.1641 17.8405C61.7709 18.2036 61.3047 18.4905 60.7655 18.7014C60.2263 18.9005 59.6309 19 58.9793 19ZM56.6708 13.4838H61.2879C61.2429 13.0153 61.1137 12.6113 60.9003 12.2716C60.6981 11.9203 60.4285 11.6509 60.0915 11.4635C59.7545 11.2644 59.3781 11.1649 58.9625 11.1649C58.5581 11.1649 58.1873 11.2644 57.8503 11.4635C57.5246 11.6509 57.255 11.9203 57.0415 12.2716C56.8393 12.6113 56.7157 13.0153 56.6708 13.4838Z" fill="#5656FF"/>
<path d="M72.4766 8.47703H68.6515V18.8243H66.343V8.47703H62.5179V6.35135H72.4766V8.47703Z" fill="#5656FF"/>
<path d="M78.1609 11.6568C77.4757 11.6568 76.8634 11.7973 76.3242 12.0784C75.785 12.3477 75.3974 12.7401 75.1615 13.2554V18.8243H72.9035V9.61892H74.9762V11.5865C75.2907 10.9541 75.6895 10.4563 76.1726 10.0932C76.6556 9.73018 77.1667 9.53108 77.706 9.49595C77.8295 9.49595 77.925 9.49595 77.9924 9.49595C78.0598 9.49595 78.116 9.5018 78.1609 9.51351V11.6568Z" fill="#5656FF"/>
<path d="M78.764 16.1014C78.764 15.5041 78.9213 14.9829 79.2358 14.5378C79.5616 14.0811 80.0109 13.7297 80.5839 13.4838C81.1568 13.2378 81.8139 13.1149 82.5554 13.1149C82.9261 13.1149 83.3024 13.1441 83.6844 13.2027C84.0663 13.2613 84.3977 13.355 84.6785 13.4838V12.9919C84.6785 12.4063 84.51 11.9554 84.173 11.6392C83.8472 11.323 83.3586 11.1649 82.707 11.1649C82.224 11.1649 81.7634 11.2527 81.3253 11.4284C80.8872 11.6041 80.4266 11.8617 79.9435 12.2014L79.219 10.6554C79.8031 10.2572 80.3985 9.95856 81.0051 9.75946C81.623 9.56036 82.2689 9.46081 82.9429 9.46081C84.2011 9.46081 85.1784 9.78874 85.8749 10.4446C86.5827 11.1005 86.9365 12.0374 86.9365 13.2554V16.1892C86.9365 16.4351 86.9758 16.6108 87.0545 16.7162C87.1443 16.8216 87.2848 16.886 87.4757 16.9095V18.8243C87.2735 18.8595 87.0882 18.8887 86.9197 18.9122C86.7624 18.9356 86.6276 18.9473 86.5152 18.9473C86.0659 18.9473 85.7233 18.8419 85.4874 18.6311C85.2627 18.4203 85.1223 18.1626 85.0661 17.8581L85.0155 17.3838C84.6336 17.8991 84.1562 18.2973 83.5833 18.5784C83.0103 18.8595 82.4262 19 81.8308 19C81.2466 19 80.7187 18.877 80.2468 18.6311C79.7863 18.3734 79.4212 18.0279 79.1516 17.5946C78.8932 17.1495 78.764 16.6518 78.764 16.1014ZM84.2573 16.5757C84.3808 16.4351 84.4819 16.2946 84.5606 16.1541C84.6392 16.0135 84.6785 15.8847 84.6785 15.7676V14.8365C84.4089 14.7194 84.1169 14.6315 83.8023 14.573C83.4878 14.5027 83.1901 14.4676 82.9092 14.4676C82.3251 14.4676 81.842 14.6023 81.4601 14.8716C81.0894 15.1293 80.904 15.4748 80.904 15.9081C80.904 16.1423 80.9658 16.3649 81.0894 16.5757C81.2129 16.7865 81.3927 16.9563 81.6286 17.0851C81.8645 17.214 82.1453 17.2784 82.4711 17.2784C82.8081 17.2784 83.1395 17.214 83.4653 17.0851C83.7911 16.9446 84.0551 16.7748 84.2573 16.5757Z" fill="#5656FF"/>
<path d="M93.1581 19C92.4391 19 91.7932 18.877 91.2202 18.6311C90.6473 18.3734 90.1587 18.0221 89.7542 17.577C89.3498 17.1203 89.0353 16.605 88.8106 16.0311C88.5972 15.4572 88.4905 14.8541 88.4905 14.2216C88.4905 13.355 88.6758 12.5644 89.0465 11.85C89.4285 11.1239 89.9677 10.5441 90.6642 10.1108C91.3607 9.67748 92.1863 9.46081 93.1412 9.46081C94.0961 9.46081 94.9161 9.67748 95.6014 10.1108C96.2866 10.5441 96.7978 11.1122 97.1348 11.8149L94.9274 12.5176C94.7364 12.1779 94.4836 11.9203 94.1691 11.7446C93.8545 11.5572 93.5063 11.4635 93.1244 11.4635C92.6975 11.4635 92.3043 11.5806 91.9448 11.8149C91.5966 12.0374 91.3213 12.3595 91.1191 12.7811C90.9169 13.191 90.8158 13.6712 90.8158 14.2216C90.8158 14.7604 90.9169 15.2405 91.1191 15.6622C91.3326 16.0721 91.6134 16.4 91.9617 16.6459C92.3099 16.8802 92.6975 16.9973 93.1244 16.9973C93.394 16.9973 93.6467 16.9505 93.8826 16.8568C94.1298 16.7631 94.3488 16.6342 94.5398 16.4703C94.7308 16.3063 94.8712 16.1189 94.9611 15.9081L97.1685 16.6108C96.9663 17.0676 96.6686 17.4775 96.2754 17.8405C95.8935 18.2036 95.4385 18.4905 94.9105 18.7014C94.3938 18.9005 93.8096 19 93.1581 19Z" fill="#5656FF"/>
<path d="M104.59 18.8243L102.012 14.8541L100.816 16.0838V18.8243H98.5579V6H100.816V13.7649L104.371 9.63649H106.764L103.478 13.5365L107 18.8243H104.59Z" fill="#5656FF"/>
<defs>
<linearGradient id="paint0_linear_1805_7525" x1="12" y1="12" x2="12" y2="15.7714" gradientUnits="userSpaceOnUse">
<stop stop-color="#7979FF"/>
<stop offset="1" stop-color="#4A4AFF"/>
</linearGradient>
<linearGradient id="paint1_linear_1805_7525" x1="12" y1="16.3428" x2="12" y2="20.2285" gradientUnits="userSpaceOnUse">
<stop stop-color="white" stop-opacity="0.9"/>
<stop offset="1" stop-color="#9595FF"/>
</linearGradient>
<linearGradient id="paint2_linear_1805_7525" x1="12" y1="7.88574" x2="12" y2="11.6572" gradientUnits="userSpaceOnUse">
<stop stop-color="#7979FF"/>
<stop offset="1" stop-color="#4A4AFF"/>
</linearGradient>
<linearGradient id="paint3_linear_1805_7525" x1="12" y1="12.2285" x2="12" y2="16.1143" gradientUnits="userSpaceOnUse">
<stop stop-color="white" stop-opacity="0.9"/>
<stop offset="1" stop-color="#9595FF"/>
</linearGradient>
<linearGradient id="paint4_linear_1805_7525" x1="12" y1="3.77148" x2="12" y2="7.54291" gradientUnits="userSpaceOnUse">
<stop stop-color="#8F8FFF"/>
<stop offset="1" stop-color="#4A4AFF"/>
</linearGradient>
<linearGradient id="paint5_linear_1805_7525" x1="12" y1="8.11428" x2="12" y2="12" gradientUnits="userSpaceOnUse">
<stop stop-color="white"/>
<stop offset="1" stop-color="#9393FF"/>
</linearGradient>
</defs>
</svg>
