<svg width="105" height="36" viewBox="0 0 105 36" fill="none" xmlns="http://www.w3.org/2000/svg">
<path d="M11.1457 23.7037V26.0823H1.45464V12.1256H10.9688V14.5041H4.16735V17.8655H10.0449V20.0671H4.16735V23.7037H11.1457ZM22.5205 26.0823H19.8864V20.303C19.8864 19.4774 19.7423 18.8746 19.454 18.4946C19.1657 18.1145 18.766 17.9245 18.2549 17.9245C17.901 17.9245 17.5406 18.0162 17.1737 18.1997C16.8199 18.3832 16.4988 18.6387 16.2105 18.9663C15.9222 19.2809 15.7125 19.6478 15.5815 20.0671V26.0823H12.9474V15.7819H15.3259V17.6886C15.588 17.243 15.9222 16.8696 16.3285 16.5681C16.7347 16.2536 17.1999 16.0177 17.7241 15.8605C18.2614 15.6901 18.8249 15.6049 19.4146 15.6049C20.0568 15.6049 20.581 15.7229 20.9872 15.9588C21.4066 16.1816 21.7211 16.4895 21.9308 16.8827C22.1536 17.2627 22.3043 17.6952 22.3829 18.18C22.4746 18.6649 22.5205 19.1564 22.5205 19.6543V26.0823ZM30.9257 25.5515C30.7029 25.6433 30.4342 25.7481 30.1197 25.866C29.8052 25.984 29.4645 26.0757 29.0975 26.1412C28.7437 26.2199 28.3833 26.2592 28.0164 26.2592C27.5315 26.2592 27.086 26.174 26.6797 26.0036C26.2735 25.8333 25.9458 25.5646 25.6968 25.1977C25.461 24.8177 25.343 24.3262 25.343 23.7234V17.8066H23.9867V15.7819H25.343V12.4401H27.9771V15.7819H30.1394V17.8066H27.9771V22.8388C27.9902 23.1927 28.0885 23.4482 28.2719 23.6055C28.4554 23.7627 28.6847 23.8413 28.9599 23.8413C29.2352 23.8413 29.5038 23.7955 29.7659 23.7037C30.028 23.612 30.2377 23.5334 30.3949 23.4679L30.9257 25.5515ZM32.5531 26.0823V12.1256H38.4699C39.1121 12.1256 39.7018 12.2566 40.2391 12.5187C40.7764 12.7808 41.2416 13.1347 41.6348 13.5802C42.041 14.0258 42.3555 14.5238 42.5783 15.0742C42.8011 15.6246 42.9125 16.1881 42.9125 16.7647C42.9125 17.551 42.729 18.298 42.3621 19.0057C41.9951 19.7133 41.4906 20.2899 40.8485 20.7355C40.2063 21.1811 39.4462 21.4038 38.5682 21.4038H35.2658V26.0823H32.5531ZM35.2658 19.0253H38.411C38.7386 19.0253 39.0334 18.9336 39.2955 18.7501C39.5576 18.5666 39.7673 18.3045 39.9246 17.9638C40.0818 17.61 40.1605 17.2103 40.1605 16.7647C40.1605 16.2798 40.0687 15.867 39.8853 15.5263C39.7149 15.1856 39.4856 14.93 39.1972 14.7597C38.922 14.5893 38.6206 14.5041 38.293 14.5041H35.2658V19.0253ZM43.7029 23.0354C43.7029 22.367 43.8864 21.7839 44.2533 21.2859C44.6334 20.7748 45.1576 20.3817 45.8259 20.1065C46.4943 19.8313 47.2609 19.6937 48.1258 19.6937C48.5583 19.6937 48.9973 19.7264 49.4428 19.7919C49.8884 19.8575 50.275 19.9623 50.6026 20.1065V19.5561C50.6026 18.9008 50.4061 18.3963 50.0129 18.0424C49.6329 17.6886 49.0628 17.5117 48.3027 17.5117C47.7392 17.5117 47.2019 17.61 46.6908 17.8066C46.1797 18.0031 45.6424 18.2914 45.0789 18.6715L44.2337 16.9416C44.9151 16.4961 45.6097 16.1619 46.3173 15.9391C47.0381 15.7163 47.7916 15.6049 48.5779 15.6049C50.0457 15.6049 51.1858 15.9719 51.9983 16.7057C52.8239 17.4396 53.2367 18.488 53.2367 19.8509V23.1337C53.2367 23.4089 53.2826 23.6055 53.3743 23.7234C53.4791 23.8413 53.643 23.9134 53.8657 23.9396V26.0823C53.6298 26.1216 53.4136 26.1544 53.217 26.1806C53.0336 26.2068 52.8763 26.2199 52.7453 26.2199C52.2211 26.2199 51.8214 26.1019 51.5462 25.866C51.2841 25.6302 51.1203 25.3419 51.0547 25.0011L50.9958 24.4704C50.5502 25.047 49.9932 25.4926 49.3249 25.8071C48.6566 26.1216 47.9751 26.2788 47.2805 26.2788C46.5991 26.2788 45.9832 26.1412 45.4328 25.866C44.8955 25.5777 44.4695 25.1911 44.155 24.7063C43.8536 24.2083 43.7029 23.6513 43.7029 23.0354ZM50.1112 23.5661C50.2553 23.4089 50.3733 23.2516 50.465 23.0944C50.5568 22.9371 50.6026 22.793 50.6026 22.6619V21.6201C50.2881 21.489 49.9474 21.3907 49.5804 21.3252C49.2135 21.2466 48.8662 21.2073 48.5386 21.2073C47.8572 21.2073 47.2936 21.358 46.8481 21.6594C46.4156 21.9477 46.1994 22.3343 46.1994 22.8192C46.1994 23.0813 46.2715 23.3303 46.4156 23.5661C46.5598 23.802 46.7695 23.9921 47.0447 24.1362C47.3199 24.2804 47.6475 24.3524 48.0275 24.3524C48.4207 24.3524 48.8073 24.2804 49.1873 24.1362C49.5673 23.9789 49.8753 23.7889 50.1112 23.5661ZM61.7746 25.5515C61.5518 25.6433 61.2831 25.7481 60.9686 25.866C60.6541 25.984 60.3134 26.0757 59.9464 26.1412C59.5926 26.2199 59.2322 26.2592 58.8653 26.2592C58.3804 26.2592 57.9348 26.174 57.5286 26.0036C57.1223 25.8333 56.7947 25.5646 56.5457 25.1977C56.3098 24.8177 56.1919 24.3262 56.1919 23.7234V17.8066H54.8355V15.7819H56.1919V12.4401H58.826V15.7819H60.9883V17.8066H58.826V22.8388C58.8391 23.1927 58.9374 23.4482 59.1208 23.6055C59.3043 23.7627 59.5336 23.8413 59.8088 23.8413C60.084 23.8413 60.3527 23.7955 60.6148 23.7037C60.8769 23.612 61.0866 23.5334 61.2438 23.4679L61.7746 25.5515ZM72.7195 26.0823H70.0855V20.303C70.0855 19.5036 69.9282 18.9074 69.6137 18.5142C69.3123 18.1211 68.8929 17.9245 68.3556 17.9245C68.0411 17.9245 67.7069 18.0162 67.3531 18.1997C66.9993 18.3832 66.6782 18.6387 66.3899 18.9663C66.1147 19.2809 65.9116 19.6478 65.7805 20.0671V26.0823H63.1464V11.7325H65.7805V17.6886C66.1606 17.0334 66.6782 16.5223 67.3334 16.1553C67.9887 15.7884 68.7029 15.6049 69.4761 15.6049C70.1444 15.6049 70.6883 15.7229 71.1076 15.9588C71.527 16.1816 71.8546 16.4895 72.0905 16.8827C72.3264 17.2627 72.4902 17.6952 72.5819 18.18C72.6737 18.6518 72.7195 19.1433 72.7195 19.6543V26.0823Z" fill="#0F0F1A"/>
<path d="M54.799 9.54252C54.3701 9.54252 54.0163 9.43888 53.7375 9.23158C53.4587 9.02429 53.2586 8.75266 53.1371 8.4167L52.9226 9.4353H51.8826L53.5445 1.60813H54.7239L54.0377 4.88911C54.3094 4.53885 54.6274 4.26007 54.992 4.05278C55.3565 3.83834 55.739 3.73111 56.1393 3.73111C56.5467 3.73111 56.8862 3.83834 57.1579 4.05278C57.4295 4.26007 57.6332 4.53528 57.769 4.87839C57.912 5.22149 57.9835 5.59677 57.9835 6.00421C57.9835 6.48314 57.8941 6.93704 57.7154 7.36593C57.5439 7.78766 57.3044 8.16294 56.997 8.49175C56.6968 8.82057 56.3573 9.0779 55.9784 9.26375C55.5996 9.4496 55.2064 9.54252 54.799 9.54252ZM54.7347 8.53464C54.992 8.53464 55.2386 8.47388 55.4745 8.35236C55.7175 8.2237 55.932 8.05214 56.1178 7.8377C56.3108 7.61611 56.4609 7.3695 56.5682 7.09787C56.6825 6.8191 56.7397 6.5296 56.7397 6.22938C56.7397 5.9649 56.6932 5.72186 56.6003 5.50027C56.5074 5.27153 56.3752 5.08925 56.2036 4.95344C56.032 4.81048 55.8176 4.739 55.5603 4.739C55.3458 4.739 55.1278 4.79618 54.9062 4.91055C54.6918 5.01777 54.4916 5.16431 54.3058 5.35016C54.1199 5.52886 53.9555 5.72901 53.8126 5.9506L53.4909 7.43026C53.5052 7.63755 53.5695 7.82698 53.6839 7.99853C53.7983 8.16294 53.9448 8.29518 54.1235 8.39525C54.3094 8.48818 54.5131 8.53464 54.7347 8.53464ZM60.8299 9.54252C60.3581 9.54252 59.9542 9.43888 59.6183 9.23158C59.2823 9.02429 59.025 8.74194 58.8463 8.38453C58.6747 8.02713 58.5889 7.62326 58.5889 7.17293C58.5889 6.7083 58.6747 6.27227 58.8463 5.86482C59.0178 5.45023 59.2609 5.08211 59.5754 4.76044C59.8899 4.43878 60.2545 4.18859 60.669 4.00989C61.0908 3.82404 61.5483 3.73111 62.0415 3.73111C62.4275 3.73111 62.7634 3.79187 63.0494 3.91339C63.3424 4.02776 63.5676 4.19932 63.7249 4.42806C63.8893 4.64965 63.9715 4.932 63.9715 5.27511C63.9715 5.84695 63.7106 6.28299 63.1887 6.58321C62.6741 6.88343 61.8878 7.03354 60.8299 7.03354C60.6297 7.03354 60.4046 7.02997 60.1544 7.02282C59.9042 7.00852 59.6218 6.98708 59.3073 6.95848L59.4682 6.19721C59.7541 6.21151 60.0078 6.2258 60.2294 6.2401C60.451 6.2544 60.6583 6.26154 60.8513 6.26154C61.3588 6.26154 61.7591 6.22223 62.0522 6.1436C62.3453 6.06497 62.5561 5.95418 62.6848 5.81121C62.8135 5.6611 62.8778 5.49312 62.8778 5.30727C62.8778 5.14287 62.8385 5.01063 62.7599 4.91055C62.6812 4.81048 62.5704 4.73542 62.4275 4.68539C62.2845 4.6282 62.113 4.59961 61.9128 4.59961C61.5983 4.59961 61.3088 4.67109 61.0443 4.81405C60.7798 4.94987 60.5511 5.14287 60.3581 5.39305C60.1722 5.63608 60.0257 5.91129 59.9185 6.21866C59.8184 6.52602 59.7684 6.85126 59.7684 7.19437C59.7684 7.466 59.8113 7.71618 59.897 7.94492C59.99 8.16651 60.1294 8.34522 60.3152 8.48103C60.5082 8.6097 60.7477 8.67403 61.0336 8.67403C61.341 8.67403 61.6376 8.59897 61.9235 8.44886C62.2095 8.29161 62.4346 8.08074 62.599 7.81626L63.5319 8.10576C63.3532 8.38453 63.1208 8.63471 62.8349 8.85631C62.549 9.07075 62.2309 9.23873 61.8806 9.36025C61.5375 9.48177 61.1873 9.54252 60.8299 9.54252ZM64.6793 8.59897C64.6793 8.54179 64.6829 8.4846 64.69 8.42742C64.6972 8.37024 64.7079 8.30948 64.7222 8.24514L65.4727 4.739H64.7544L64.9581 3.82761H65.655L66.0517 1.9834H67.2312L66.8344 3.82761H67.9924L67.7994 4.739H66.6522L65.9874 7.86987C65.9803 7.89846 65.9731 7.92705 65.966 7.95564C65.966 7.97709 65.966 8.00211 65.966 8.0307C65.966 8.17366 66.0053 8.27731 66.0839 8.34164C66.1697 8.40598 66.2769 8.43814 66.4056 8.43814C66.5128 8.43814 66.6164 8.42385 66.7165 8.39525C66.8237 8.36666 66.9202 8.33807 67.006 8.30948C67.0918 8.27374 67.1633 8.24157 67.2204 8.21298L67.2633 9.1458C67.1561 9.21014 67.0203 9.27447 66.8559 9.3388C66.6986 9.39599 66.5271 9.43888 66.3412 9.46747C66.1554 9.50321 65.9624 9.52108 65.7622 9.52108C65.4549 9.52108 65.1975 9.4496 64.9902 9.30664C64.7829 9.15653 64.6793 8.92064 64.6793 8.59897ZM70.122 9.54252C69.7074 9.54252 69.35 9.43888 69.0497 9.23158C68.7495 9.02429 68.5208 8.74551 68.3635 8.39525C68.2063 8.045 68.1276 7.65542 68.1276 7.22654C68.1276 6.76906 68.2098 6.33303 68.3743 5.91843C68.5387 5.4967 68.7638 5.125 69.0497 4.80333C69.3428 4.47452 69.6752 4.21361 70.0469 4.02061C70.4186 3.82761 70.8082 3.73111 71.2156 3.73111C71.6231 3.73111 71.9662 3.84191 72.245 4.0635C72.5237 4.28509 72.7167 4.56029 72.8239 4.88911L73.0491 3.83834H74.2393L73.3386 8.04142C73.3315 8.07716 73.3243 8.10933 73.3172 8.13792C73.3172 8.15937 73.3172 8.18081 73.3172 8.20225C73.3172 8.34522 73.3994 8.42027 73.5638 8.42742L73.3493 9.4353C73.2493 9.4496 73.1599 9.46032 73.0813 9.46747C73.0027 9.48177 72.9312 9.48891 72.8668 9.48891C72.6452 9.48891 72.4737 9.44245 72.3522 9.34953C72.2307 9.24945 72.1699 9.11006 72.1699 8.93136C72.1699 8.89562 72.1699 8.85273 72.1699 8.8027C72.177 8.75266 72.1842 8.69547 72.1913 8.63114C72.2056 8.56681 72.2235 8.49533 72.245 8.4167C71.9662 8.7741 71.6338 9.05288 71.2478 9.25303C70.8689 9.44602 70.4937 9.54252 70.122 9.54252ZM70.6366 8.53464C70.7796 8.53464 70.9297 8.50605 71.087 8.44886C71.2514 8.39168 71.4086 8.31305 71.5587 8.21298C71.716 8.1129 71.859 7.99496 71.9876 7.85915C72.1163 7.72333 72.2199 7.5768 72.2986 7.41954L72.5988 5.9506C72.5702 5.72186 72.4951 5.51814 72.3736 5.33944C72.2521 5.15359 72.102 5.00705 71.9233 4.89983C71.7517 4.79261 71.5659 4.739 71.3657 4.739C71.0941 4.739 70.8368 4.8069 70.5937 4.94272C70.3579 5.07138 70.147 5.24651 69.9611 5.4681C69.7824 5.6897 69.6395 5.93631 69.5322 6.20793C69.425 6.47956 69.3714 6.75476 69.3714 7.03354C69.3714 7.31946 69.4214 7.57322 69.5215 7.79481C69.6287 8.0164 69.7753 8.19511 69.9611 8.33092C70.1541 8.46673 70.3793 8.53464 70.6366 8.53464Z" fill="#FF7171"/>
<path fill-rule="evenodd" clip-rule="evenodd" d="M98.769 9.08228C99.5884 9.08228 100.253 9.7219 100.253 10.5109C100.253 11.2999 99.5884 11.9396 98.769 11.9396C92.7967 11.9396 90.9556 12.1312 89.0836 13.8985C88.0207 14.902 87.1001 16.2403 85.8206 17.7335C84.8746 18.8376 84.7528 19.3051 82.9193 19.3277C81.7774 20.6705 82.0983 22.185 80.5424 22.185C79.723 22.185 79.0588 21.5454 79.0588 20.7563C79.0588 19.9673 79.723 19.3277 80.5424 19.3277C82.4995 19.3277 83.35 16.2779 84.6176 14.5925C85.4699 13.4594 85.9075 12.8957 87.0064 11.8582C89.8818 9.14357 93.0424 9.08228 98.769 9.08228ZM90.4672 19.3277C90.6306 19.1762 90.821 18.9981 90.991 18.8376C90.8148 19.0039 90.6409 19.1676 90.4672 19.3277ZM86.492 22.7534C85.715 22.4017 85.2353 22.0529 82.777 22.1838L89.8572 22.0625C90.5372 22.0686 90.812 22.3855 90.9821 22.5464C91.0319 22.5936 91.0783 22.6374 91.1182 22.6751C92.9902 24.4425 94.8313 24.6341 100.804 24.6341C101.623 24.6341 102.287 25.2737 102.287 26.0627C102.287 26.8518 101.623 27.4914 100.804 27.4914C95.077 27.4914 91.9164 27.4301 89.041 24.7154C87.9421 23.678 87.2921 23.1155 86.492 22.7534ZM80.5424 19.3277C81.5151 19.3277 81.7517 21.1641 82.777 22.1838C84.6176 22.1548 84.3233 21.9138 85.5379 23.6367C86.3616 24.8051 86.4558 25.1346 87.0064 25.7886C88.1136 27.1035 87.9188 26.8928 89.0836 27.7366C91.5956 29.5563 92.7967 29.6956 98.769 29.6956C99.5884 29.6956 100.253 30.3352 100.253 31.1242C100.253 31.9132 99.5884 32.5529 98.769 32.5529C93.0424 32.5529 89.8818 32.4916 87.0064 29.7769C85.9075 28.7394 85.3103 28.0455 84.6176 26.994C83.7514 25.6791 82.7647 23.2882 80.5424 22.185C79.723 22.185 79.0588 21.5454 79.0588 20.7563C79.0588 19.9673 79.723 19.3277 80.5424 19.3277Z" fill="url(#paint0_linear_2939_489)"/>
<path d="M103.516 22.185L89.8572 22.0625L82.777 22.1838C85.2898 22.1442 88.5112 21.2462 90.4672 19.3277H103.516C104.336 19.3277 105 19.9673 105 20.7563C105 21.5454 104.336 22.185 103.516 22.185Z" fill="url(#paint1_linear_2939_489)"/>
<path d="M100.676 14.0213C101.496 14.0213 102.16 14.6609 102.16 15.45C102.16 16.239 101.496 16.8786 100.676 16.8786C94.7042 16.8786 92.863 17.0702 90.991 18.8376C90.821 18.9981 90.6306 19.1762 90.4672 19.3277C88.5112 21.2462 85.2898 22.1442 82.777 22.1838L80.5424 22.185C79.723 22.185 79.0588 21.5454 79.0588 20.7563C79.0588 19.9673 79.723 19.3277 80.5424 19.3277H83.8564C85.8135 19.3277 85.5878 19.1109 86.3648 18.7593C87.1649 18.3971 87.8149 17.8347 88.9138 16.7973C91.7892 14.0826 94.9498 14.0213 100.676 14.0213Z" fill="url(#paint2_linear_2939_489)"/>
<defs>
<linearGradient id="paint0_linear_2939_489" x1="103.135" y1="15.4091" x2="79.1253" y2="21.5875" gradientUnits="userSpaceOnUse">
<stop stop-color="#319CFF"/>
<stop offset="1" stop-color="#BEE0FF"/>
</linearGradient>
<linearGradient id="paint1_linear_2939_489" x1="105.89" y1="20.7972" x2="81.6868" y2="20.7972" gradientUnits="userSpaceOnUse">
<stop stop-color="#CEE8FF"/>
<stop offset="1" stop-color="#319CFF"/>
</linearGradient>
<linearGradient id="paint2_linear_2939_489" x1="103.135" y1="15.4091" x2="79.1253" y2="21.5875" gradientUnits="userSpaceOnUse">
<stop stop-color="#319CFF"/>
<stop offset="1" stop-color="#BDDFFF"/>
</linearGradient>
</defs>
</svg>
