<svg width="14" height="16" viewBox="0 0 14 16" fill="none" xmlns="http://www.w3.org/2000/svg">
<path fill-rule="evenodd" clip-rule="evenodd" d="M4.33337 0.666504C4.70156 0.666504 5.00004 0.964981 5.00004 1.33317V1.99984H9.00004V1.33317C9.00004 0.964981 9.29852 0.666504 9.66671 0.666504C10.0349 0.666504 10.3334 0.964981 10.3334 1.33317V2.00092C10.6504 2.0031 10.9274 2.00965 11.1679 2.0293C11.5427 2.05992 11.8871 2.12563 12.2107 2.29049C12.7124 2.54615 13.1204 2.9541 13.3761 3.45586C13.5409 3.77942 13.6066 4.12389 13.6372 4.49862C13.6667 4.85941 13.6667 5.30231 13.6667 5.83895V11.4941C13.6667 12.0307 13.6667 12.4736 13.6372 12.8344C13.6066 13.2091 13.5409 13.5536 13.3761 13.8771C13.1204 14.3789 12.7124 14.7869 12.2107 15.0425C11.8871 15.2074 11.5427 15.2731 11.1679 15.3037C10.8071 15.3332 10.3642 15.3332 9.82759 15.3332H4.17249C3.63585 15.3332 3.19295 15.3332 2.83216 15.3037C2.45743 15.2731 2.11296 15.2074 1.7894 15.0425C1.28763 14.7869 0.879686 14.3789 0.624024 13.8771C0.459163 13.5536 0.393454 13.2091 0.362837 12.8344C0.333359 12.4736 0.333366 12.0307 0.333374 11.494V5.83897C0.333366 5.30232 0.333359 4.85942 0.362837 4.49862C0.393454 4.12389 0.459163 3.77942 0.624024 3.45586C0.879686 2.9541 1.28763 2.54615 1.7894 2.29049C2.11296 2.12563 2.45743 2.05992 2.83216 2.0293C3.0727 2.00965 3.34973 2.0031 3.66671 2.00092V1.33317C3.66671 0.964981 3.96518 0.666504 4.33337 0.666504ZM3.66671 3.33435C3.36969 3.33643 3.13646 3.34221 2.94073 3.3582C2.64846 3.38208 2.49899 3.42537 2.39472 3.4785C2.14384 3.60633 1.93986 3.8103 1.81203 4.06118C1.75891 4.16545 1.71562 4.31492 1.69174 4.6072C1.66723 4.90725 1.66671 5.29545 1.66671 5.8665V5.99984H12.3334V5.8665C12.3334 5.29545 12.3329 4.90726 12.3083 4.6072C12.2845 4.31492 12.2412 4.16545 12.188 4.06118C12.0602 3.8103 11.8562 3.60633 11.6054 3.4785C11.5011 3.42537 11.3516 3.38208 11.0593 3.3582C10.8636 3.34221 10.6304 3.33643 10.3334 3.33435V3.99984C10.3334 4.36803 10.0349 4.6665 9.66671 4.6665C9.29852 4.6665 9.00004 4.36803 9.00004 3.99984V3.33317H5.00004V3.99984C5.00004 4.36803 4.70156 4.6665 4.33337 4.6665C3.96518 4.6665 3.66671 4.36803 3.66671 3.99984V3.33435ZM12.3334 7.33317H1.66671V11.4665C1.66671 12.0376 1.66723 12.4258 1.69174 12.7258C1.71562 13.0181 1.75891 13.1676 1.81203 13.2718C1.93986 13.5227 2.14384 13.7267 2.39472 13.8545C2.49899 13.9076 2.64846 13.9509 2.94073 13.9748C3.24079 13.9993 3.62899 13.9998 4.20004 13.9998H9.80004C10.3711 13.9998 10.7593 13.9993 11.0593 13.9748C11.3516 13.9509 11.5011 13.9076 11.6054 13.8545C11.8562 13.7267 12.0602 13.5227 12.188 13.2718C12.2412 13.1676 12.2845 13.0181 12.3083 12.7258C12.3329 12.4258 12.3334 12.0376 12.3334 11.4665V7.33317Z" fill="#9A9AA0"/>
</svg>
