<svg width="16" height="16" viewBox="0 0 16 16" fill="none" xmlns="http://www.w3.org/2000/svg">
<path fill-rule="evenodd" clip-rule="evenodd" d="M7.99984 1.99984C4.68613 1.99984 1.99984 4.68613 1.99984 7.99984C1.99984 11.3135 4.68613 13.9998 7.99984 13.9998C11.3135 13.9998 13.9998 11.3135 13.9998 7.99984C13.9998 4.68613 11.3135 1.99984 7.99984 1.99984ZM0.666504 7.99984C0.666504 3.94975 3.94975 0.666504 7.99984 0.666504C12.0499 0.666504 15.3332 3.94975 15.3332 7.99984C15.3332 12.0499 12.0499 15.3332 7.99984 15.3332C3.94975 15.3332 0.666504 12.0499 0.666504 7.99984ZM7.99984 3.33317C8.36803 3.33317 8.6665 3.63165 8.6665 3.99984V7.58781L10.9646 8.73689C11.294 8.90154 11.4274 9.30199 11.2628 9.63131C11.0981 9.96063 10.6977 10.0941 10.3684 9.92945L7.70169 8.59612C7.47584 8.48319 7.33317 8.25235 7.33317 7.99984V3.99984C7.33317 3.63165 7.63165 3.33317 7.99984 3.33317Z" fill="#9A9AA0"/>
</svg>
