<svg width="24" height="24" viewBox="0 0 24 24" fill="none" xmlns="http://www.w3.org/2000/svg">
<path d="M0 6.4C0 2.86538 2.86538 0 6.4 0H17.6C21.1346 0 24 2.86538 24 6.4V17.6C24 21.1346 21.1346 24 17.6 24H6.4C2.86538 24 0 21.1346 0 17.6V6.4Z" fill="#5656FF"/>
<path d="M16.158 16.1143C16.5664 15.7108 16.8002 15.2425 16.8002 14.7429C16.8002 13.228 14.6512 12 12.0002 12C9.34923 12 7.2002 13.228 7.2002 14.7429C7.2002 15.2425 7.43394 15.7108 7.84235 16.1143C8.67229 15.2944 10.2235 14.7429 12.0002 14.7429C13.7769 14.7429 15.3281 15.2944 16.158 16.1143Z" fill="url(#paint0_linear_1738_6626)"/>
<path d="M12.0002 17.4855C14.6512 17.4855 16.8002 16.2575 16.8002 14.7427V17.4855C16.8002 19.0004 14.6512 20.2284 12.0002 20.2284C9.34923 20.2284 7.2002 19.0004 7.2002 17.4855V14.7427C7.2002 16.2575 9.34923 17.4855 12.0002 17.4855Z" fill="url(#paint1_linear_1738_6626)"/>
<path d="M16.158 12C16.5664 11.5966 16.8002 11.1282 16.8002 10.6286C16.8002 9.11376 14.6512 7.88574 12.0002 7.88574C9.34923 7.88574 7.2002 9.11376 7.2002 10.6286C7.2002 11.1282 7.43394 11.5966 7.84235 12C8.67229 11.1802 10.2235 10.6286 12.0002 10.6286C13.7769 10.6286 15.3281 11.1802 16.158 12Z" fill="url(#paint2_linear_1738_6626)"/>
<path d="M12.0002 13.3713C14.6512 13.3713 16.8002 12.1433 16.8002 10.6284V13.3713C16.8002 14.8861 14.6512 16.1141 12.0002 16.1141C9.34923 16.1141 7.2002 14.8861 7.2002 13.3713V10.6284C7.2002 12.1433 9.34923 13.3713 12.0002 13.3713Z" fill="url(#paint3_linear_1738_6626)"/>
<path d="M16.158 7.88577C16.5664 7.48233 16.8002 7.01394 16.8002 6.51434C16.8002 4.9995 14.6512 3.77148 12.0002 3.77148C9.34923 3.77148 7.2002 4.9995 7.2002 6.51434C7.2002 7.01394 7.43394 7.48233 7.84235 7.88577C8.67229 7.06593 10.2235 6.51434 12.0002 6.51434C13.7769 6.51434 15.3281 7.06593 16.158 7.88577Z" fill="url(#paint4_linear_1738_6626)"/>
<path d="M12.0002 9.25702C14.6512 9.25702 16.8002 8.029 16.8002 6.51416V9.25702C16.8002 10.7719 14.6512 11.9999 12.0002 11.9999C9.34923 11.9999 7.2002 10.7719 7.2002 9.25702V6.51416C7.2002 8.029 9.34923 9.25702 12.0002 9.25702Z" fill="url(#paint5_linear_1738_6626)"/>
<defs>
<linearGradient id="paint0_linear_1738_6626" x1="12.0002" y1="12" x2="12.0002" y2="15.7714" gradientUnits="userSpaceOnUse">
<stop stop-color="#7979FF"/>
<stop offset="1" stop-color="#4A4AFF"/>
</linearGradient>
<linearGradient id="paint1_linear_1738_6626" x1="12.0002" y1="16.3427" x2="12.0002" y2="20.2284" gradientUnits="userSpaceOnUse">
<stop stop-color="white" stop-opacity="0.9"/>
<stop offset="1" stop-color="#9595FF"/>
</linearGradient>
<linearGradient id="paint2_linear_1738_6626" x1="12.0002" y1="7.88574" x2="12.0002" y2="11.6572" gradientUnits="userSpaceOnUse">
<stop stop-color="#7979FF"/>
<stop offset="1" stop-color="#4A4AFF"/>
</linearGradient>
<linearGradient id="paint3_linear_1738_6626" x1="12.0002" y1="12.2284" x2="12.0002" y2="16.1141" gradientUnits="userSpaceOnUse">
<stop stop-color="white" stop-opacity="0.9"/>
<stop offset="1" stop-color="#9595FF"/>
</linearGradient>
<linearGradient id="paint4_linear_1738_6626" x1="12.0002" y1="3.77148" x2="12.0002" y2="7.54291" gradientUnits="userSpaceOnUse">
<stop stop-color="#8F8FFF"/>
<stop offset="1" stop-color="#4A4AFF"/>
</linearGradient>
<linearGradient id="paint5_linear_1738_6626" x1="12.0002" y1="8.11416" x2="12.0002" y2="11.9999" gradientUnits="userSpaceOnUse">
<stop stop-color="white"/>
<stop offset="1" stop-color="#9393FF"/>
</linearGradient>
</defs>
</svg>
