<svg width="14" height="14" viewBox="0 0 14 14" fill="none" xmlns="http://www.w3.org/2000/svg">
<path fill-rule="evenodd" clip-rule="evenodd" d="M4.38099 0.704946L5.08602 0.783283C5.09571 0.78436 5.10526 0.785419 5.11468 0.786464C5.28265 0.805098 5.40753 0.81895 5.52019 0.841352C6.68448 1.07284 7.55556 2.04607 7.65706 3.2288C7.66689 3.34325 7.66686 3.46889 7.66683 3.63789C7.66683 3.64737 7.66683 3.65698 7.66683 3.66674C7.66683 4.03492 7.36835 4.3334 7.00016 4.3334C6.63197 4.3334 6.3335 4.03492 6.3335 3.66674C6.3335 3.45635 6.33289 3.39264 6.32861 3.34281C6.27786 2.75145 5.84232 2.26483 5.26018 2.14909C5.21112 2.13933 5.14787 2.13169 4.93878 2.10846L4.25784 2.0328C3.73679 1.97491 3.3807 1.93574 3.10337 1.92474C2.83118 1.91394 2.69044 1.93377 2.59379 1.9647C2.23258 2.08029 1.93768 2.34424 1.78291 2.69048C1.7415 2.78311 1.70624 2.9208 1.68691 3.19252C1.66722 3.46938 1.66683 3.82761 1.66683 4.35186V9.64827C1.66683 10.1725 1.66722 10.5308 1.68691 10.8076C1.70624 11.0793 1.7415 11.217 1.78291 11.3097C1.93768 11.6559 2.23258 11.9198 2.59379 12.0354C2.69043 12.0664 2.83118 12.0862 3.10337 12.0754C3.38071 12.0644 3.7368 12.0252 4.25784 11.9673L4.93878 11.8917C5.14781 11.8684 5.21113 11.8608 5.26018 11.8511C5.84232 11.7353 6.27786 11.2487 6.32861 10.6573C6.33289 10.6075 6.3335 10.5438 6.3335 10.3334C6.3335 9.96521 6.63197 9.66673 7.00016 9.66673C7.36835 9.66673 7.66683 9.96521 7.66683 10.3334C7.66683 10.3432 7.66683 10.3528 7.66683 10.3622C7.66686 10.5312 7.66689 10.6569 7.65706 10.7713C7.55556 11.9541 6.68448 12.9273 5.52019 13.1588C5.40753 13.1812 5.28257 13.195 5.11462 13.2137L4.38097 13.2952C3.88996 13.3498 3.48659 13.3946 3.15623 13.4077C2.81534 13.4212 2.49714 13.4044 2.18742 13.3053C1.46499 13.0742 0.875199 12.5463 0.565655 11.8538C0.432946 11.5569 0.381145 11.2425 0.356941 10.9022C0.333485 10.5724 0.33349 10.1666 0.333496 9.67251V4.32763C0.33349 3.83358 0.333485 3.42772 0.356941 3.09793C0.381145 2.75762 0.432946 2.44323 0.565655 2.14635C0.875199 1.45387 1.46499 0.925983 2.18742 0.694804C2.49714 0.595692 2.81533 0.578926 3.15623 0.592451C3.48659 0.605557 3.88996 0.650381 4.38099 0.704946ZM9.19543 3.19533C9.45578 2.93498 9.87789 2.93498 10.1382 3.19533L13.4716 6.52866C13.7319 6.78901 13.7319 7.21112 13.4716 7.47147L10.1382 10.8048C9.87789 11.0652 9.45578 11.0652 9.19543 10.8048C8.93508 10.5445 8.93508 10.1223 9.19543 9.862L11.3907 7.66673H5.00016C4.63197 7.66673 4.3335 7.36826 4.3335 7.00007C4.3335 6.63188 4.63197 6.3334 5.00016 6.3334H11.3907L9.19543 4.13814C8.93508 3.87779 8.93508 3.45568 9.19543 3.19533Z" fill="#FF0000"/>
</svg>
