<svg width="18" height="18" viewBox="0 0 18 18" fill="none" xmlns="http://www.w3.org/2000/svg">
<path d="M4.00177 2.05179C4.23826 1.93217 4.51754 1.93217 4.75402 2.05179C4.84295 2.09677 4.95382 2.19282 5.443 2.68201L5.6054 2.8444C5.92682 3.16582 5.99263 3.2381 6.02825 3.29288C6.20783 3.56908 6.20783 3.92516 6.02825 4.20136C5.99263 4.25614 5.92682 4.32841 5.6054 4.64983L5.58584 4.66934C5.51078 4.74413 5.41576 4.8388 5.33435 4.9525C5.04376 5.35832 4.94968 5.91004 5.08937 6.38924C5.12833 6.52289 5.18136 6.63289 5.22261 6.71847L5.23217 6.73831C5.85231 8.02995 6.69739 9.23969 7.76612 10.3084C8.83485 11.3771 10.0446 12.2222 11.3362 12.8424L11.3561 12.8519C11.4416 12.8932 11.5516 12.9462 11.6853 12.9852C12.1645 13.1249 12.7162 13.0308 13.122 12.7402C13.2357 12.6588 13.3304 12.5638 13.4052 12.4887L13.4247 12.4691C13.7461 12.1477 13.8184 12.0819 13.8732 12.0463C14.1494 11.8667 14.5055 11.8667 14.7817 12.0463C14.8364 12.0819 14.9087 12.1477 15.2301 12.4691L15.3925 12.6315C15.8817 13.1207 15.9778 13.2316 16.0227 13.3205C16.1424 13.557 16.1424 13.8363 16.0227 14.0728C15.9778 14.1617 15.8817 14.2726 15.3925 14.7617L15.2612 14.8931C14.7943 15.36 14.6593 15.4858 14.4802 15.5864C14.2727 15.703 13.8971 15.8007 13.659 15.8C13.4472 15.7993 13.3196 15.7681 12.8344 15.6303C10.4397 14.9507 8.17991 13.6685 6.29298 11.7816C4.40604 9.89462 3.12387 7.6348 2.4442 5.24016C2.30648 4.75495 2.27521 4.62738 2.27458 4.41554C2.27387 4.17748 2.37155 3.80186 2.48815 3.59431C2.58874 3.41524 2.71458 3.28022 3.18142 2.81337L3.31279 2.68201C3.80197 2.19282 3.91284 2.09677 4.00177 2.05179Z" fill="#5656FF"/>
<path fill-rule="evenodd" clip-rule="evenodd" d="M5.50626 0.564538C4.79681 0.205701 3.95898 0.205701 3.24953 0.564538C2.88903 0.746876 2.57607 1.06064 2.21404 1.4236L2.13427 1.5035L2.00291 1.63486L1.94646 1.69128C1.55835 2.07899 1.26072 2.37632 1.03505 2.77804C0.777611 3.23632 0.606356 3.89486 0.607921 4.4205C0.609289 4.8804 0.704611 5.2158 0.827533 5.6483L0.840866 5.69524C1.59614 8.35626 3.02143 10.867 5.11446 12.9601C7.20749 15.0531 9.71828 16.4784 12.3793 17.2337L12.4262 17.247C12.8587 17.3699 13.1941 17.4652 13.654 17.4666C14.1797 17.4682 14.8382 17.2969 15.2965 17.0395C15.6982 16.8138 15.9955 16.5162 16.3833 16.1281L16.4397 16.0716L16.571 15.9403L16.6509 15.8605C17.0139 15.4985 17.3277 15.1855 17.51 14.825C17.8688 14.1156 17.8688 13.2777 17.51 12.5683C17.3277 12.2078 17.0139 11.8948 16.6509 11.5328L16.571 11.453L16.4086 11.2906L16.3561 11.238C16.1176 10.9991 15.9122 10.7934 15.6901 10.649C14.8615 10.1102 13.7933 10.1102 12.9647 10.649C12.7427 10.7934 12.5372 10.9991 12.2988 11.238L12.2462 11.2906C12.1982 11.3386 12.1736 11.3631 12.1555 11.3802L12.151 11.3811L12.146 11.3818L12.121 11.3702C12.104 11.3622 12.0844 11.3528 12.0576 11.3399C10.9332 10.8 9.87853 10.0638 8.94463 9.12991C8.01073 8.19601 7.27449 7.14135 6.73463 6.01695C6.72177 5.99016 6.71236 5.97055 6.70435 5.95353L6.69276 5.92849L6.69346 5.9235L6.69435 5.91902C6.71141 5.90097 6.7359 5.87635 6.78391 5.82835L6.83652 5.77579C7.0754 5.53731 7.28118 5.33189 7.42554 5.10984C7.96429 4.28123 7.96429 3.213 7.42555 2.38439C7.2902 2.17623 7.10089 1.98267 6.88092 1.76279L6.83652 1.71844L6.78391 1.66589L6.62152 1.5035L6.54175 1.4236C6.17972 1.06064 5.86676 0.746876 5.50626 0.564538ZM4.75402 2.05179C4.51754 1.93217 4.23826 1.93217 4.00177 2.05179C3.91284 2.09677 3.80197 2.19282 3.31279 2.68201L3.18142 2.81337C2.71458 3.28022 2.58874 3.41524 2.48815 3.59431C2.37155 3.80186 2.27387 4.17748 2.27458 4.41554C2.27521 4.62738 2.30648 4.75495 2.4442 5.24016C3.12387 7.6348 4.40604 9.89462 6.29298 11.7816C8.17991 13.6685 10.4397 14.9507 12.8344 15.6303C13.3196 15.7681 13.4472 15.7993 13.659 15.8C13.8971 15.8007 14.2727 15.703 14.4802 15.5864C14.6593 15.4858 14.7943 15.36 15.2612 14.8931L15.3925 14.7617C15.8817 14.2726 15.9778 14.1617 16.0227 14.0728C16.1424 13.8363 16.1424 13.557 16.0227 13.3205C15.9778 13.2316 15.8817 13.1207 15.3925 12.6315L15.2301 12.4691C14.9087 12.1477 14.8364 12.0819 14.7817 12.0463C14.5055 11.8667 14.1494 11.8667 13.8732 12.0463C13.8184 12.0819 13.7461 12.1477 13.4247 12.4691L13.4052 12.4887C13.3304 12.5638 13.2357 12.6588 13.122 12.7402C12.7162 13.0308 12.1645 13.1249 11.6853 12.9852C11.5516 12.9462 11.4416 12.8932 11.3561 12.8519L11.3362 12.8424C10.0446 12.2222 8.83485 11.3771 7.76612 10.3084C6.69739 9.23969 5.85231 8.02995 5.23217 6.73831L5.22261 6.71847C5.18136 6.63289 5.12833 6.52289 5.08937 6.38924C4.94968 5.91004 5.04376 5.35832 5.33435 4.9525C5.41576 4.8388 5.51078 4.74413 5.58584 4.66934L5.6054 4.64983C5.92682 4.32841 5.99263 4.25614 6.02825 4.20136C6.20783 3.92516 6.20783 3.56908 6.02825 3.29288C5.99263 3.2381 5.92682 3.16582 5.6054 2.8444L5.443 2.68201C4.95382 2.19282 4.84295 2.09677 4.75402 2.05179Z" fill="#5656FF"/>
</svg>
