<svg width="18" height="18" viewBox="0 0 18 18" fill="none" xmlns="http://www.w3.org/2000/svg">
<path fill-rule="evenodd" clip-rule="evenodd" d="M17.3332 8.99984C17.3332 13.6019 13.6019 17.3332 8.99984 17.3332C4.39775 17.3332 0.666504 13.6019 0.666504 8.99984C0.666504 4.39775 4.39775 0.666504 8.99984 0.666504C13.6019 0.666504 17.3332 4.39775 17.3332 8.99984ZM9.29845 6.81859C8.48803 7.15539 6.86789 7.85331 4.43873 8.91164C4.04428 9.06859 3.83734 9.22206 3.81859 9.37206C3.78664 9.62623 4.1047 9.72623 4.53664 9.86164C4.59567 9.88039 4.65678 9.89914 4.71928 9.91998C5.14498 10.0582 5.7172 10.22 6.01442 10.2262C6.28456 10.2318 6.58595 10.1207 6.91859 9.89289C9.18803 8.36025 10.3596 7.58595 10.4332 7.56928C10.4853 7.55748 10.5575 7.5422 10.6061 7.58595C10.6547 7.629 10.6498 7.71095 10.645 7.73317C10.613 7.8672 9.3672 9.02623 8.72137 9.62623C8.51998 9.81303 8.37762 9.94567 8.34845 9.97623C8.28317 10.0436 8.2165 10.1082 8.15262 10.17C7.75678 10.5505 7.46095 10.8366 8.16928 11.3033C8.50956 11.5276 8.78178 11.713 9.05331 11.8978C9.34984 12.0998 9.64567 12.3012 10.029 12.5526C10.1262 12.6165 10.2193 12.6825 10.3103 12.7471C10.6554 12.9936 10.9658 13.2144 11.3491 13.1797C11.5714 13.1589 11.8019 12.9498 11.9186 12.3255C12.1943 10.8491 12.7373 7.65192 12.863 6.33387C12.8707 6.22443 12.866 6.11448 12.8491 6.00609C12.839 5.91854 12.7964 5.83798 12.7297 5.78039C12.6304 5.69914 12.4762 5.68178 12.4068 5.68317C12.0936 5.68873 11.613 5.85609 9.29845 6.81859V6.81859Z" fill="#5656FF"/>
</svg>
