<svg width="18" height="18" viewBox="0 0 18 18" fill="none" xmlns="http://www.w3.org/2000/svg">
<path fill-rule="evenodd" clip-rule="evenodd" d="M8.99984 17.3332C13.6022 17.3332 17.3332 13.6022 17.3332 8.99984C17.3332 4.39746 13.6022 0.666504 8.99984 0.666504C4.39746 0.666504 0.666504 4.39746 0.666504 8.99984C0.666504 13.6022 4.39746 17.3332 8.99984 17.3332ZM6.4615 4.69307C7.23115 4.2395 8.10827 4.00042 9.00162 4.00068L9.00078 3.99984C10.3268 4.00006 11.5985 4.52706 12.536 5.4649C13.4735 6.40274 14.0001 7.6746 13.9998 9.00068C13.9996 10.3268 13.4726 11.5984 12.5348 12.536C11.597 13.4735 10.3251 14.0001 8.99909 13.9998H8.99656C8.10127 13.9999 7.22244 13.7592 6.45211 13.303L6.26988 13.195L4.37757 13.6911L4.88292 11.8468L4.76396 11.6578C4.28932 10.901 4.02611 10.0308 4.0017 9.13773C3.9773 8.24469 4.19258 7.36142 4.62516 6.57977C5.05775 5.79812 5.69184 5.14663 6.4615 4.69307ZM11.5086 11.6099C11.6831 11.4869 11.8303 11.3292 11.9409 11.1466C12.0393 10.922 12.0698 10.6736 12.0286 10.432C11.9995 10.383 11.9315 10.3501 11.831 10.3016C11.8034 10.2882 11.7733 10.2737 11.741 10.2573C11.5908 10.1814 10.8509 9.81777 10.7134 9.768C10.5759 9.71822 10.4763 9.69291 10.3759 9.84308C10.2755 9.99326 9.98785 10.3316 9.90011 10.432C9.81237 10.5324 9.72463 10.5459 9.57446 10.4699C9.13118 10.2935 8.72206 10.0411 8.36551 9.72413C8.0369 9.42033 7.75515 9.06949 7.52945 8.68304C7.44255 8.53287 7.52017 8.45187 7.5961 8.37679C7.63917 8.33371 7.68809 8.27415 7.73758 8.21387C7.76564 8.1797 7.79388 8.14531 7.82135 8.11356C7.88311 8.03763 7.93368 7.95325 7.97152 7.86299C7.99146 7.82153 8.00075 7.77574 7.99854 7.72978C7.99633 7.68382 7.9827 7.63913 7.95887 7.59977C7.93683 7.55518 7.82198 7.2762 7.70582 6.99403C7.62635 6.80098 7.54627 6.60645 7.49486 6.48444C7.38743 6.22481 7.27868 6.22578 7.19078 6.22656C7.17928 6.22667 7.16814 6.22677 7.1574 6.22628C7.06967 6.22122 6.96928 6.22122 6.86974 6.22122H6.86971C6.79356 6.22326 6.71865 6.24102 6.64968 6.2734C6.58072 6.30578 6.5192 6.35206 6.46898 6.40935C6.29905 6.57018 6.16448 6.76464 6.07384 6.98034C5.98321 7.19605 5.93849 7.42826 5.94254 7.6622C5.99161 8.22896 6.20507 8.76907 6.55672 9.21624C7.20135 10.1822 8.08603 10.964 9.12395 11.4849C9.40362 11.6056 9.68945 11.7115 9.98026 11.8021C10.2869 11.8951 10.611 11.9153 10.9268 11.8611C11.136 11.8184 11.3341 11.7329 11.5086 11.6099Z" fill="#5656FF"/>
</svg>
