<svg width="70" height="82" viewBox="0 0 70 82" fill="none" xmlns="http://www.w3.org/2000/svg">
<path d="M65.5238 81.3214L69.2466 70.3909L57.9192 72.6322L65.5238 81.3214ZM0.574684 2.55153C0.873717 2.69206 1.17189 2.83313 1.46921 2.97475L2.3293 1.16914C2.02881 1.026 1.72748 0.883438 1.42532 0.74144L0.574684 2.55153ZM3.24276 3.83119C3.83534 4.1213 4.42439 4.41373 5.00989 4.70853L5.90933 2.92219C5.31706 2.62398 4.72133 2.32824 4.12217 2.03491L3.24276 3.83119ZM6.76091 5.60284C7.34688 5.90643 7.92918 6.21254 8.50778 6.52123L9.44921 4.75666C8.86339 4.44412 8.27397 4.13427 7.68097 3.82703L6.76091 5.60284ZM10.2382 7.45829C10.8152 7.77542 11.3883 8.09525 11.9576 8.41787L12.9436 6.67784C12.3667 6.35089 11.786 6.02685 11.2016 5.70562L10.2382 7.45829ZM13.6645 9.40025C14.2315 9.7317 14.7945 10.0661 15.3536 10.4034L16.3869 8.69096C15.8197 8.34877 15.2487 8.00968 14.6738 7.67362L13.6645 9.40025ZM17.0336 11.4335C17.5912 11.781 18.1447 12.1316 18.6941 12.4855L19.777 10.804C19.2192 10.4447 18.6573 10.0888 18.0914 9.73618L17.0336 11.4335ZM20.3393 13.5628C20.8863 13.9271 21.4291 14.2948 21.9677 14.6659L23.1025 13.019C22.5551 12.6419 22.0035 12.2683 21.4478 11.8982L20.3393 13.5628ZM23.575 15.7928C24.11 16.1745 24.6406 16.5597 25.1668 16.9486L26.3555 15.3402C25.8202 14.9445 25.2805 14.5527 24.7365 14.1647L23.575 15.7928ZM26.7363 18.1294C27.2567 18.5281 27.7728 18.9306 28.2843 19.337L29.5284 17.7711C29.0076 17.3573 28.4822 16.9475 27.9525 16.5417L26.7363 18.1294ZM29.8114 20.573C30.3168 20.9897 30.8176 21.4104 31.3138 21.8352L32.6145 20.316C32.1089 19.883 31.5986 19.4544 31.0838 19.0299L29.8114 20.573ZM32.793 23.1261C33.2823 23.5613 33.7668 24.0007 34.2467 24.4445L35.6046 22.9761C35.1152 22.5235 34.6211 22.0754 34.1223 21.6317L32.793 23.1261ZM35.6736 25.7903C36.1452 26.2439 36.612 26.702 37.0741 27.1646L38.4892 25.7512C38.0176 25.2791 37.5413 24.8117 37.0602 24.3489L35.6736 25.7903ZM38.4459 28.5662C38.8984 29.038 39.3461 29.5145 39.789 29.9956L41.2605 28.6412C40.8084 28.1499 40.3513 27.6635 39.8894 27.1818L38.4459 28.5662ZM41.1016 31.4518C41.5339 31.9416 41.9614 32.4361 42.3839 32.9355L43.9107 31.6436C43.4791 31.1335 43.0425 30.6284 42.601 30.1282L41.1016 31.4518ZM43.6346 34.4454C44.0454 34.9523 44.4514 35.464 44.8525 35.9808L46.4325 34.7546C46.0227 34.2266 45.6079 33.7038 45.1882 33.186L43.6346 34.4454ZM46.0391 37.5436C46.4276 38.0668 46.8113 38.595 47.1902 39.1284L48.8207 37.9703C48.4337 37.4254 48.0417 36.8857 47.6447 36.3511L46.0391 37.5436ZM48.3084 40.7387C48.6748 41.2785 49.0364 41.8235 49.3931 42.3737L51.0713 41.2857C50.7069 40.7236 50.3375 40.1669 49.9632 39.6155L48.3084 40.7387ZM50.4412 44.028C50.7845 44.5827 51.1231 45.1426 51.4568 45.7079L53.179 44.691C52.8382 44.1138 52.4925 43.542 52.1418 42.9754L50.4412 44.028ZM52.4355 47.4054C52.755 47.9729 53.0697 48.5456 53.3797 49.1237L55.1423 48.1785C54.8258 47.5884 54.5045 47.0037 54.1784 46.4243L52.4355 47.4054ZM54.2906 50.8644C54.5862 51.4433 54.8771 52.0274 55.1634 52.6169L56.9624 51.7431C56.6703 51.1418 56.3735 50.5458 56.0719 49.955L54.2906 50.8644ZM56.0048 54.3935C56.2773 54.9838 56.5454 55.5794 56.8089 56.1802L58.6405 55.377C58.3718 54.7645 58.0985 54.1572 57.8206 53.5551L56.0048 54.3935ZM57.5802 57.9855C57.8307 58.5873 58.0767 59.1942 58.3183 59.8065L60.1787 59.0724C59.9326 58.4487 59.6819 57.8303 59.4267 57.2171L57.5802 57.9855ZM59.0212 61.6365C59.2499 62.2485 59.4744 62.8658 59.6945 63.4882L61.5801 62.8215C61.3561 62.1879 61.1275 61.5595 60.8946 60.9362L59.0212 61.6365ZM60.331 65.3392C60.5382 65.959 60.7412 66.5839 60.94 67.2139L62.8473 66.6122C62.6452 65.9714 62.4387 65.3357 62.2278 64.7051L60.331 65.3392ZM61.514 69.0869C61.7001 69.7127 61.8823 70.3435 62.0603 70.9793L63.9862 70.44C63.8053 69.7939 63.6202 69.1528 63.4309 68.5166L61.514 69.0869ZM62.5746 72.8732C62.7407 73.5042 62.9029 74.14 63.0611 74.7807L65.0027 74.3012C64.8421 73.6507 64.6774 73.005 64.5087 72.3641L62.5746 72.8732ZM63.5181 76.6922C63.665 77.3276 63.8082 77.9677 63.9475 78.6126L65.9024 78.1902C65.761 77.5359 65.6158 76.8864 65.4666 76.2416L63.5181 76.6922Z" fill="#FF7171"/>
</svg>
