<svg width="39" height="36" viewBox="0 0 39 36" fill="none" xmlns="http://www.w3.org/2000/svg">
<path fill-rule="evenodd" clip-rule="evenodd" d="M29.8019 0.764893C31.0114 0.764893 31.9919 1.7091 31.9919 2.87384C31.9919 4.03858 31.0114 4.98279 29.8019 4.98279C20.9856 4.98279 18.2678 5.26564 15.5043 7.87462C13.9353 9.35593 12.5763 11.3314 10.6876 13.5357C9.29103 15.1656 9.11121 15.8557 6.4047 15.8891C4.71905 17.8713 5.19267 20.107 2.89591 20.107C1.68639 20.107 0.705883 19.1628 0.705883 17.998C0.705883 16.8333 1.68639 15.8891 2.89591 15.8891C5.78494 15.8891 7.04049 11.387 8.91177 8.89907C10.1699 7.22632 10.8158 6.39422 12.438 4.86273C16.6826 0.855381 21.3483 0.764893 29.8019 0.764893ZM17.5468 15.8891C17.7881 15.6654 18.069 15.4026 18.3201 15.1656C18.06 15.4111 17.8032 15.6528 17.5468 15.8891ZM11.6787 20.9461C10.5317 20.427 9.82353 19.912 6.19464 20.1053L16.6464 19.9262C17.6502 19.9352 18.0559 20.403 18.3069 20.6405C18.3804 20.7101 18.4488 20.7749 18.5078 20.8305C21.2713 23.4395 23.9891 23.7223 32.8054 23.7223C34.0149 23.7223 34.9954 24.6665 34.9954 25.8313C34.9954 26.996 34.0149 27.9402 32.8054 27.9402C24.3517 27.9402 19.6861 27.8498 15.4415 23.8424C13.8193 22.3109 12.8598 21.4807 11.6787 20.9461ZM2.89591 15.8891C4.33178 15.8891 4.68112 18.5999 6.19464 20.1053C8.91177 20.0624 8.47725 19.7066 10.2703 22.25C11.4862 23.9748 11.6252 24.4612 12.438 25.4266C14.0724 27.3677 13.7849 27.0566 15.5043 28.3022C19.2125 30.9885 20.9856 31.194 29.8019 31.194C31.0114 31.194 31.9919 32.1383 31.9919 33.303C31.9919 34.4677 31.0114 35.412 29.8019 35.412C21.3483 35.412 16.6826 35.3215 12.438 31.3141C10.8158 29.7826 9.9342 28.7582 8.91177 27.2061C7.63307 25.2649 6.17648 21.7355 2.89591 20.107C1.68639 20.107 0.705883 19.1628 0.705883 17.998C0.705883 16.8333 1.68639 15.8891 2.89591 15.8891Z" fill="url(#paint0_linear_2421_24985)"/>
<path d="M36.81 20.107L16.6464 19.9262L6.19464 20.1053C9.90398 20.0468 14.6595 18.7211 17.5468 15.8891H36.81C38.0195 15.8891 39 16.8333 39 17.998C39 19.1628 38.0195 20.107 36.81 20.107Z" fill="url(#paint1_linear_2421_24985)"/>
<path d="M32.6176 8.05585C33.8272 8.05585 34.8077 9.00006 34.8077 10.1648C34.8077 11.3295 33.8272 12.2737 32.6176 12.2737C23.8014 12.2737 21.0835 12.5566 18.3201 15.1656C18.069 15.4026 17.7881 15.6654 17.5468 15.8891C14.6595 18.7211 9.90398 20.0468 6.19464 20.1053L2.89591 20.107C1.68639 20.107 0.705883 19.1628 0.705883 17.998C0.705883 16.8333 1.68639 15.8891 2.89591 15.8891H7.78802C10.677 15.8891 10.344 15.5691 11.491 15.05C12.6721 14.5154 13.6316 13.6852 15.2537 12.1537C19.4984 8.14634 24.164 8.05585 32.6176 8.05585Z" fill="url(#paint2_linear_2421_24985)"/>
<defs>
<linearGradient id="paint0_linear_2421_24985" x1="36.2468" y1="10.1045" x2="0.80399" y2="19.225" gradientUnits="userSpaceOnUse">
<stop stop-color="#319CFF"/>
<stop offset="1" stop-color="#BEE0FF"/>
</linearGradient>
<linearGradient id="paint1_linear_2421_24985" x1="40.314" y1="18.0583" x2="4.58535" y2="18.0583" gradientUnits="userSpaceOnUse">
<stop stop-color="#CEE8FF"/>
<stop offset="1" stop-color="#319CFF"/>
</linearGradient>
<linearGradient id="paint2_linear_2421_24985" x1="36.2468" y1="10.1045" x2="0.803994" y2="19.225" gradientUnits="userSpaceOnUse">
<stop stop-color="#319CFF"/>
<stop offset="1" stop-color="#BDDFFF"/>
</linearGradient>
</defs>
</svg>
