<svg width="112" height="76" viewBox="0 0 112 76" fill="none" xmlns="http://www.w3.org/2000/svg">
<g filter="url(#filter0_d_2421_24449)">
<rect x="24.5122" y="8.04883" width="63" height="26" rx="13" fill="#EDEDFF" shape-rendering="crispEdges"/>
<path d="M47.6971 22.5288C47.6971 23.0568 47.5531 23.5168 47.2651 23.9088C46.9851 24.3008 46.6091 24.6088 46.1371 24.8328C45.6651 25.0488 45.1491 25.1568 44.5891 25.1568C44.0211 25.1568 43.5011 25.0408 43.0291 24.8088C42.5651 24.5768 42.1931 24.2608 41.9131 23.8608C41.6411 23.4528 41.5051 22.9888 41.5051 22.4688C41.5051 22.1488 41.5731 21.8608 41.7091 21.6048C41.8451 21.3408 42.0131 21.1168 42.2131 20.9328C42.4211 20.7408 42.6291 20.5928 42.8371 20.4888C42.6451 20.3928 42.4651 20.2648 42.2971 20.1048C42.1371 19.9448 42.0091 19.7608 41.9131 19.5528C41.8171 19.3448 41.7691 19.1248 41.7691 18.8928C41.7691 18.5168 41.8531 18.1808 42.0211 17.8848C42.1891 17.5888 42.4131 17.3408 42.6931 17.1408C42.9731 16.9328 43.2771 16.7808 43.6051 16.6848C43.9411 16.5808 44.2731 16.5288 44.6011 16.5288C44.9211 16.5288 45.2491 16.5808 45.5851 16.6848C45.9211 16.7808 46.2291 16.9288 46.5091 17.1288C46.7891 17.3288 47.0131 17.5768 47.1811 17.8728C47.3571 18.1608 47.4451 18.4968 47.4451 18.8808C47.4451 19.1048 47.3931 19.3248 47.2891 19.5408C47.1931 19.7488 47.0611 19.9368 46.8931 20.1048C46.7331 20.2648 46.5491 20.3928 46.3411 20.4888C46.5731 20.6088 46.7931 20.7648 47.0011 20.9568C47.2091 21.1488 47.3771 21.3768 47.5051 21.6408C47.6331 21.9048 47.6971 22.2008 47.6971 22.5288ZM46.0651 22.4328C46.0651 22.2248 46.0251 22.0448 45.9451 21.8928C45.8651 21.7328 45.7531 21.6008 45.6091 21.4968C45.4651 21.3848 45.3051 21.3008 45.1291 21.2448C44.9531 21.1888 44.7731 21.1608 44.5891 21.1608C44.3331 21.1608 44.0931 21.2128 43.8691 21.3168C43.6531 21.4208 43.4771 21.5688 43.3411 21.7608C43.2051 21.9528 43.1371 22.1768 43.1371 22.4328C43.1371 22.6248 43.1771 22.8008 43.2571 22.9608C43.3451 23.1128 43.4571 23.2448 43.5931 23.3568C43.7371 23.4688 43.8931 23.5568 44.0611 23.6208C44.2371 23.6768 44.4171 23.7048 44.6011 23.7048C44.8571 23.7048 45.0971 23.6488 45.3211 23.5368C45.5451 23.4248 45.7251 23.2728 45.8611 23.0808C45.9971 22.8888 46.0651 22.6728 46.0651 22.4328ZM43.4011 18.9408C43.4011 19.1568 43.4611 19.3408 43.5811 19.4928C43.7011 19.6448 43.8531 19.7608 44.0371 19.8408C44.2291 19.9128 44.4171 19.9488 44.6011 19.9488C44.7931 19.9488 44.9771 19.9088 45.1531 19.8288C45.3371 19.7488 45.4891 19.6368 45.6091 19.4928C45.7371 19.3408 45.8011 19.1528 45.8011 18.9288C45.8011 18.7288 45.7451 18.5568 45.6331 18.4128C45.5211 18.2688 45.3731 18.1568 45.1891 18.0768C45.0131 17.9968 44.8131 17.9568 44.5891 17.9568C44.3811 17.9568 44.1851 17.9968 44.0011 18.0768C43.8171 18.1568 43.6691 18.2728 43.5571 18.4248C43.4531 18.5688 43.4011 18.7408 43.4011 18.9408ZM51.8341 25.0488V18.7608H55.9981V20.1648H53.4421V25.0488H51.8341ZM59.824 25.1688C59.312 25.1688 58.852 25.0848 58.444 24.9168C58.036 24.7408 57.688 24.5008 57.4 24.1968C57.12 23.8928 56.904 23.5448 56.752 23.1528C56.6 22.7608 56.524 22.3488 56.524 21.9168C56.524 21.4768 56.6 21.0608 56.752 20.6688C56.904 20.2768 57.12 19.9288 57.4 19.6248C57.688 19.3208 58.036 19.0848 58.444 18.9168C58.852 18.7408 59.312 18.6528 59.824 18.6528C60.336 18.6528 60.792 18.7408 61.192 18.9168C61.6 19.0848 61.948 19.3208 62.236 19.6248C62.524 19.9288 62.74 20.2768 62.884 20.6688C63.036 21.0608 63.112 21.4768 63.112 21.9168C63.112 22.3488 63.036 22.7608 62.884 23.1528C62.74 23.5448 62.524 23.8928 62.236 24.1968C61.956 24.5008 61.612 24.7408 61.204 24.9168C60.796 25.0848 60.336 25.1688 59.824 25.1688ZM58.18 21.9168C58.18 22.2848 58.252 22.6128 58.396 22.9008C58.54 23.1808 58.736 23.4008 58.984 23.5608C59.232 23.7208 59.512 23.8008 59.824 23.8008C60.128 23.8008 60.404 23.7208 60.652 23.5608C60.9 23.3928 61.096 23.1688 61.24 22.8888C61.392 22.6008 61.468 22.2728 61.468 21.9048C61.468 21.5448 61.392 21.2208 61.24 20.9328C61.096 20.6448 60.9 20.4208 60.652 20.2608C60.404 20.1008 60.128 20.0208 59.824 20.0208C59.512 20.0208 59.232 20.1048 58.984 20.2728C58.736 20.4328 58.54 20.6568 58.396 20.9448C58.252 21.2248 58.18 21.5488 58.18 21.9168ZM63.6813 26.5728V23.6448H63.8493C64.0093 23.6448 64.1573 23.6008 64.2933 23.5128C64.4373 23.4248 64.5613 23.2768 64.6653 23.0688C64.7773 22.8528 64.8653 22.5568 64.9293 22.1808C65.0013 21.8048 65.0493 21.3248 65.0733 20.7408L65.1453 18.7608H69.8613V23.6448H70.7373V26.5728H69.3333V25.0488H65.0973V26.5728H63.6813ZM65.8773 23.6448H68.2533V20.1168H66.5493L66.5133 20.8968C66.4893 21.4248 66.4493 21.8728 66.3933 22.2408C66.3453 22.6008 66.2773 22.8968 66.1893 23.1288C66.1093 23.3528 66.0053 23.5248 65.8773 23.6448Z" fill="#0F0F1A"/>
<path d="M38.5122 34.0488C38.5122 34.0488 29.5122 33.0488 25.0122 35.5488C27.0122 30.0488 25.5122 22.0488 25.5122 22.0488L38.5122 34.0488Z" fill="#EDEDFF"/>
</g>
<defs>
<filter id="filter0_d_2421_24449" x="0.512207" y="0.0488281" width="111" height="75.5" filterUnits="userSpaceOnUse" color-interpolation-filters="sRGB">
<feFlood flood-opacity="0" result="BackgroundImageFix"/>
<feColorMatrix in="SourceAlpha" type="matrix" values="0 0 0 0 0 0 0 0 0 0 0 0 0 0 0 0 0 0 127 0" result="hardAlpha"/>
<feOffset dy="16"/>
<feGaussianBlur stdDeviation="12"/>
<feComposite in2="hardAlpha" operator="out"/>
<feColorMatrix type="matrix" values="0 0 0 0 0 0 0 0 0 0 0 0 0 0 0 0 0 0 0.08 0"/>
<feBlend mode="normal" in2="BackgroundImageFix" result="effect1_dropShadow_2421_24449"/>
<feBlend mode="normal" in="SourceGraphic" in2="effect1_dropShadow_2421_24449" result="shape"/>
</filter>
</defs>
</svg>
